<svg xmlns="http://www.w3.org/2000/svg" viewBox="0 0 500 500"><g id="freepik--background-complete--inject-3"><rect y="382.4" width="500" height="0.25" style="fill:#ebebeb"></rect><rect x="416.78" y="398.49" width="33.12" height="0.25" style="fill:#ebebeb"></rect><rect x="322.53" y="401.21" width="8.69" height="0.25" style="fill:#ebebeb"></rect><rect x="396.59" y="389.21" width="19.19" height="0.25" style="fill:#ebebeb"></rect><rect x="52.46" y="390.89" width="43.19" height="0.25" style="fill:#ebebeb"></rect><rect x="104.56" y="390.89" width="6.33" height="0.25" style="fill:#ebebeb"></rect><rect x="131.47" y="395.11" width="93.68" height="0.25" style="fill:#ebebeb"></rect><path d="M237,337.8H43.91a5.71,5.71,0,0,1-5.7-5.71V60.66A5.71,5.71,0,0,1,43.91,55H237a5.71,5.71,0,0,1,5.71,5.71V332.09A5.71,5.71,0,0,1,237,337.8ZM43.91,55.2a5.46,5.46,0,0,0-5.45,5.46V332.09a5.46,5.46,0,0,0,5.45,5.46H237a5.47,5.47,0,0,0,5.46-5.46V60.66A5.47,5.47,0,0,0,237,55.2Z" style="fill:#ebebeb"></path><path d="M453.31,337.8H260.21a5.72,5.72,0,0,1-5.71-5.71V60.66A5.72,5.72,0,0,1,260.21,55h193.1A5.71,5.71,0,0,1,459,60.66V332.09A5.71,5.71,0,0,1,453.31,337.8ZM260.21,55.2a5.47,5.47,0,0,0-5.46,5.46V332.09a5.47,5.47,0,0,0,5.46,5.46h193.1a5.47,5.47,0,0,0,5.46-5.46V60.66a5.47,5.47,0,0,0-5.46-5.46Z" style="fill:#ebebeb"></path><rect x="131.67" y="165.92" width="63" height="215.39" style="fill:#ebebeb"></rect><polygon points="279.92 173 61.48 173 77.13 80.66 295.56 80.66 279.92 173" style="fill:#e6e6e6"></polygon><ellipse cx="100.08" cy="109.58" rx="10.05" ry="8.47" transform="translate(-48.1 101.33) rotate(-44.41)" style="fill:#f5f5f5"></ellipse><ellipse cx="125.28" cy="109.58" rx="10.05" ry="8.47" transform="translate(-40.9 118.97) rotate(-44.41)" style="fill:#f5f5f5"></ellipse><ellipse cx="150.49" cy="109.58" rx="10.05" ry="8.47" transform="translate(-33.7 136.6) rotate(-44.41)" style="fill:#f5f5f5"></ellipse><ellipse cx="175.69" cy="109.58" rx="10.05" ry="8.47" transform="translate(-26.5 154.23) rotate(-44.41)" style="fill:#f5f5f5"></ellipse><ellipse cx="200.89" cy="109.58" rx="10.05" ry="8.47" transform="translate(-19.3 171.87) rotate(-44.41)" style="fill:#f5f5f5"></ellipse><ellipse cx="226.1" cy="109.58" rx="10.05" ry="8.47" transform="translate(-12.11 189.51) rotate(-44.41)" style="fill:#f5f5f5"></ellipse><ellipse cx="251.3" cy="109.58" rx="10.05" ry="8.47" transform="translate(-4.91 207.15) rotate(-44.41)" style="fill:#f5f5f5"></ellipse><ellipse cx="276.5" cy="109.58" rx="10.05" ry="8.47" transform="translate(2.29 224.78) rotate(-44.41)" style="fill:#f5f5f5"></ellipse><ellipse cx="96.31" cy="131.83" rx="10.05" ry="8.47" transform="translate(-64.74 105.05) rotate(-44.41)" style="fill:#f5f5f5"></ellipse><ellipse cx="121.52" cy="131.83" rx="10.05" ry="8.47" transform="translate(-57.54 122.69) rotate(-44.41)" style="fill:#f5f5f5"></ellipse><ellipse cx="146.72" cy="131.83" rx="10.05" ry="8.47" transform="translate(-50.34 140.32) rotate(-44.41)" style="fill:#f5f5f5"></ellipse><ellipse cx="171.92" cy="131.83" rx="10.05" ry="8.47" transform="translate(-43.14 157.95) rotate(-44.41)" style="fill:#f5f5f5"></ellipse><ellipse cx="197.12" cy="131.83" rx="10.05" ry="8.47" transform="translate(-35.94 175.59) rotate(-44.41)" style="fill:#f5f5f5"></ellipse><ellipse cx="222.33" cy="131.83" rx="10.05" ry="8.47" transform="translate(-28.75 193.22) rotate(-44.41)" style="fill:#f5f5f5"></ellipse><ellipse cx="247.53" cy="131.83" rx="10.05" ry="8.47" transform="translate(-21.55 210.86) rotate(-44.41)" style="fill:#f5f5f5"></ellipse><ellipse cx="272.73" cy="131.83" rx="10.05" ry="8.47" transform="translate(-14.35 228.49) rotate(-44.41)" style="fill:#f5f5f5"></ellipse><ellipse cx="92.54" cy="154.07" rx="10.05" ry="8.47" transform="translate(-81.38 108.76) rotate(-44.41)" style="fill:#f5f5f5"></ellipse><ellipse cx="117.75" cy="154.07" rx="10.05" ry="8.47" transform="translate(-74.18 126.4) rotate(-44.41)" style="fill:#f5f5f5"></ellipse><ellipse cx="142.95" cy="154.07" rx="10.05" ry="8.47" transform="translate(-66.98 144.03) rotate(-44.41)" style="fill:#f5f5f5"></ellipse><ellipse cx="168.15" cy="154.07" rx="10.05" ry="8.47" transform="translate(-59.78 161.67) rotate(-44.41)" style="fill:#f5f5f5"></ellipse><ellipse cx="193.35" cy="154.07" rx="10.05" ry="8.47" transform="translate(-52.58 179.31) rotate(-44.41)" style="fill:#f5f5f5"></ellipse><ellipse cx="218.56" cy="154.07" rx="10.05" ry="8.47" transform="translate(-45.39 196.94) rotate(-44.41)" style="fill:#f5f5f5"></ellipse><ellipse cx="243.76" cy="154.07" rx="10.05" ry="8.47" transform="translate(-38.19 214.58) rotate(-44.41)" style="fill:#f5f5f5"></ellipse><ellipse cx="268.96" cy="154.07" rx="10.05" ry="8.47" transform="translate(-30.99 232.21) rotate(-44.41)" style="fill:#f5f5f5"></ellipse><polygon points="77.13 80.66 317.44 80.66 316.52 86.86 85.85 93.26 71.61 173.32 61.48 173 77.13 80.66" style="fill:#f0f0f0"></polygon><polygon points="77.13 80.66 56.31 89.61 48.4 159.21 61.48 173 77.13 80.66" style="fill:#ebebeb"></polygon><path d="M48.4,381.32V355.5H89.89l19.29,25.1S45.76,381.32,48.4,381.32Z" style="fill:#ebebeb"></path><polygon points="48.4 355.5 66.86 381.08 48.4 381.32 48.4 355.5" style="fill:#e0e0e0"></polygon><path d="M449.1,381.32V355.5H407.61l-19.29,25.1S451.74,381.32,449.1,381.32Z" style="fill:#ebebeb"></path><polygon points="449.1 355.5 430.64 381.08 449.1 381.32 449.1 355.5" style="fill:#e0e0e0"></polygon><polygon points="404.24 79.08 432.42 71.91 446.9 71.91 446.9 93.59 429.06 104.78 404.24 79.08" style="fill:#e0e0e0"></polygon><polygon points="404.24 79.08 407.22 104.78 429.06 104.78 426.87 79.08 404.24 79.08" style="fill:#e6e6e6"></polygon><polygon points="404.24 79.08 401.9 68.55 419.82 68.55 426.87 79.08 404.24 79.08" style="fill:#f0f0f0"></polygon><ellipse cx="416.73" cy="93.12" rx="9.51" ry="11.16" transform="translate(-10.15 103.41) rotate(-13.98)" style="fill:#f5f5f5"></ellipse><polygon points="404.24 79.08 392.07 86.09 395.16 104.28 407.22 104.78 404.24 79.08" style="fill:#f0f0f0"></polygon><polygon points="407.22 104.78 407.17 115.64 422.03 115.64 429.06 104.78 407.22 104.78" style="fill:#f0f0f0"></polygon><polygon points="426.87 79.08 434.45 85.17 435.43 103.25 429.06 104.78 426.87 79.08" style="fill:#f0f0f0"></polygon></g><g id="freepik--Shadow--inject-3"><ellipse id="freepik--path--inject-3" cx="250" cy="416.24" rx="193.89" ry="11.32" style="fill:#f5f5f5"></ellipse></g><g id="freepik--firework-effect--inject-3"><path d="M126,316a.88.88,0,0,1-.79-.84l-8.4-64.87a1,1,0,0,1,.65-1.15c.44-.09.84.28.91.82l8.41,64.88a1,1,0,0,1-.66,1.15Z" style="fill:#407BFF"></path><path d="M116,238.94a.87.87,0,0,1-.79-.83l-3.92-29.4a1,1,0,0,1,.65-1.15c.44-.09.84.28.91.82l3.93,29.4a1,1,0,0,1-.65,1.15Z" style="fill:#407BFF"></path><path d="M110.39,196.63a.88.88,0,0,1-.78-.85L107,174.13a1,1,0,0,1,.66-1.13c.43-.09.84.29.9.84l2.59,21.65a1,1,0,0,1-.67,1.13Z" style="fill:#407BFF"></path><path d="M106.3,162.76a.88.88,0,0,1-.79-.85l-.77-6.16a1,1,0,0,1,.66-1.14c.43-.09.84.29.91.83l.77,6.16a1,1,0,0,1-.66,1.14Z" style="fill:#407BFF"></path><path d="M103.9,143.6a.88.88,0,0,1-.79-.85L99,109.21a1,1,0,0,1,.66-1.15c.43-.08.84.29.91.84l4.12,33.54a1,1,0,0,1-.66,1.14Z" style="fill:#407BFF"></path><path d="M98.26,97a.89.89,0,0,1-.79-.86L96.78,90a1,1,0,0,1,.67-1.13c.43-.08.84.3.9.85L99,95.89A1,1,0,0,1,98.37,97Z" style="fill:#407BFF"></path><path d="M129.06,407.34a.85.85,0,0,1-.76-.68l-12.17-44.93a1.09,1.09,0,0,1,.49-1.27.77.77,0,0,1,1,.63L129.81,406a1.07,1.07,0,0,1-.5,1.27A.57.57,0,0,1,129.06,407.34Z" style="fill:#407BFF"></path><path d="M113.44,350.31a.81.81,0,0,1-.73-.61l-2.89-8.46a1.13,1.13,0,0,1,.42-1.32.75.75,0,0,1,1,.53l2.89,8.46a1.11,1.11,0,0,1-.42,1.31A.61.61,0,0,1,113.44,350.31Z" style="fill:#407BFF"></path><path d="M106.86,329.82a.81.81,0,0,1-.74-.66l-17.42-62a1.1,1.1,0,0,1,.48-1.28.77.77,0,0,1,1,.61l17.41,62a1.09,1.09,0,0,1-.48,1.28A.86.86,0,0,1,106.86,329.82Z" style="fill:#407BFF"></path><path d="M86.16,256.21a.81.81,0,0,1-.74-.66l-8-28.05a1.09,1.09,0,0,1,.48-1.28.78.78,0,0,1,1,.61l8,28a1.09,1.09,0,0,1-.48,1.28A.65.65,0,0,1,86.16,256.21Z" style="fill:#407BFF"></path><path d="M73.94,215.15s-3.71-13.82-5.59-20.72a1.06,1.06,0,0,1,.49-1.27.77.77,0,0,1,1,.62c1.88,6.9,5.59,20.73,5.59,20.73Z" style="fill:#407BFF"></path><path d="M65.88,183.41a.84.84,0,0,1-.75-.67l-1.62-5.89a1.06,1.06,0,0,1,.49-1.27c.41-.19.86.09,1,.61l1.62,5.89a1.06,1.06,0,0,1-.49,1.27A.58.58,0,0,1,65.88,183.41Z" style="fill:#407BFF"></path><path d="M60.82,165.09a.84.84,0,0,1-.75-.67c-2.92-10.56-8.72-31.88-8.78-32.09a1.08,1.08,0,0,1,.49-1.27.77.77,0,0,1,1,.62c.06.21,5.86,21.52,8.78,32.08a1.08,1.08,0,0,1-.49,1.28A.75.75,0,0,1,60.82,165.09Z" style="fill:#407BFF"></path><path d="M48.71,120.53a.84.84,0,0,1-.75-.69l-1.56-5.92a1.08,1.08,0,0,1,.51-1.26.77.77,0,0,1,1,.64l1.55,5.92a1.06,1.06,0,0,1-.5,1.26A.74.74,0,0,1,48.71,120.53Z" style="fill:#407BFF"></path><path d="M127,122.26a.9.9,0,0,1-.79-1L126,117.8a1,1,0,0,1,.76-1,.9.9,0,0,1,.83,1l.14,3.51a1,1,0,0,1-.76,1.05Z" style="fill:#407BFF"></path><path d="M128.26,156.44a.9.9,0,0,1-.8-.95q-.42-11.51-.85-23a.93.93,0,0,1,.76-1,.89.89,0,0,1,.83.95q.42,11.51.85,23a.94.94,0,0,1-.76,1.05Z" style="fill:#407BFF"></path><path d="M130.57,211.8a.9.9,0,0,1-.79-1c-.64-15.89-1.26-30.35-1.9-44.21a1,1,0,0,1,.75-1.06.9.9,0,0,1,.84.94c.63,13.87,1.25,28.33,1.9,44.23a1,1,0,0,1-.76,1.05Z" style="fill:#407BFF"></path><path d="M132.47,258.3a.91.91,0,0,1-.79-1c-.47-12.65-.93-24-1.43-34.72a.94.94,0,0,1,.75-1.05.9.9,0,0,1,.84.94c.49,10.71,1,22.08,1.43,34.74a1,1,0,0,1-.76,1.05Z" style="fill:#407BFF"></path><path d="M133.53,297.9a.9.9,0,0,1-.79-1l-.25-10.71-.39-17.11a.92.92,0,0,1,.77-1,.9.9,0,0,1,.82,1l.39,17.11.24,10.71a.92.92,0,0,1-.77,1Z" style="fill:#407BFF"></path><path d="M134,324.42a.91.91,0,0,1-.79-1c-.09-5.17-.16-10.36-.19-15.42a.92.92,0,0,1,.78-1c.43,0,.8.44.8,1,0,5.05.11,10.23.2,15.4a.93.93,0,0,1-.78,1Z" style="fill:#407BFF"></path><path d="M134.67,350.43a.91.91,0,0,1-.79-1c-.16-4.63-.3-9.29-.42-13.86a.93.93,0,0,1,.76-1c.46,0,.81.42.82,1,.12,4.56.26,9.21.42,13.83a1,1,0,0,1-.76,1.05Z" style="fill:#407BFF"></path><path d="M135.43,369.11a.89.89,0,0,1-.79-.94q-.15-3.12-.28-6.23a.94.94,0,0,1,.75-1.06.89.89,0,0,1,.83.95c.09,2.07.18,4.15.28,6.22a1,1,0,0,1-.75,1.06Z" style="fill:#407BFF"></path><path d="M136.49,389.16a.9.9,0,0,1-.79-.93c-.19-3.23-.38-6.45-.55-9.68a1,1,0,0,1,.74-1.07.89.89,0,0,1,.85.93q.25,4.84.54,9.67a1,1,0,0,1-.73,1.07Z" style="fill:#407BFF"></path><path d="M138.27,415.39a.89.89,0,0,1-.79-.91c-.39-5.07-.75-10.18-1.09-15.19a1,1,0,0,1,.73-1.08c.44-.06.82.36.85.91.34,5,.7,10.11,1.09,15.17a1,1,0,0,1-.72,1.09Z" style="fill:#407BFF"></path><path d="M118.87,354.74a.83.83,0,0,1-.76-.74q-1.81-8.72-3.59-17.43a1,1,0,0,1,.57-1.21c.42-.15.85.18,1,.71q1.8,8.71,3.59,17.42a1,1,0,0,1-.56,1.22A.76.76,0,0,1,118.87,354.74Z" style="fill:#407BFF"></path><path d="M113,326.11a.85.85,0,0,1-.77-.75q-1.83-8.88-3.67-17.74a1,1,0,0,1,.57-1.22.79.79,0,0,1,1,.71q1.85,8.86,3.67,17.74a1,1,0,0,1-.57,1.22A.51.51,0,0,1,113,326.11Z" style="fill:#407BFF"></path><path d="M107,297a.84.84,0,0,1-.76-.75q-3.63-17.68-7.23-35.38l-4.44-21.74a1,1,0,0,1,.57-1.22c.43-.14.86.18,1,.72l4.44,21.75q3.6,17.69,7.22,35.37a1,1,0,0,1-.57,1.22A.64.64,0,0,1,107,297Z" style="fill:#407BFF"></path><path d="M93.12,229.11a.84.84,0,0,1-.77-.75Q88.63,210.18,84.92,192a1,1,0,0,1,.57-1.22c.43-.14.86.18,1,.72q3.71,18.2,7.42,36.38a1,1,0,0,1-.57,1.22A.63.63,0,0,1,93.12,229.11Z" style="fill:#407BFF"></path><path d="M83.34,181.28a.86.86,0,0,1-.77-.75q-3.18-15.51-6.38-31a1.05,1.05,0,0,1,.57-1.22c.43-.14.86.19,1,.72q3.21,15.49,6.38,31a1,1,0,0,1-.57,1.21A.48.48,0,0,1,83.34,181.28Z" style="fill:#407BFF"></path><path d="M74.77,139.66a.85.85,0,0,1-.77-.75l-1.47-7.13a1,1,0,0,1,.56-1.22c.43-.14.86.18,1,.72l1.48,7.13a1.05,1.05,0,0,1-.57,1.22Z" style="fill:#407BFF"></path><path d="M53.18,249.32a.77.77,0,0,1-.69-.5l-4-8.82a1.14,1.14,0,0,1,.3-1.36.71.71,0,0,1,1.08.38l4,8.81a1.16,1.16,0,0,1-.3,1.36A.67.67,0,0,1,53.18,249.32Z" style="fill:#407BFF"></path><path d="M72.83,293.09a.79.79,0,0,1-.69-.51L57.26,259.45a1.17,1.17,0,0,1,.3-1.37.71.71,0,0,1,1.08.38L73.52,291.6a1.13,1.13,0,0,1-.3,1.36A.63.63,0,0,1,72.83,293.09Z" style="fill:#407BFF"></path><path d="M98.32,349.84a.79.79,0,0,1-.69-.5L77,303.48a1.14,1.14,0,0,1,.3-1.36.72.72,0,0,1,1.08.38L99,348.35a1.14,1.14,0,0,1-.3,1.36A.63.63,0,0,1,98.32,349.84Z" style="fill:#407BFF"></path><path d="M104.61,363.85a.8.8,0,0,1-.69-.51l-1.64-3.65a1.16,1.16,0,0,1,.3-1.37.72.72,0,0,1,1.08.38l1.64,3.65a1.16,1.16,0,0,1-.3,1.37A.65.65,0,0,1,104.61,363.85Z" style="fill:#407BFF"></path><path d="M116.37,390a.78.78,0,0,1-.69-.51l-6.84-15.22a1.16,1.16,0,0,1,.3-1.36.71.71,0,0,1,1.08.37l6.84,15.22a1.15,1.15,0,0,1-.3,1.37A.65.65,0,0,1,116.37,390Z" style="fill:#407BFF"></path><path d="M129,418a.77.77,0,0,1-.69-.5l-7.93-17.66a1.14,1.14,0,0,1,.3-1.36.72.72,0,0,1,1.08.38l7.93,17.65a1.16,1.16,0,0,1-.3,1.36A.67.67,0,0,1,129,418Z" style="fill:#407BFF"></path><path d="M155.05,246H155a1,1,0,0,1-.74-1.07q.28-4.86.56-9.72a.89.89,0,0,1,.84-.93,1,1,0,0,1,.74,1.07q-.27,4.86-.55,9.72A.9.9,0,0,1,155.05,246Z" style="fill:#407BFF"></path><path d="M153.3,272.17h-.07a1,1,0,0,1-.72-1.09L153.59,256c0-.55.43-1,.86-.91a1,1,0,0,1,.72,1.09c-.35,5-.72,10.08-1.08,15.12A.89.89,0,0,1,153.3,272.17Z" style="fill:#407BFF"></path><path d="M150.47,314.69h-.07a1,1,0,0,1-.72-1.08c.78-11.32,1.38-20.67,1.89-29.42,0-.55.41-1,.85-.92a1,1,0,0,1,.73,1.07c-.5,8.75-1.11,18.11-1.89,29.45A.89.89,0,0,1,150.47,314.69Z" style="fill:#407BFF"></path><path d="M147.65,354h-.07a1,1,0,0,1-.72-1.09q.51-7.14,1-14.29.45-6.33.91-12.66a.88.88,0,0,1,.87-.91,1,1,0,0,1,.71,1.09q-.45,6.33-.91,12.66-.53,7.15-1,14.29A.9.9,0,0,1,147.65,354Z" style="fill:#407BFF"></path><path d="M145.85,380.28h-.06a1,1,0,0,1-.73-1.08q.47-7.27,1-14.53c0-.55.41-1,.86-.91a1,1,0,0,1,.72,1.08q-.5,7.26-1,14.52A.89.89,0,0,1,145.85,380.28Z" style="fill:#407BFF"></path><path d="M144.78,398.27h-.06a1,1,0,0,1-.74-1.07l.24-4.15a.88.88,0,0,1,.85-.93,1,1,0,0,1,.73,1.07c-.08,1.38-.16,2.77-.23,4.15A.9.9,0,0,1,144.78,398.27Z" style="fill:#407BFF"></path><path d="M144,412.82h0a1,1,0,0,1-.75-1.06l.16-3.47c0-.55.39-1,.84-.93a.94.94,0,0,1,.75,1.05l-.17,3.46A.9.9,0,0,1,144,412.82Z" style="fill:#407BFF"></path><path d="M71.54,82.22a.61.61,0,0,1-.36-.11c-1.87-1.22-1.52-3.48-1.28-5s.28-2.19-.23-2.67a1.19,1.19,0,0,1-.17-1.4.69.69,0,0,1,1.11-.2c1.37,1.28,1.07,3.23.85,4.65-.27,1.7-.3,2.34.45,2.83a1.13,1.13,0,0,1,.34,1.34A.78.78,0,0,1,71.54,82.22Z" style="fill:#407BFF"></path><path d="M75.81,105.72a.85.85,0,0,1-.78-.78q-1.09-6.12-2.17-12.23a1,1,0,0,1,.6-1.19.8.8,0,0,1,.94.75q1.09,6.12,2.18,12.23a1,1,0,0,1-.6,1.2Z" style="fill:#407BFF"></path><path d="M84.83,158.81a.86.86,0,0,1-.78-.78c-2.62-14.63-4.78-27.56-6.59-39.54a1,1,0,0,1,.63-1.17c.43-.1.84.25.93.79,1.81,12,4,24.88,6.58,39.48a1,1,0,0,1-.6,1.2A.52.52,0,0,1,84.83,158.81Z" style="fill:#407BFF"></path><path d="M93.37,205.16a.85.85,0,0,1-.77-.77q-3-16.29-6-32.57a1,1,0,0,1,.6-1.2c.42-.13.85.2,1,.74l6,32.57a1,1,0,0,1-.59,1.2A.57.57,0,0,1,93.37,205.16Z" style="fill:#407BFF"></path><path d="M98.87,233.72a.85.85,0,0,1-.77-.76q-1.47-7.5-3-15a1,1,0,0,1,.57-1.21.8.8,0,0,1,1,.72q1.5,7.5,3,15a1,1,0,0,1-.58,1.21Z" style="fill:#407BFF"></path><path d="M107.14,276.42a.86.86,0,0,1-.77-.77c-2.17-11.38-4-20.82-5.76-29.7a1,1,0,0,1,.58-1.21.8.8,0,0,1,1,.73c1.76,8.88,3.59,18.33,5.76,29.72a1,1,0,0,1-.58,1.2Z" style="fill:#407BFF"></path><path d="M121.34,349.94a.84.84,0,0,1-.76-.75c-4.18-20.72-8.13-41.48-11.82-61a1,1,0,0,1,.59-1.2c.42-.13.85.2,1,.74C114,307.24,118,328,122.11,348.7a1,1,0,0,1-.57,1.21A.64.64,0,0,1,121.34,349.94Z" style="fill:#407BFF"></path><path d="M127.62,382a.86.86,0,0,1-.77-.77c-1-5.27-2-10.81-3.36-17.44a1,1,0,0,1,.57-1.21.81.81,0,0,1,1,.73c1.31,6.63,2.38,12.18,3.37,17.46a1,1,0,0,1-.59,1.2A.63.63,0,0,1,127.62,382Z" style="fill:#407BFF"></path><path d="M133.21,415.06a.87.87,0,0,1-.78-.82c-1-6.64-2.08-13.5-3.38-20.95a1,1,0,0,1,.6-1.19c.43-.12.85.22.95.76,1.3,7.48,2.41,14.35,3.39,21a1,1,0,0,1-.64,1.16Z" style="fill:#407BFF"></path><g style="opacity:0.7000000000000001"><path d="M126,316a.88.88,0,0,1-.79-.84l-8.4-64.87a1,1,0,0,1,.65-1.15c.44-.09.84.28.91.82l8.41,64.88a1,1,0,0,1-.66,1.15Z" style="fill:#fff"></path><path d="M116,238.94a.87.87,0,0,1-.79-.83l-3.92-29.4a1,1,0,0,1,.65-1.15c.44-.09.84.28.91.82l3.93,29.4a1,1,0,0,1-.65,1.15Z" style="fill:#fff"></path><path d="M110.39,196.63a.88.88,0,0,1-.78-.85L107,174.13a1,1,0,0,1,.66-1.13c.43-.09.84.29.9.84l2.59,21.65a1,1,0,0,1-.67,1.13Z" style="fill:#fff"></path><path d="M106.3,162.76a.88.88,0,0,1-.79-.85l-.77-6.16a1,1,0,0,1,.66-1.14c.43-.09.84.29.91.83l.77,6.16a1,1,0,0,1-.66,1.14Z" style="fill:#fff"></path><path d="M103.9,143.6a.88.88,0,0,1-.79-.85L99,109.21a1,1,0,0,1,.66-1.15c.43-.08.84.29.91.84l4.12,33.54a1,1,0,0,1-.66,1.14Z" style="fill:#fff"></path><path d="M98.26,97a.89.89,0,0,1-.79-.86L96.78,90a1,1,0,0,1,.67-1.13c.43-.08.84.3.9.85L99,95.89A1,1,0,0,1,98.37,97Z" style="fill:#fff"></path><path d="M129.06,407.34a.85.85,0,0,1-.76-.68l-12.17-44.93a1.09,1.09,0,0,1,.49-1.27.77.77,0,0,1,1,.63L129.81,406a1.07,1.07,0,0,1-.5,1.27A.57.57,0,0,1,129.06,407.34Z" style="fill:#fff"></path><path d="M113.44,350.31a.81.81,0,0,1-.73-.61l-2.89-8.46a1.13,1.13,0,0,1,.42-1.32.75.75,0,0,1,1,.53l2.89,8.46a1.11,1.11,0,0,1-.42,1.31A.61.61,0,0,1,113.44,350.31Z" style="fill:#fff"></path><path d="M106.86,329.82a.81.81,0,0,1-.74-.66l-17.42-62a1.1,1.1,0,0,1,.48-1.28.77.77,0,0,1,1,.61l17.41,62a1.09,1.09,0,0,1-.48,1.28A.86.86,0,0,1,106.86,329.82Z" style="fill:#fff"></path><path d="M86.16,256.21a.81.81,0,0,1-.74-.66l-8-28.05a1.09,1.09,0,0,1,.48-1.28.78.78,0,0,1,1,.61l8,28a1.09,1.09,0,0,1-.48,1.28A.65.65,0,0,1,86.16,256.21Z" style="fill:#fff"></path><path d="M73.94,215.15s-3.71-13.82-5.59-20.72a1.06,1.06,0,0,1,.49-1.27.77.77,0,0,1,1,.62c1.88,6.9,5.59,20.73,5.59,20.73Z" style="fill:#fff"></path><path d="M65.88,183.41a.84.84,0,0,1-.75-.67l-1.62-5.89a1.06,1.06,0,0,1,.49-1.27c.41-.19.86.09,1,.61l1.62,5.89a1.06,1.06,0,0,1-.49,1.27A.58.58,0,0,1,65.88,183.41Z" style="fill:#fff"></path><path d="M60.82,165.09a.84.84,0,0,1-.75-.67c-2.92-10.56-8.72-31.88-8.78-32.09a1.08,1.08,0,0,1,.49-1.27.77.77,0,0,1,1,.62c.06.21,5.86,21.52,8.78,32.08a1.08,1.08,0,0,1-.49,1.28A.75.75,0,0,1,60.82,165.09Z" style="fill:#fff"></path><path d="M48.71,120.53a.84.84,0,0,1-.75-.69l-1.56-5.92a1.08,1.08,0,0,1,.51-1.26.77.77,0,0,1,1,.64l1.55,5.92a1.06,1.06,0,0,1-.5,1.26A.74.74,0,0,1,48.71,120.53Z" style="fill:#fff"></path><path d="M127,122.26a.9.9,0,0,1-.79-1L126,117.8a1,1,0,0,1,.76-1,.9.9,0,0,1,.83,1l.14,3.51a1,1,0,0,1-.76,1.05Z" style="fill:#fff"></path><path d="M128.26,156.44a.9.9,0,0,1-.8-.95q-.42-11.51-.85-23a.93.93,0,0,1,.76-1,.89.89,0,0,1,.83.95q.42,11.51.85,23a.94.94,0,0,1-.76,1.05Z" style="fill:#fff"></path><path d="M130.57,211.8a.9.9,0,0,1-.79-1c-.64-15.89-1.26-30.35-1.9-44.21a1,1,0,0,1,.75-1.06.9.9,0,0,1,.84.94c.63,13.87,1.25,28.33,1.9,44.23a1,1,0,0,1-.76,1.05Z" style="fill:#fff"></path><path d="M132.47,258.3a.91.91,0,0,1-.79-1c-.47-12.65-.93-24-1.43-34.72a.94.94,0,0,1,.75-1.05.9.9,0,0,1,.84.94c.49,10.71,1,22.08,1.43,34.74a1,1,0,0,1-.76,1.05Z" style="fill:#fff"></path><path d="M133.53,297.9a.9.9,0,0,1-.79-1l-.25-10.71-.39-17.11a.92.92,0,0,1,.77-1,.9.9,0,0,1,.82,1l.39,17.11.24,10.71a.92.92,0,0,1-.77,1Z" style="fill:#fff"></path><path d="M134,324.42a.91.91,0,0,1-.79-1c-.09-5.17-.16-10.36-.19-15.42a.92.92,0,0,1,.78-1c.43,0,.8.44.8,1,0,5.05.11,10.23.2,15.4a.93.93,0,0,1-.78,1Z" style="fill:#fff"></path><path d="M134.67,350.43a.91.91,0,0,1-.79-1c-.16-4.63-.3-9.29-.42-13.86a.93.93,0,0,1,.76-1c.46,0,.81.42.82,1,.12,4.56.26,9.21.42,13.83a1,1,0,0,1-.76,1.05Z" style="fill:#fff"></path><path d="M135.43,369.11a.89.89,0,0,1-.79-.94q-.15-3.12-.28-6.23a.94.94,0,0,1,.75-1.06.89.89,0,0,1,.83.95c.09,2.07.18,4.15.28,6.22a1,1,0,0,1-.75,1.06Z" style="fill:#fff"></path><path d="M136.49,389.16a.9.9,0,0,1-.79-.93c-.19-3.23-.38-6.45-.55-9.68a1,1,0,0,1,.74-1.07.89.89,0,0,1,.85.93q.25,4.84.54,9.67a1,1,0,0,1-.73,1.07Z" style="fill:#fff"></path><path d="M138.27,415.39a.89.89,0,0,1-.79-.91c-.39-5.07-.75-10.18-1.09-15.19a1,1,0,0,1,.73-1.08c.44-.06.82.36.85.91.34,5,.7,10.11,1.09,15.17a1,1,0,0,1-.72,1.09Z" style="fill:#fff"></path><path d="M118.87,354.74a.83.83,0,0,1-.76-.74q-1.81-8.72-3.59-17.43a1,1,0,0,1,.57-1.21c.42-.15.85.18,1,.71q1.8,8.71,3.59,17.42a1,1,0,0,1-.56,1.22A.76.76,0,0,1,118.87,354.74Z" style="fill:#fff"></path><path d="M113,326.11a.85.85,0,0,1-.77-.75q-1.83-8.88-3.67-17.74a1,1,0,0,1,.57-1.22.79.79,0,0,1,1,.71q1.85,8.86,3.67,17.74a1,1,0,0,1-.57,1.22A.51.51,0,0,1,113,326.11Z" style="fill:#fff"></path><path d="M107,297a.84.84,0,0,1-.76-.75q-3.63-17.68-7.23-35.38l-4.44-21.74a1,1,0,0,1,.57-1.22c.43-.14.86.18,1,.72l4.44,21.75q3.6,17.69,7.22,35.37a1,1,0,0,1-.57,1.22A.64.64,0,0,1,107,297Z" style="fill:#fff"></path><path d="M93.12,229.11a.84.84,0,0,1-.77-.75Q88.63,210.18,84.92,192a1,1,0,0,1,.57-1.22c.43-.14.86.18,1,.72q3.71,18.2,7.42,36.38a1,1,0,0,1-.57,1.22A.63.63,0,0,1,93.12,229.11Z" style="fill:#fff"></path><path d="M83.34,181.28a.86.86,0,0,1-.77-.75q-3.18-15.51-6.38-31a1.05,1.05,0,0,1,.57-1.22c.43-.14.86.19,1,.72q3.21,15.49,6.38,31a1,1,0,0,1-.57,1.21A.48.48,0,0,1,83.34,181.28Z" style="fill:#fff"></path><path d="M74.77,139.66a.85.85,0,0,1-.77-.75l-1.47-7.13a1,1,0,0,1,.56-1.22c.43-.14.86.18,1,.72l1.48,7.13a1.05,1.05,0,0,1-.57,1.22Z" style="fill:#fff"></path><path d="M53.18,249.32a.77.77,0,0,1-.69-.5l-4-8.82a1.14,1.14,0,0,1,.3-1.36.71.71,0,0,1,1.08.38l4,8.81a1.16,1.16,0,0,1-.3,1.36A.67.67,0,0,1,53.18,249.32Z" style="fill:#fff"></path><path d="M72.83,293.09a.79.79,0,0,1-.69-.51L57.26,259.45a1.17,1.17,0,0,1,.3-1.37.71.71,0,0,1,1.08.38L73.52,291.6a1.13,1.13,0,0,1-.3,1.36A.63.63,0,0,1,72.83,293.09Z" style="fill:#fff"></path><path d="M98.32,349.84a.79.79,0,0,1-.69-.5L77,303.48a1.14,1.14,0,0,1,.3-1.36.72.72,0,0,1,1.08.38L99,348.35a1.14,1.14,0,0,1-.3,1.36A.63.63,0,0,1,98.32,349.84Z" style="fill:#fff"></path><path d="M104.61,363.85a.8.8,0,0,1-.69-.51l-1.64-3.65a1.16,1.16,0,0,1,.3-1.37.72.72,0,0,1,1.08.38l1.64,3.65a1.16,1.16,0,0,1-.3,1.37A.65.65,0,0,1,104.61,363.85Z" style="fill:#fff"></path><path d="M116.37,390a.78.78,0,0,1-.69-.51l-6.84-15.22a1.16,1.16,0,0,1,.3-1.36.71.71,0,0,1,1.08.37l6.84,15.22a1.15,1.15,0,0,1-.3,1.37A.65.65,0,0,1,116.37,390Z" style="fill:#fff"></path><path d="M129,418a.77.77,0,0,1-.69-.5l-7.93-17.66a1.14,1.14,0,0,1,.3-1.36.72.72,0,0,1,1.08.38l7.93,17.65a1.16,1.16,0,0,1-.3,1.36A.67.67,0,0,1,129,418Z" style="fill:#fff"></path><path d="M155.05,246H155a1,1,0,0,1-.74-1.07q.28-4.86.56-9.72a.89.89,0,0,1,.84-.93,1,1,0,0,1,.74,1.07q-.27,4.86-.55,9.72A.9.9,0,0,1,155.05,246Z" style="fill:#fff"></path><path d="M153.3,272.17h-.07a1,1,0,0,1-.72-1.09L153.59,256c0-.55.43-1,.86-.91a1,1,0,0,1,.72,1.09c-.35,5-.72,10.08-1.08,15.12A.89.89,0,0,1,153.3,272.17Z" style="fill:#fff"></path><path d="M150.47,314.69h-.07a1,1,0,0,1-.72-1.08c.78-11.32,1.38-20.67,1.89-29.42,0-.55.41-1,.85-.92a1,1,0,0,1,.73,1.07c-.5,8.75-1.11,18.11-1.89,29.45A.89.89,0,0,1,150.47,314.69Z" style="fill:#fff"></path><path d="M147.65,354h-.07a1,1,0,0,1-.72-1.09q.51-7.14,1-14.29.45-6.33.91-12.66a.88.88,0,0,1,.87-.91,1,1,0,0,1,.71,1.09q-.45,6.33-.91,12.66-.53,7.15-1,14.29A.9.9,0,0,1,147.65,354Z" style="fill:#fff"></path><path d="M145.85,380.28h-.06a1,1,0,0,1-.73-1.08q.47-7.27,1-14.53c0-.55.41-1,.86-.91a1,1,0,0,1,.72,1.08q-.5,7.26-1,14.52A.89.89,0,0,1,145.85,380.28Z" style="fill:#fff"></path><path d="M144.78,398.27h-.06a1,1,0,0,1-.74-1.07l.24-4.15a.88.88,0,0,1,.85-.93,1,1,0,0,1,.73,1.07c-.08,1.38-.16,2.77-.23,4.15A.9.9,0,0,1,144.78,398.27Z" style="fill:#fff"></path><path d="M144,412.82h0a1,1,0,0,1-.75-1.06l.16-3.47c0-.55.39-1,.84-.93a.94.94,0,0,1,.75,1.05l-.17,3.46A.9.9,0,0,1,144,412.82Z" style="fill:#fff"></path><path d="M71.54,82.22a.61.61,0,0,1-.36-.11c-1.87-1.22-1.52-3.48-1.28-5s.28-2.19-.23-2.67a1.19,1.19,0,0,1-.17-1.4.69.69,0,0,1,1.11-.2c1.37,1.28,1.07,3.23.85,4.65-.27,1.7-.3,2.34.45,2.83a1.13,1.13,0,0,1,.34,1.34A.78.78,0,0,1,71.54,82.22Z" style="fill:#fff"></path><path d="M75.81,105.72a.85.85,0,0,1-.78-.78q-1.09-6.12-2.17-12.23a1,1,0,0,1,.6-1.19.8.8,0,0,1,.94.75q1.09,6.12,2.18,12.23a1,1,0,0,1-.6,1.2Z" style="fill:#fff"></path><path d="M84.83,158.81a.86.86,0,0,1-.78-.78c-2.62-14.63-4.78-27.56-6.59-39.54a1,1,0,0,1,.63-1.17c.43-.1.84.25.93.79,1.81,12,4,24.88,6.58,39.48a1,1,0,0,1-.6,1.2A.52.52,0,0,1,84.83,158.81Z" style="fill:#fff"></path><path d="M93.37,205.16a.85.85,0,0,1-.77-.77q-3-16.29-6-32.57a1,1,0,0,1,.6-1.2c.42-.13.85.2,1,.74l6,32.57a1,1,0,0,1-.59,1.2A.57.57,0,0,1,93.37,205.16Z" style="fill:#fff"></path><path d="M98.87,233.72a.85.85,0,0,1-.77-.76q-1.47-7.5-3-15a1,1,0,0,1,.57-1.21.8.8,0,0,1,1,.72q1.5,7.5,3,15a1,1,0,0,1-.58,1.21Z" style="fill:#fff"></path><path d="M107.14,276.42a.86.86,0,0,1-.77-.77c-2.17-11.38-4-20.82-5.76-29.7a1,1,0,0,1,.58-1.21.8.8,0,0,1,1,.73c1.76,8.88,3.59,18.33,5.76,29.72a1,1,0,0,1-.58,1.2Z" style="fill:#fff"></path><path d="M121.34,349.94a.84.84,0,0,1-.76-.75c-4.18-20.72-8.13-41.48-11.82-61a1,1,0,0,1,.59-1.2c.42-.13.85.2,1,.74C114,307.24,118,328,122.11,348.7a1,1,0,0,1-.57,1.21A.64.64,0,0,1,121.34,349.94Z" style="fill:#fff"></path><path d="M127.62,382a.86.86,0,0,1-.77-.77c-1-5.27-2-10.81-3.36-17.44a1,1,0,0,1,.57-1.21.81.81,0,0,1,1,.73c1.31,6.63,2.38,12.18,3.37,17.46a1,1,0,0,1-.59,1.2A.63.63,0,0,1,127.62,382Z" style="fill:#fff"></path><path d="M133.21,415.06a.87.87,0,0,1-.78-.82c-1-6.64-2.08-13.5-3.38-20.95a1,1,0,0,1,.6-1.19c.43-.12.85.22.95.76,1.3,7.48,2.41,14.35,3.39,21a1,1,0,0,1-.64,1.16Z" style="fill:#fff"></path></g><path d="M370.77,319.52a.88.88,0,0,0,.78-.85l8.15-64.91a1,1,0,0,0-.66-1.14c-.44-.09-.84.28-.91.83L370,318.36a1,1,0,0,0,.66,1.14Z" style="fill:#407BFF"></path><path d="M380.47,242.41a.87.87,0,0,0,.77-.84l3.81-29.41a1,1,0,0,0-.65-1.15c-.44-.1-.84.28-.92.82l-3.8,29.41a1,1,0,0,0,.65,1.15Z" style="fill:#407BFF"></path><path d="M385.9,200.08a.89.89,0,0,0,.78-.86l2.5-21.66a1,1,0,0,0-.68-1.13c-.43-.09-.83.29-.89.84l-2.5,21.66a1,1,0,0,0,.67,1.14Z" style="fill:#407BFF"></path><path d="M389.86,166.18a.88.88,0,0,0,.78-.85l.74-6.16a1,1,0,0,0-.66-1.14.84.84,0,0,0-.9.84l-.75,6.16a1,1,0,0,0,.66,1.14Z" style="fill:#407BFF"></path><path d="M392.18,147a.87.87,0,0,0,.78-.85l4-33.56a1,1,0,0,0-.67-1.14c-.43-.08-.83.3-.9.84l-4,33.56a1,1,0,0,0,.67,1.14Z" style="fill:#407BFF"></path><path d="M397.64,100.42a.88.88,0,0,0,.78-.86l.67-6.17a1,1,0,0,0-.68-1.13c-.43-.08-.84.3-.9.85l-.66,6.18a1,1,0,0,0,.67,1.13Z" style="fill:#407BFF"></path><path d="M368.08,410.85a.83.83,0,0,0,.75-.68l12-45a1.08,1.08,0,0,0-.49-1.27.77.77,0,0,0-1,.63l-12,45a1.09,1.09,0,0,0,.5,1.27A.8.8,0,0,0,368.08,410.85Z" style="fill:#407BFF"></path><path d="M383.47,353.76a.79.79,0,0,0,.72-.61l2.85-8.47a1.1,1.1,0,0,0-.42-1.32.75.75,0,0,0-1,.53l-2.85,8.48a1.12,1.12,0,0,0,.42,1.31A.76.76,0,0,0,383.47,353.76Z" style="fill:#407BFF"></path><path d="M390,333.25a.82.82,0,0,0,.74-.67l17.17-62a1.07,1.07,0,0,0-.49-1.28.77.77,0,0,0-1,.61l-17.16,62a1.07,1.07,0,0,0,.48,1.27A.66.66,0,0,0,390,333.25Z" style="fill:#407BFF"></path><path d="M410.37,259.56a.83.83,0,0,0,.74-.66L419,230.81a1.07,1.07,0,0,0-.48-1.27.75.75,0,0,0-1,.6l-7.9,28.08a1.09,1.09,0,0,0,.49,1.28A.66.66,0,0,0,410.37,259.56Z" style="fill:#407BFF"></path><path d="M422.43,218.45s3.65-13.84,5.51-20.74a1.08,1.08,0,0,0-.5-1.27.77.77,0,0,0-1,.62c-1.86,6.91-5.51,20.75-5.51,20.75Z" style="fill:#407BFF"></path><path d="M430.35,186.67a.83.83,0,0,0,.75-.67l1.6-5.9a1.08,1.08,0,0,0-.49-1.27.77.77,0,0,0-1,.62l-1.6,5.9a1.09,1.09,0,0,0,.49,1.27A.63.63,0,0,0,430.35,186.67Z" style="fill:#407BFF"></path><path d="M435.34,168.34a.83.83,0,0,0,.75-.68c2.88-10.57,8.6-31.91,8.66-32.12a1.08,1.08,0,0,0-.5-1.27.77.77,0,0,0-1,.62c-.05.22-5.78,21.55-8.65,32.12a1.09,1.09,0,0,0,.49,1.27A.65.65,0,0,0,435.34,168.34Z" style="fill:#407BFF"></path><path d="M447.28,123.73A.85.85,0,0,0,448,123l1.53-5.93a1.09,1.09,0,0,0-.51-1.26.77.77,0,0,0-1,.64l-1.53,5.92a1.08,1.08,0,0,0,.51,1.27A.7.7,0,0,0,447.28,123.73Z" style="fill:#407BFF"></path><path d="M369,125.77a.91.91,0,0,0,.79-1l.12-3.51a.94.94,0,0,0-.76-1,.89.89,0,0,0-.82.95l-.13,3.51a1,1,0,0,0,.76,1Z" style="fill:#407BFF"></path><path d="M367.88,160a.91.91,0,0,0,.78-1q.39-11.5.76-23a.93.93,0,0,0-.76-1,.88.88,0,0,0-.82,1q-.37,11.49-.76,23a.93.93,0,0,0,.76,1Z" style="fill:#407BFF"></path><path d="M365.78,215.32a.9.9,0,0,0,.79-.95c.58-15.89,1.14-30.36,1.72-44.22a.94.94,0,0,0-.75-1.05.9.9,0,0,0-.84.94c-.57,13.87-1.14,28.34-1.72,44.23a1,1,0,0,0,.76,1Z" style="fill:#407BFF"></path><path d="M364.07,261.83a.89.89,0,0,0,.78-1c.42-12.66.84-24,1.29-34.73a.93.93,0,0,0-.75-1,.89.89,0,0,0-.83.94c-.45,10.72-.88,22.09-1.29,34.76a.94.94,0,0,0,.76,1Z" style="fill:#407BFF"></path><path d="M363.17,301.44a.91.91,0,0,0,.79-1l.2-10.71q.15-8.56.32-17.12a.92.92,0,0,0-.77-1,.89.89,0,0,0-.81,1c-.12,5.7-.22,11.41-.33,17.11l-.2,10.72a.94.94,0,0,0,.78,1Z" style="fill:#407BFF"></path><path d="M362.82,328a.91.91,0,0,0,.79-1c.07-5.18.11-10.37.13-15.43a.91.91,0,0,0-.79-1c-.43,0-.79.44-.8,1,0,5-.06,10.23-.13,15.4a.93.93,0,0,0,.78,1Z" style="fill:#407BFF"></path><path d="M362.24,354A.9.9,0,0,0,363,353c.14-4.63.26-9.29.36-13.86a.92.92,0,0,0-.77-1c-.46,0-.8.42-.82,1-.1,4.56-.22,9.21-.36,13.83a.93.93,0,0,0,.76,1Z" style="fill:#407BFF"></path><path d="M361.55,372.65a.9.9,0,0,0,.79-.95q.14-3.1.25-6.23a.93.93,0,0,0-.75-1.05.89.89,0,0,0-.83.95c-.08,2.08-.17,4.15-.25,6.22a.94.94,0,0,0,.75,1.06Z" style="fill:#407BFF"></path><path d="M360.57,392.7a.9.9,0,0,0,.79-.93c.18-3.23.35-6.45.51-9.68a1,1,0,0,0-.75-1.07.9.9,0,0,0-.84.94c-.16,3.22-.33,6.45-.5,9.67a1,1,0,0,0,.73,1.07Z" style="fill:#407BFF"></path><path d="M359.77,416.76c.34-4.66.65-9.33.94-13.93a1,1,0,0,0-.73-1.07c-.44-.06-.82.36-.85.91-.29,4.59-.6,9.25-.94,13.89Z" style="fill:#407BFF"></path><path d="M378.05,358.22a.84.84,0,0,0,.76-.75q1.77-8.72,3.52-17.44a1,1,0,0,0-.57-1.21c-.43-.15-.86.18-1,.72Q379,348.26,377.28,357a1,1,0,0,0,.57,1.22A.69.69,0,0,0,378.05,358.22Z" style="fill:#407BFF"></path><path d="M383.83,329.56a.87.87,0,0,0,.77-.76q1.78-8.87,3.59-17.75a1.05,1.05,0,0,0-.57-1.22c-.43-.14-.86.19-1,.72q-1.8,8.88-3.59,17.76a1,1,0,0,0,.57,1.21A.48.48,0,0,0,383.83,329.56Z" style="fill:#407BFF"></path><path d="M389.71,300.44a.84.84,0,0,0,.76-.75q3.55-17.7,7.09-35.4l4.35-21.76a1,1,0,0,0-.58-1.22.8.8,0,0,0-1,.72L396,263.8l-7.08,35.4a1,1,0,0,0,.57,1.21A.35.35,0,0,0,389.71,300.44Z" style="fill:#407BFF"></path><path d="M403.31,232.49a.85.85,0,0,0,.76-.76q3.65-18.21,7.28-36.41a1,1,0,0,0-.57-1.22.81.81,0,0,0-1,.72q-3.63,18.21-7.28,36.42a1.05,1.05,0,0,0,.58,1.22A.64.64,0,0,0,403.31,232.49Z" style="fill:#407BFF"></path><path d="M412.89,184.61a.84.84,0,0,0,.76-.75q3.12-15.53,6.26-31a1,1,0,0,0-.58-1.22c-.42-.14-.85.19-1,.72q-3.14,15.51-6.26,31a1.05,1.05,0,0,0,.58,1.22A.64.64,0,0,0,412.89,184.61Z" style="fill:#407BFF"></path><path d="M421.3,143a.84.84,0,0,0,.76-.75l1.45-7.14a1.06,1.06,0,0,0-.58-1.22.8.8,0,0,0-1,.72l-1.45,7.14a1.05,1.05,0,0,0,.57,1.22Z" style="fill:#407BFF"></path><path d="M443.32,252.54A.8.8,0,0,0,444,252l3.93-8.83a1.17,1.17,0,0,0-.31-1.37.71.71,0,0,0-1.08.39l-3.92,8.83a1.14,1.14,0,0,0,.3,1.36A.75.75,0,0,0,443.32,252.54Z" style="fill:#407BFF"></path><path d="M423.84,296.38a.77.77,0,0,0,.69-.51l14.75-33.19a1.17,1.17,0,0,0-.3-1.37.72.72,0,0,0-1.08.39l-14.75,33.19a1.14,1.14,0,0,0,.3,1.36A.67.67,0,0,0,423.84,296.38Z" style="fill:#407BFF"></path><path d="M398.58,353.24a.78.78,0,0,0,.69-.51l20.41-45.94a1.14,1.14,0,0,0-.31-1.36.72.72,0,0,0-1.08.38l-20.41,45.94a1.16,1.16,0,0,0,.31,1.36A.65.65,0,0,0,398.58,353.24Z" style="fill:#407BFF"></path><path d="M392.35,367.26a.79.79,0,0,0,.69-.5l1.62-3.66a1.15,1.15,0,0,0-.3-1.37.71.71,0,0,0-1.08.38l-1.63,3.66a1.15,1.15,0,0,0,.31,1.37A.64.64,0,0,0,392.35,367.26Z" style="fill:#407BFF"></path><path d="M380.69,393.49a.77.77,0,0,0,.69-.51l6.78-15.25a1.14,1.14,0,0,0-.31-1.36.72.72,0,0,0-1.08.38L380,392a1.16,1.16,0,0,0,.3,1.36A.67.67,0,0,0,380.69,393.49Z" style="fill:#407BFF"></path><path d="M370.25,418l6.53-14.68a1.16,1.16,0,0,0-.31-1.36.72.72,0,0,0-1.08.38l-6.86,15.45Z" style="fill:#407BFF"></path><path d="M341.44,249.59h.06a1,1,0,0,0,.73-1.08q-.3-4.84-.59-9.71a.87.87,0,0,0-.85-.92.94.94,0,0,0-.73,1.07q.29,4.86.59,9.72A.89.89,0,0,0,341.44,249.59Z" style="fill:#407BFF"></path><path d="M343.29,275.79h.07a1,1,0,0,0,.72-1.09c-.38-5-.77-10.08-1.14-15.11-.05-.55-.43-1-.87-.91a1,1,0,0,0-.71,1.09c.37,5,.76,10.08,1.14,15.12A.9.9,0,0,0,343.29,275.79Z" style="fill:#407BFF"></path><path d="M346.3,318.29h.06a1,1,0,0,0,.72-1.09c-.83-11.32-1.47-20.67-2-29.41,0-.55-.41-1-.85-.92a1,1,0,0,0-.73,1.07c.54,8.75,1.18,18.11,2,29.44A.9.9,0,0,0,346.3,318.29Z" style="fill:#407BFF"></path><path d="M349.27,357.59h.07a1,1,0,0,0,.72-1.09q-.54-7.14-1.09-14.29c-.32-4.22-.65-8.44-1-12.66-.05-.55-.43-1-.87-.9a1,1,0,0,0-.71,1.09c.31,4.22.64,8.44,1,12.66q.56,7.14,1.09,14.29A.88.88,0,0,0,349.27,357.59Z" style="fill:#407BFF"></path><path d="M351.17,383.86h.07a1,1,0,0,0,.72-1.08q-.49-7.27-1-14.53c0-.55-.41-1-.86-.9a1,1,0,0,0-.72,1.08q.54,7.26,1,14.51A.89.89,0,0,0,351.17,383.86Z" style="fill:#407BFF"></path><path d="M352.32,401.85h.06a1,1,0,0,0,.73-1.07c-.08-1.39-.16-2.77-.25-4.16a.87.87,0,0,0-.85-.92.94.94,0,0,0-.73,1.07c.08,1.39.17,2.77.25,4.15A.9.9,0,0,0,352.32,401.85Z" style="fill:#407BFF"></path><path d="M352.32,415.45a1.36,1.36,0,0,0,.09.41l1.31.16a1.21,1.21,0,0,0,.18-.69l-.17-3.46a.89.89,0,0,0-.85-.94,1,1,0,0,0-.74,1.06Z" style="fill:#407BFF"></path><path d="M424.29,85.51a.75.75,0,0,0,.37-.11c1.85-1.23,1.49-3.49,1.26-5s-.29-2.19.21-2.67a1.16,1.16,0,0,0,.16-1.4.69.69,0,0,0-1.11-.2c-1.36,1.29-1.05,3.24-.82,4.66.27,1.7.3,2.34-.44,2.82a1.14,1.14,0,0,0-.34,1.35A.79.79,0,0,0,424.29,85.51Z" style="fill:#407BFF"></path><path d="M420.12,109a.86.86,0,0,0,.77-.79L423,96a1,1,0,0,0-.61-1.19c-.43-.12-.85.22-.94.76l-2.13,12.24A1,1,0,0,0,420,109,.51.51,0,0,0,420.12,109Z" style="fill:#407BFF"></path><path d="M411.31,162.15a.84.84,0,0,0,.77-.78c2.57-14.64,4.67-27.58,6.44-39.57a1,1,0,0,0-.63-1.17c-.44-.1-.85.26-.93.8-1.76,12-3.86,24.89-6.43,39.51a1,1,0,0,0,.61,1.19A.52.52,0,0,0,411.31,162.15Z" style="fill:#407BFF"></path><path d="M403,208.53a.86.86,0,0,0,.77-.77q3-16.31,5.9-32.6A1,1,0,0,0,409,174c-.43-.13-.85.21-.95.75q-2.94,16.29-5.9,32.59a1,1,0,0,0,.6,1.2Z" style="fill:#407BFF"></path><path d="M397.57,237.12a.87.87,0,0,0,.77-.77q1.44-7.5,2.92-15a1,1,0,0,0-.58-1.21c-.42-.14-.86.19-1,.73q-1.49,7.5-2.92,15a1,1,0,0,0,.58,1.21Z" style="fill:#407BFF"></path><path d="M389.47,279.85a.86.86,0,0,0,.77-.77c2.12-11.39,3.92-20.84,5.64-29.73a1,1,0,0,0-.59-1.21c-.42-.13-.85.2-1,.73-1.72,8.9-3.51,18.35-5.64,29.75a1,1,0,0,0,.59,1.2Z" style="fill:#407BFF"></path><path d="M375.56,353.43a.84.84,0,0,0,.76-.76c4.09-20.73,8-41.51,11.58-61a1.05,1.05,0,0,0-.59-1.21.82.82,0,0,0-1,.75c-3.61,19.5-7.48,40.27-11.57,61a1.06,1.06,0,0,0,.58,1.21A.69.69,0,0,0,375.56,353.43Z" style="fill:#407BFF"></path><path d="M369.41,385.46a.86.86,0,0,0,.77-.77c1-5.28,2-10.82,3.29-17.46a1,1,0,0,0-.58-1.21.81.81,0,0,0-1,.73c-1.29,6.65-2.34,12.2-3.3,17.48a1,1,0,0,0,.6,1.2Z" style="fill:#407BFF"></path><path d="M364.79,417.37c.93-6.53,2-13.26,3.24-20.57a1,1,0,0,0-.61-1.19.82.82,0,0,0-.94.77c-1.26,7.39-2.34,14.2-3.28,20.79Z" style="fill:#407BFF"></path><g style="opacity:0.7000000000000001"><path d="M370.77,319.52a.88.88,0,0,0,.78-.85l8.15-64.91a1,1,0,0,0-.66-1.14c-.44-.09-.84.28-.91.83L370,318.36a1,1,0,0,0,.66,1.14Z" style="fill:#fff"></path><path d="M380.47,242.41a.87.87,0,0,0,.77-.84l3.81-29.41a1,1,0,0,0-.65-1.15c-.44-.1-.84.28-.92.82l-3.8,29.41a1,1,0,0,0,.65,1.15Z" style="fill:#fff"></path><path d="M385.9,200.08a.89.89,0,0,0,.78-.86l2.5-21.66a1,1,0,0,0-.68-1.13c-.43-.09-.83.29-.89.84l-2.5,21.66a1,1,0,0,0,.67,1.14Z" style="fill:#fff"></path><path d="M389.86,166.18a.88.88,0,0,0,.78-.85l.74-6.16a1,1,0,0,0-.66-1.14.84.84,0,0,0-.9.84l-.75,6.16a1,1,0,0,0,.66,1.14Z" style="fill:#fff"></path><path d="M392.18,147a.87.87,0,0,0,.78-.85l4-33.56a1,1,0,0,0-.67-1.14c-.43-.08-.83.3-.9.84l-4,33.56a1,1,0,0,0,.67,1.14Z" style="fill:#fff"></path><path d="M397.64,100.42a.88.88,0,0,0,.78-.86l.67-6.17a1,1,0,0,0-.68-1.13c-.43-.08-.84.3-.9.85l-.66,6.18a1,1,0,0,0,.67,1.13Z" style="fill:#fff"></path><path d="M368.08,410.85a.83.83,0,0,0,.75-.68l12-45a1.08,1.08,0,0,0-.49-1.27.77.77,0,0,0-1,.63l-12,45a1.09,1.09,0,0,0,.5,1.27A.8.8,0,0,0,368.08,410.85Z" style="fill:#fff"></path><path d="M383.47,353.76a.79.79,0,0,0,.72-.61l2.85-8.47a1.1,1.1,0,0,0-.42-1.32.75.75,0,0,0-1,.53l-2.85,8.48a1.12,1.12,0,0,0,.42,1.31A.76.76,0,0,0,383.47,353.76Z" style="fill:#fff"></path><path d="M390,333.25a.82.82,0,0,0,.74-.67l17.17-62a1.07,1.07,0,0,0-.49-1.28.77.77,0,0,0-1,.61l-17.16,62a1.07,1.07,0,0,0,.48,1.27A.66.66,0,0,0,390,333.25Z" style="fill:#fff"></path><path d="M410.37,259.56a.83.83,0,0,0,.74-.66L419,230.81a1.07,1.07,0,0,0-.48-1.27.75.75,0,0,0-1,.6l-7.9,28.08a1.09,1.09,0,0,0,.49,1.28A.66.66,0,0,0,410.37,259.56Z" style="fill:#fff"></path><path d="M422.43,218.45s3.65-13.84,5.51-20.74a1.08,1.08,0,0,0-.5-1.27.77.77,0,0,0-1,.62c-1.86,6.91-5.51,20.75-5.51,20.75Z" style="fill:#fff"></path><path d="M430.35,186.67a.83.83,0,0,0,.75-.67l1.6-5.9a1.08,1.08,0,0,0-.49-1.27.77.77,0,0,0-1,.62l-1.6,5.9a1.09,1.09,0,0,0,.49,1.27A.63.63,0,0,0,430.35,186.67Z" style="fill:#fff"></path><path d="M435.34,168.34a.83.83,0,0,0,.75-.68c2.88-10.57,8.6-31.91,8.66-32.12a1.08,1.08,0,0,0-.5-1.27.77.77,0,0,0-1,.62c-.05.22-5.78,21.55-8.65,32.12a1.09,1.09,0,0,0,.49,1.27A.65.65,0,0,0,435.34,168.34Z" style="fill:#fff"></path><path d="M447.28,123.73A.85.85,0,0,0,448,123l1.53-5.93a1.09,1.09,0,0,0-.51-1.26.77.77,0,0,0-1,.64l-1.53,5.92a1.08,1.08,0,0,0,.51,1.27A.7.7,0,0,0,447.28,123.73Z" style="fill:#fff"></path><path d="M369,125.77a.91.91,0,0,0,.79-1l.12-3.51a.94.94,0,0,0-.76-1,.89.89,0,0,0-.82.95l-.13,3.51a1,1,0,0,0,.76,1Z" style="fill:#fff"></path><path d="M367.88,160a.91.91,0,0,0,.78-1q.39-11.5.76-23a.93.93,0,0,0-.76-1,.88.88,0,0,0-.82,1q-.37,11.49-.76,23a.93.93,0,0,0,.76,1Z" style="fill:#fff"></path><path d="M365.78,215.32a.9.9,0,0,0,.79-.95c.58-15.89,1.14-30.36,1.72-44.22a.94.94,0,0,0-.75-1.05.9.9,0,0,0-.84.94c-.57,13.87-1.14,28.34-1.72,44.23a1,1,0,0,0,.76,1Z" style="fill:#fff"></path><path d="M364.07,261.83a.89.89,0,0,0,.78-1c.42-12.66.84-24,1.29-34.73a.93.93,0,0,0-.75-1,.89.89,0,0,0-.83.94c-.45,10.72-.88,22.09-1.29,34.76a.94.94,0,0,0,.76,1Z" style="fill:#fff"></path><path d="M363.17,301.44a.91.91,0,0,0,.79-1l.2-10.71q.15-8.56.32-17.12a.92.92,0,0,0-.77-1,.89.89,0,0,0-.81,1c-.12,5.7-.22,11.41-.33,17.11l-.2,10.72a.94.94,0,0,0,.78,1Z" style="fill:#fff"></path><path d="M362.82,328a.91.91,0,0,0,.79-1c.07-5.18.11-10.37.13-15.43a.91.91,0,0,0-.79-1c-.43,0-.79.44-.8,1,0,5-.06,10.23-.13,15.4a.93.93,0,0,0,.78,1Z" style="fill:#fff"></path><path d="M362.24,354A.9.9,0,0,0,363,353c.14-4.63.26-9.29.36-13.86a.92.92,0,0,0-.77-1c-.46,0-.8.42-.82,1-.1,4.56-.22,9.21-.36,13.83a.93.93,0,0,0,.76,1Z" style="fill:#fff"></path><path d="M361.55,372.65a.9.9,0,0,0,.79-.95q.14-3.1.25-6.23a.93.93,0,0,0-.75-1.05.89.89,0,0,0-.83.95c-.08,2.08-.17,4.15-.25,6.22a.94.94,0,0,0,.75,1.06Z" style="fill:#fff"></path><path d="M360.57,392.7a.9.9,0,0,0,.79-.93c.18-3.23.35-6.45.51-9.68a1,1,0,0,0-.75-1.07.9.9,0,0,0-.84.94c-.16,3.22-.33,6.45-.5,9.67a1,1,0,0,0,.73,1.07Z" style="fill:#fff"></path><path d="M359.77,416.76c.34-4.66.65-9.33.94-13.93a1,1,0,0,0-.73-1.07c-.44-.06-.82.36-.85.91-.29,4.59-.6,9.25-.94,13.89Z" style="fill:#fff"></path><path d="M378.05,358.22a.84.84,0,0,0,.76-.75q1.77-8.72,3.52-17.44a1,1,0,0,0-.57-1.21c-.43-.15-.86.18-1,.72Q379,348.26,377.28,357a1,1,0,0,0,.57,1.22A.69.69,0,0,0,378.05,358.22Z" style="fill:#fff"></path><path d="M383.83,329.56a.87.87,0,0,0,.77-.76q1.78-8.87,3.59-17.75a1.05,1.05,0,0,0-.57-1.22c-.43-.14-.86.19-1,.72q-1.8,8.88-3.59,17.76a1,1,0,0,0,.57,1.21A.48.48,0,0,0,383.83,329.56Z" style="fill:#fff"></path><path d="M389.71,300.44a.84.84,0,0,0,.76-.75q3.55-17.7,7.09-35.4l4.35-21.76a1,1,0,0,0-.58-1.22.8.8,0,0,0-1,.72L396,263.8l-7.08,35.4a1,1,0,0,0,.57,1.21A.35.35,0,0,0,389.71,300.44Z" style="fill:#fff"></path><path d="M403.31,232.49a.85.85,0,0,0,.76-.76q3.65-18.21,7.28-36.41a1,1,0,0,0-.57-1.22.81.81,0,0,0-1,.72q-3.63,18.21-7.28,36.42a1.05,1.05,0,0,0,.58,1.22A.64.64,0,0,0,403.31,232.49Z" style="fill:#fff"></path><path d="M412.89,184.61a.84.84,0,0,0,.76-.75q3.12-15.53,6.26-31a1,1,0,0,0-.58-1.22c-.42-.14-.85.19-1,.72q-3.14,15.51-6.26,31a1.05,1.05,0,0,0,.58,1.22A.64.64,0,0,0,412.89,184.61Z" style="fill:#fff"></path><path d="M421.3,143a.84.84,0,0,0,.76-.75l1.45-7.14a1.06,1.06,0,0,0-.58-1.22.8.8,0,0,0-1,.72l-1.45,7.14a1.05,1.05,0,0,0,.57,1.22Z" style="fill:#fff"></path><path d="M443.32,252.54A.8.8,0,0,0,444,252l3.93-8.83a1.17,1.17,0,0,0-.31-1.37.71.71,0,0,0-1.08.39l-3.92,8.83a1.14,1.14,0,0,0,.3,1.36A.75.75,0,0,0,443.32,252.54Z" style="fill:#fff"></path><path d="M423.84,296.38a.77.77,0,0,0,.69-.51l14.75-33.19a1.17,1.17,0,0,0-.3-1.37.72.72,0,0,0-1.08.39l-14.75,33.19a1.14,1.14,0,0,0,.3,1.36A.67.67,0,0,0,423.84,296.38Z" style="fill:#fff"></path><path d="M398.58,353.24a.78.78,0,0,0,.69-.51l20.41-45.94a1.14,1.14,0,0,0-.31-1.36.72.72,0,0,0-1.08.38l-20.41,45.94a1.16,1.16,0,0,0,.31,1.36A.65.65,0,0,0,398.58,353.24Z" style="fill:#fff"></path><path d="M392.35,367.26a.79.79,0,0,0,.69-.5l1.62-3.66a1.15,1.15,0,0,0-.3-1.37.71.71,0,0,0-1.08.38l-1.63,3.66a1.15,1.15,0,0,0,.31,1.37A.64.64,0,0,0,392.35,367.26Z" style="fill:#fff"></path><path d="M380.69,393.49a.77.77,0,0,0,.69-.51l6.78-15.25a1.14,1.14,0,0,0-.31-1.36.72.72,0,0,0-1.08.38L380,392a1.16,1.16,0,0,0,.3,1.36A.67.67,0,0,0,380.69,393.49Z" style="fill:#fff"></path><path d="M370.25,418l6.53-14.68a1.16,1.16,0,0,0-.31-1.36.72.72,0,0,0-1.08.38l-6.86,15.45Z" style="fill:#fff"></path><path d="M341.44,249.59h.06a1,1,0,0,0,.73-1.08q-.3-4.84-.59-9.71a.87.87,0,0,0-.85-.92.94.94,0,0,0-.73,1.07q.29,4.86.59,9.72A.89.89,0,0,0,341.44,249.59Z" style="fill:#fff"></path><path d="M343.29,275.79h.07a1,1,0,0,0,.72-1.09c-.38-5-.77-10.08-1.14-15.11-.05-.55-.43-1-.87-.91a1,1,0,0,0-.71,1.09c.37,5,.76,10.08,1.14,15.12A.9.9,0,0,0,343.29,275.79Z" style="fill:#fff"></path><path d="M346.3,318.29h.06a1,1,0,0,0,.72-1.09c-.83-11.32-1.47-20.67-2-29.41,0-.55-.41-1-.85-.92a1,1,0,0,0-.73,1.07c.54,8.75,1.18,18.11,2,29.44A.9.9,0,0,0,346.3,318.29Z" style="fill:#fff"></path><path d="M349.27,357.59h.07a1,1,0,0,0,.72-1.09q-.54-7.14-1.09-14.29c-.32-4.22-.65-8.44-1-12.66-.05-.55-.43-1-.87-.9a1,1,0,0,0-.71,1.09c.31,4.22.64,8.44,1,12.66q.56,7.14,1.09,14.29A.88.88,0,0,0,349.27,357.59Z" style="fill:#fff"></path><path d="M351.17,383.86h.07a1,1,0,0,0,.72-1.08q-.49-7.27-1-14.53c0-.55-.41-1-.86-.9a1,1,0,0,0-.72,1.08q.54,7.26,1,14.51A.89.89,0,0,0,351.17,383.86Z" style="fill:#fff"></path><path d="M352.32,401.85h.06a1,1,0,0,0,.73-1.07c-.08-1.39-.16-2.77-.25-4.16a.87.87,0,0,0-.85-.92.94.94,0,0,0-.73,1.07c.08,1.39.17,2.77.25,4.15A.9.9,0,0,0,352.32,401.85Z" style="fill:#fff"></path><path d="M352.32,415.45a1.36,1.36,0,0,0,.09.41l1.31.16a1.21,1.21,0,0,0,.18-.69l-.17-3.46a.89.89,0,0,0-.85-.94,1,1,0,0,0-.74,1.06Z" style="fill:#fff"></path><path d="M424.29,85.51a.75.75,0,0,0,.37-.11c1.85-1.23,1.49-3.49,1.26-5s-.29-2.19.21-2.67a1.16,1.16,0,0,0,.16-1.4.69.69,0,0,0-1.11-.2c-1.36,1.29-1.05,3.24-.82,4.66.27,1.7.3,2.34-.44,2.82a1.14,1.14,0,0,0-.34,1.35A.79.79,0,0,0,424.29,85.51Z" style="fill:#fff"></path><path d="M420.12,109a.86.86,0,0,0,.77-.79L423,96a1,1,0,0,0-.61-1.19c-.43-.12-.85.22-.94.76l-2.13,12.24A1,1,0,0,0,420,109,.51.51,0,0,0,420.12,109Z" style="fill:#fff"></path><path d="M411.31,162.15a.84.84,0,0,0,.77-.78c2.57-14.64,4.67-27.58,6.44-39.57a1,1,0,0,0-.63-1.17c-.44-.1-.85.26-.93.8-1.76,12-3.86,24.89-6.43,39.51a1,1,0,0,0,.61,1.19A.52.52,0,0,0,411.31,162.15Z" style="fill:#fff"></path><path d="M403,208.53a.86.86,0,0,0,.77-.77q3-16.31,5.9-32.6A1,1,0,0,0,409,174c-.43-.13-.85.21-.95.75q-2.94,16.29-5.9,32.59a1,1,0,0,0,.6,1.2Z" style="fill:#fff"></path><path d="M397.57,237.12a.87.87,0,0,0,.77-.77q1.44-7.5,2.92-15a1,1,0,0,0-.58-1.21c-.42-.14-.86.19-1,.73q-1.49,7.5-2.92,15a1,1,0,0,0,.58,1.21Z" style="fill:#fff"></path><path d="M389.47,279.85a.86.86,0,0,0,.77-.77c2.12-11.39,3.92-20.84,5.64-29.73a1,1,0,0,0-.59-1.21c-.42-.13-.85.2-1,.73-1.72,8.9-3.51,18.35-5.64,29.75a1,1,0,0,0,.59,1.2Z" style="fill:#fff"></path><path d="M375.56,353.43a.84.84,0,0,0,.76-.76c4.09-20.73,8-41.51,11.58-61a1.05,1.05,0,0,0-.59-1.21.82.82,0,0,0-1,.75c-3.61,19.5-7.48,40.27-11.57,61a1.06,1.06,0,0,0,.58,1.21A.69.69,0,0,0,375.56,353.43Z" style="fill:#fff"></path><path d="M369.41,385.46a.86.86,0,0,0,.77-.77c1-5.28,2-10.82,3.29-17.46a1,1,0,0,0-.58-1.21.81.81,0,0,0-1,.73c-1.29,6.65-2.34,12.2-3.3,17.48a1,1,0,0,0,.6,1.2Z" style="fill:#fff"></path><path d="M364.79,417.37c.93-6.53,2-13.26,3.24-20.57a1,1,0,0,0-.61-1.19.82.82,0,0,0-.94.77c-1.26,7.39-2.34,14.2-3.28,20.79Z" style="fill:#fff"></path></g></g><g id="freepik--Speaker--inject-3"><path d="M70,289.42h76.89a4.64,4.64,0,0,1,4.64,4.64V417.81a0,0,0,0,1,0,0H65.39a0,0,0,0,1,0,0V294.06A4.64,4.64,0,0,1,70,289.42Z" style="fill:#407BFF"></path><path d="M113.12,289.42h33.8a4.64,4.64,0,0,1,4.64,4.64V417.81a0,0,0,0,1,0,0H108.48a0,0,0,0,1,0,0V294.06A4.64,4.64,0,0,1,113.12,289.42Z" style="opacity:0.30000000000000004;isolation:isolate"></path><ellipse cx="86.74" cy="381.56" rx="17.97" ry="29.09" style="opacity:0.30000000000000004;isolation:isolate"></ellipse><ellipse cx="86.74" cy="381.56" rx="16.92" ry="27.4" style="fill:#fff;opacity:0.6000000000000001"></ellipse><ellipse cx="90.28" cy="381.56" rx="9.14" ry="14.8" style="opacity:0.1;isolation:isolate"></ellipse><ellipse cx="87.37" cy="323.09" rx="11.1" ry="17.97" style="opacity:0.30000000000000004;isolation:isolate"></ellipse><ellipse cx="87.37" cy="323.09" rx="10.22" ry="16.55" style="fill:#fff;opacity:0.6000000000000001"></ellipse><ellipse cx="89.14" cy="323.09" rx="5.52" ry="8.94" style="opacity:0.1;isolation:isolate"></ellipse></g><g id="freepik--character-2--inject-3"><g id="freepik--group--inject-3"><path d="M312.59,171.12s24.77-8,29.8-10.44c3-1.49,41-26,41-26s-.39-2.72.18-3.36,9.39-10.9,11.76-11.38,5.08,9,4,10.9-8.8,10.77-11.34,9c0,0-28.21,23.75-38.07,30.36-7.75,5.19-35.17,16.6-35.17,16.6Z" style="fill:#ebb376"></path><path d="M312.59,171.12s24.77-8,29.8-10.44c3-1.49,41-26,41-26s-.39-2.72.18-3.36,9.39-10.9,11.76-11.38,5.08,9,4,10.9-8.8,10.77-11.34,9c0,0-28.21,23.75-38.07,30.36-7.75,5.19-35.17,16.6-35.17,16.6Z" style="opacity:0.2;isolation:isolate"></path><path d="M299.44,132.78s2-3,6,2,3.27,13.24,1.71,16.52a4.2,4.2,0,0,0,4.34,6.12c3.38-.41,2.84,3.31,3.69,4.16s1.38-.53.85.84-1.73,2.65-2.48.22-.75-3.87-3.09-3.65-5.13-.26-5.12-2.13c0,0-2,3.44,1.08,5.39s3.21,3.43,1.28,5.36,2,2.09,2.27,2.72-.68,3.08-3.43,4.65-28,6.65-30.11,5.26-2.54-3.34-.48-5.29.24-3.09-.65-5.63,1.89-5.56,1.89-5.56-3.88,1.05-4.1,4.4.91,5.61-2.22,5.9-3.07-2-1.55-1.83a2.84,2.84,0,0,0,2.47-3.95c-1-2-.3-6.13,2.42-6.5,0,0-4.53-.56-5.63,2.34s-3.63,4-4.07,2.12,1.69.63,2.05-1.93c.56-3.93,5-4.12,5.62-7.44.28-1.54,1.5-3.12,3.39-5.24S299.44,132.78,299.44,132.78Z" style="fill:#263238"></path><path d="M302.2,174.78s-48,24.55-69.61,66.31l4-1.13s19.22-34.88,65.58-60.59Z" style="fill:#407BFF"></path><path d="M302.22,173.4c4-3.09,22.75-6.89,22.75-6.89l4.89,16.87-11.46,6Z" style="fill:#263238"></path><path d="M325,166.51l4.89,16.86-2.25,1.18-9.21,4.83-6.87-6.78-9.31-9.19C306.24,170.3,325,166.51,325,166.51Z" style="fill:#fff;opacity:0.1"></path><path d="M324.25,200l-9.81-3.48.31-9.65A25.91,25.91,0,0,1,324.25,200Z" style="opacity:0.2;isolation:isolate"></path><polygon points="343.57 410.42 351.86 411.29 359.66 346.14 347.5 341.69 343.57 410.42" style="fill:#ebb376"></polygon><polygon points="262.69 408.74 270.56 410.36 286.58 353.2 274.63 351.89 262.69 408.74" style="fill:#ebb376"></polygon><path d="M271.65,408.88h-9.76a.71.71,0,0,0-.69.55l-1.58,7.16a1.16,1.16,0,0,0,1.17,1.43c3.16,0,5.46-.24,9.43-.24,2.45,0,9.82.25,13.2.25s3.81-3.33,2.43-3.64c-6.2-1.35-10.86-3.22-12.84-5A2,2,0,0,0,271.65,408.88Z" style="fill:#263238"></path><path d="M272.21,410a.22.22,0,0,1-.15-.17.17.17,0,0,1,.1-.18c.28-.19,2.88-1.78,3.77-1.32a.58.58,0,0,1,.33.53,1.13,1.13,0,0,1-.4,1,2.36,2.36,0,0,1-1.55.41A9.93,9.93,0,0,1,272.21,410Zm.55-.27a3.93,3.93,0,0,0,2.86-.14.79.79,0,0,0,.26-.69c0-.15-.07-.22-.12-.22a.54.54,0,0,0-.25-.06A7.85,7.85,0,0,0,272.76,409.73Z" style="fill:#407BFF"></path><path d="M272.16,410a.22.22,0,0,1-.1-.18c0-.11.21-2.42,1.14-3.18a1,1,0,0,1,.81-.24.6.6,0,0,1,.61.5c.16.85-1.44,2.62-2.27,3.07h-.09A.19.19,0,0,1,272.16,410Zm1.28-3.13a4.59,4.59,0,0,0-.95,2.51c.83-.62,1.85-2,1.75-2.48,0-.05,0-.2-.27-.2h-.1A.65.65,0,0,0,273.44,406.91Z" style="fill:#407BFF"></path><path d="M352.74,408.62H343a.72.72,0,0,0-.68.56l-1.59,7.16a1.19,1.19,0,0,0,.92,1.4,1.09,1.09,0,0,0,.26,0c3.16,0,5.46-.25,9.43-.25,2.44,0,9.82.26,13.19.26s3.82-3.34,2.44-3.64c-6.2-1.35-10.87-3.22-12.85-5A2,2,0,0,0,352.74,408.62Z" style="fill:#263238"></path><path d="M353.29,409.74a.21.21,0,0,1-.14-.16.18.18,0,0,1,.09-.19c.29-.18,2.89-1.78,3.78-1.32a.57.57,0,0,1,.32.53,1.1,1.1,0,0,1-.4,1,2.39,2.39,0,0,1-1.54.41A9.42,9.42,0,0,1,353.29,409.74Zm.56-.27a3.88,3.88,0,0,0,2.86-.14.77.77,0,0,0,.25-.69c0-.15-.07-.22-.12-.22a.4.4,0,0,0-.24-.05A7.75,7.75,0,0,0,353.85,409.47Z" style="fill:#407BFF"></path><path d="M353.24,409.78a.2.2,0,0,1-.09-.17c0-.12.2-2.43,1.14-3.18a1,1,0,0,1,.8-.25.63.63,0,0,1,.62.5c.16.85-1.45,2.62-2.27,3.07h-.1A.17.17,0,0,1,353.24,409.78Zm1.29-3.13a4.52,4.52,0,0,0-.95,2.52c.83-.63,1.85-2,1.75-2.49,0-.05,0-.19-.28-.19H355A.67.67,0,0,0,354.53,406.65Z" style="fill:#407BFF"></path><path d="M263.23,406.17l10-1.12s17.35-50.43,22.88-76.45c2.19-10.28,7.42-26.09,8.89-44.44,16.75,10.69,26.45,18.91,32,26.63,9.87,13.61,6.43,73.29,6.83,94.5l10-.12c3.35-25.69,8.71-89.12,2.51-101.84-.42-.85-.84-1.69-1.29-2.52a95.05,95.05,0,0,0-6.21-9.91c-.41-.59-.84-1.18-1.27-1.77-.7-1-1.43-1.95-2.17-2.93-11-14.54-24.5-28.41-26.35-38.55H276.39c-.06,5.6,1.14,55.67-2.23,82.79C270.64,358.76,263.23,406.17,263.23,406.17Z" style="fill:#407BFF"></path><path d="M263.23,406.17l10-1.12s17.35-50.43,22.88-76.45c2.19-10.28,7.42-26.09,8.89-44.44,16.75,10.69,26.45,18.91,32,26.63,9.87,13.61,6.43,73.29,6.83,94.5l10-.12c3.35-25.69,8.71-89.12,2.51-101.84-.42-.85-.84-1.69-1.29-2.52a95.05,95.05,0,0,0-6.21-9.91c-.41-.59-.84-1.18-1.27-1.77-.7-1-1.43-1.95-2.17-2.93-11-14.54-24.5-28.41-26.35-38.55H276.39c-.06,5.6,1.14,55.67-2.23,82.79C270.64,358.76,263.23,406.17,263.23,406.17Z" style="fill:#fff;opacity:0.6000000000000001"></path><path d="M305,284.16c16.75,10.69,26.45,18.91,32,26.63-4.8-16-31.11-36.3-31.11-36.3Z" style="opacity:0.2;isolation:isolate"></path><g style="opacity:0.30000000000000004"><path d="M333.56,291.46c.55-.22,5.75-2.29,7.41-1.55s1.17-.19,2.94-.39c.94-.11,2.4-.27,3.68-.39-.7-1-1.43-1.95-2.17-2.93Z" style="fill:#fff"></path><path d="M344.16,304.8c1.76-.62,6.85-2.25,7.45-1,.73,1.56,2.3,2.54,2.7,1.18s1.65-2.51,2.05-1.69c-.42-.85-.84-1.69-1.29-2.52Z" style="fill:#fff"></path><path d="M291.74,302.4,277,300.9s2.16,3.92,5.1,3.92,3.73.39,5.3,0,3.53.74,4.32.17,4.26-.76,4.26-.76Z" style="fill:#fff"></path><path d="M291.54,318.92s-8.63-2.33-14.52-1.35a5,5,0,0,1,3.47,1.35c1.24,1.39,1.83,2.37,3.79,1.59s2.36.75,3.34.28S289.38,319.09,291.54,318.92Z" style="fill:#fff"></path><path d="M282.52,298.15s12.23-.25,15.88,2.75C298.4,300.9,286.44,298.93,282.52,298.15Z" style="fill:#fff"></path><polygon points="349.6 296.38 340.97 300.9 349.6 298.14 349.6 296.38" style="fill:#fff"></polygon></g><path d="M315.17,173.74s-27.14-1.32-47.37,3.78c0,0,6.9,61.8,6.56,87.58l50.71-4.74S322.22,200.13,315.17,173.74Z" style="fill:#263238"></path><path d="M267.8,177.52s.9,8.08,2,19.62c.07.64.13,1.29.19,2,.05.45.09.91.13,1.37s.12,1.17.17,1.77l.09.93c0,.18,0,.36.05.54l.15,1.57c0,.28.05.57.08.86l.12,1.29c.13,1.45.27,2.93.4,4.43,1.68,18.63,3.31,40.41,3.14,53.26l50.7-4.74s-.57-12.06-1.83-27.76c-.77-9.64-1.81-20.65-3.13-31.08a225.45,225.45,0,0,0-4.93-27.79S288,172.42,267.8,177.52Z" style="fill:#fff;opacity:0.1"></path><path d="M269.49,193.57c.06.56.11,1.11.17,1.69s.12,1.24.18,1.88.13,1.29.19,2c.05.45.09.91.13,1.37s.12,1.17.17,1.77l.09.93c0,.18,0,.36.05.54l.15,1.57c0,.28.05.57.08.86l.12,1.29c.13,1.45.27,2.93.4,4.43,8.09,7.14,19.35,16.61,25.1,19.45,3.7,1.83,16.4,1.49,26.91,1.31-.77-9.64-1.81-20.65-3.13-31.08l-15.41,12.34-33-23.07Z" style="opacity:0.2;isolation:isolate"></path><path d="M283.24,174.78c3.92,3.56,13.51,2.25,13.51,2.25s6-1.64,4.73-3.51c-3.52-.59-5.23-2.23-5.94-4.34a10.3,10.3,0,0,1-.36-4c.06-.75.17-1.5.3-2.25l-11.86-8.79C285.17,159.91,287.07,170.58,283.24,174.78Z" style="fill:#ebb376"></path><path d="M286.36,159.7c.47,7.12,6.32,9.08,9.18,9.48a10.3,10.3,0,0,1-.36-4Z" style="opacity:0.2;isolation:isolate"></path><path d="M301.81,135.07s4.28,10.36-.42,15.9-9.61-14.49-9.61-14.49Z" style="fill:#263238"></path><path d="M286.91,163.59a10,10,0,0,0,12.14,1,11.17,11.17,0,0,0,5-6.58,10.34,10.34,0,0,0,.26-1.16c1.2-7.26-.73-19-8.74-21.59a10.9,10.9,0,0,0-14.21,12C282.36,155.13,282.59,159.83,286.91,163.59Z" style="fill:#ebb376"></path><path d="M293.54,148.59c0,.65.42,1.15.85,1.12s.73-.59.69-1.23-.44-1.15-.86-1.12S293.5,147.94,293.54,148.59Z" style="fill:#263238"></path><path d="M300.85,148.07c0,.64.43,1.14.85,1.11s.73-.58.69-1.23-.43-1.14-.85-1.11S300.81,147.46,300.85,148.07Z" style="fill:#263238"></path><path d="M298.55,148.55a23.17,23.17,0,0,0,3.49,5.32,3.78,3.78,0,0,1-3.07.8Z" style="fill:#d58745"></path><path d="M292.67,145a.41.41,0,0,0,.37.15,3.07,3.07,0,0,1,2.64.75.38.38,0,0,0,.54,0,.37.37,0,0,0,0-.53h0a3.79,3.79,0,0,0-3.32-1,.38.38,0,0,0-.32.43h0A.51.51,0,0,0,292.67,145Z" style="fill:#263238"></path><path d="M304.26,144.67a.31.31,0,0,0,.11-.2.38.38,0,0,0-.36-.39h0a3.78,3.78,0,0,0-3.15,1.46.38.38,0,0,0,.09.53h0a.38.38,0,0,0,.52-.1h0a3.1,3.1,0,0,1,2.52-1.12A.42.42,0,0,0,304.26,144.67Z" style="fill:#263238"></path><path d="M286.44,136.91l.85,3.43a2.62,2.62,0,0,0-.92,3.43c1.48,2.8.36,7.55-1.67,9.63,0,0-.22-1.26-1.26-.83s.05,7,2.52,9.91c0,0-3.5-2.48-6.12-9.21-2.42-6.22-3.27-11.55-2.24-14.19Z" style="fill:#263238"></path><path d="M299.07,156.54a20.14,20.14,0,0,0-1.48,2.53l-.5-.16c-2.23-.71-3-1.77-3.24-2.74a3,3,0,0,1,.07-1.43,2.94,2.94,0,0,1,.31-.76,11.1,11.1,0,0,0,4.09,2.31C298.78,156.46,299.07,156.54,299.07,156.54Z" style="fill:#263238"></path><path d="M298.32,156.29l-.46.73c-2.1-.68-3.49-1.43-3.94-2.28a2.94,2.94,0,0,1,.31-.76A11.1,11.1,0,0,0,298.32,156.29Z" style="fill:#fff"></path><path d="M297.09,158.91c-2.23-.71-3-1.77-3.24-2.74a7.41,7.41,0,0,1,2.32,1.28A2.85,2.85,0,0,1,297.09,158.91Z" style="fill:#de5753"></path><path d="M303.08,132.45c3.17,6.94-23.32,19-23.32,19-11.91-.69-3-19.7,8.48-21S303.08,132.45,303.08,132.45Z" style="fill:#263238"></path><path d="M275.55,151.59s16.71-13.22,29.62-7.73c0,0-.6-7.13-2.07-8.91s-10.34-3.55-16.32-.12a31.27,31.27,0,0,0-12.87,13.89Z" style="fill:#407BFF"></path><path d="M278.32,154a7.58,7.58,0,0,0,4.61,3.51c2.57.66,3.8-1.65,3.05-4.06-.69-2.13-2.85-5.11-5.42-4.69S277.11,151.86,278.32,154Z" style="fill:#ebb376"></path><path d="M297.09,154.73s-2.08-2.57-3.55-2.13-2.77,6.54-2.68,9.88,5.43,5.83,8.21,4,3.26-10.73,2.14-11a6.89,6.89,0,0,0-2.54,0s2.54.68,2.54,2.13-1.69,6.29-2.89,6.29-1.23-2.27-1.23-2.27l-1.55-.3s-.38,2-1.23,1.88-2.28-2.7-1.72-5.6S292.46,152.55,297.09,154.73Z" style="fill:#263238"></path><path d="M297.09,154.73s-2.08-2.57-3.55-2.13-2.77,6.54-2.68,9.88,5.43,5.83,8.21,4,3.26-10.73,2.14-11a6.89,6.89,0,0,0-2.54,0s2.54.68,2.54,2.13-1.69,6.29-2.89,6.29-1.23-2.27-1.23-2.27l-1.55-.3s-.38,2-1.23,1.88-2.28-2.7-1.72-5.6S292.46,152.55,297.09,154.73Z" style="fill:#fff;opacity:0.2"></path><path d="M314.83,205.49c-9.68-1-32.31,2.21-32.31,2.21l-1.85-15c5.35-2.78,33.77-2.39,33.77-2.39Z" style="fill:#fff;opacity:0.5"></path><path d="M314.83,205.49c-9.68-1-32.31,2.21-32.31,2.21l31.92-17.35Z" style="fill:#fff"></path><path d="M306.51,171.12s4.45,40.91-11,89.24l4-4.18s15.6-49,13.11-87.26Z" style="fill:#407BFF"></path><path d="M372.16,299.92l.82.86a.25.25,0,0,1,0,.34l-.34.32a.24.24,0,0,1-.34,0l-.14-.15-.95.9-.53-.56.94-.9-.14-.15a.25.25,0,0,1,0-.34l.34-.33A.25.25,0,0,1,372.16,299.92Z"></path><path d="M370.3,298l.81.86a.23.23,0,0,1,0,.34l-.34.32a.24.24,0,0,1-.34,0l-.14-.15-.95.9-.53-.56.95-.9-.14-.14a.24.24,0,0,1,0-.34L370,298A.24.24,0,0,1,370.3,298Z"></path><path d="M368.44,296l.81.86a.24.24,0,0,1,0,.34l-.34.32a.24.24,0,0,1-.34,0l-.14-.15-.95.9-.53-.56.95-.9-.14-.15a.24.24,0,0,1,0-.34l.34-.32A.24.24,0,0,1,368.44,296Z"></path><path d="M366.57,294l.82.86a.24.24,0,0,1,0,.34l-.34.33a.25.25,0,0,1-.34,0l-.14-.15-.95.9-.53-.56.95-.9-.15-.15a.25.25,0,0,1,0-.34l.34-.32A.24.24,0,0,1,366.57,294Z"></path><path d="M364.71,292.07l.82.86a.25.25,0,0,1,0,.34l-.34.32a.24.24,0,0,1-.34,0l-.15-.14-.94.9-.53-.56.94-.9-.14-.15a.24.24,0,0,1,0-.34l.34-.33A.25.25,0,0,1,364.71,292.07Z"></path><path d="M362.85,290.11l.81.86a.24.24,0,0,1,0,.34l-.34.32a.24.24,0,0,1-.34,0l-.14-.15-.95.9-.53-.56.95-.9-.14-.15a.24.24,0,0,1,0-.34l.34-.32A.24.24,0,0,1,362.85,290.11Z"></path><g style="opacity:0.2"><path d="M372.16,299.92l.82.86a.25.25,0,0,1,0,.34l-.34.32a.24.24,0,0,1-.34,0l-.14-.15-.95.9-.53-.56.94-.9-.14-.15a.25.25,0,0,1,0-.34l.34-.33A.25.25,0,0,1,372.16,299.92Z" style="fill:#fff"></path><path d="M370.3,298l.81.86a.23.23,0,0,1,0,.34l-.34.32a.24.24,0,0,1-.34,0l-.14-.15-.95.9-.53-.56.95-.9-.14-.14a.24.24,0,0,1,0-.34L370,298A.24.24,0,0,1,370.3,298Z" style="fill:#fff"></path><path d="M368.44,296l.81.86a.24.24,0,0,1,0,.34l-.34.32a.24.24,0,0,1-.34,0l-.14-.15-.95.9-.53-.56.95-.9-.14-.15a.24.24,0,0,1,0-.34l.34-.32A.24.24,0,0,1,368.44,296Z" style="fill:#fff"></path><path d="M366.57,294l.82.86a.24.24,0,0,1,0,.34l-.34.33a.25.25,0,0,1-.34,0l-.14-.15-.95.9-.53-.56.95-.9-.15-.15a.25.25,0,0,1,0-.34l.34-.32A.24.24,0,0,1,366.57,294Z" style="fill:#fff"></path><path d="M364.71,292.07l.82.86a.25.25,0,0,1,0,.34l-.34.32a.24.24,0,0,1-.34,0l-.15-.14-.94.9-.53-.56.94-.9-.14-.15a.24.24,0,0,1,0-.34l.34-.33A.25.25,0,0,1,364.71,292.07Z" style="fill:#fff"></path><path d="M362.85,290.11l.81.86a.24.24,0,0,1,0,.34l-.34.32a.24.24,0,0,1-.34,0l-.14-.15-.95.9-.53-.56.95-.9-.14-.15a.24.24,0,0,1,0-.34l.34-.32A.24.24,0,0,1,362.85,290.11Z" style="fill:#fff"></path></g><path d="M356.37,290.24a6.13,6.13,0,0,0,3.21,0,1.38,1.38,0,0,1,1.32.41l10.78,11.8a2.07,2.07,0,0,1-.11,2.91h0a2.05,2.05,0,0,1-2.57.23,29.72,29.72,0,0,0-5.24-2.75,31.86,31.86,0,0,0-6.5-1.7,1.41,1.41,0,0,1-1.13-1.07A4.19,4.19,0,0,0,353.7,297Z" style="fill:#263238"></path><path d="M356.37,290.24a6.13,6.13,0,0,0,3.21,0,1.38,1.38,0,0,1,1.32.41l10.78,11.8a2.07,2.07,0,0,1-.11,2.91h0a2.05,2.05,0,0,1-2.57.23,29.72,29.72,0,0,0-5.24-2.75,31.86,31.86,0,0,0-6.5-1.7,1.41,1.41,0,0,1-1.13-1.07A4.19,4.19,0,0,0,353.7,297Z" style="fill:#fff;opacity:0.1"></path><path d="M260,224.42c16.13,6.35,14.49,18.32,22.45,22.41,7.34,3.78,19.34-3.8,28.88,4.77a1.36,1.36,0,0,1-.85,2.38c-5.41.06-15.44.5-16.22,11.46l-6.46,6.93c-4.75,2.87-4.08,12,2.25,14.5,1.06.41.47,2.17-.66,2.34a11.59,11.59,0,0,1-10.45-3.53c-3.1-3.24-5.15-5.62-7.77-6.65-10.09-4-17.63,6.38-32.84.39-10.05-4-13.34-19.48-7.36-34.67S249.93,220.46,260,224.42Z" style="fill:#407BFF"></path><path d="M260,224.42c16.13,6.35,14.49,18.32,22.45,22.41,7.34,3.78,19.34-3.8,28.88,4.77a1.36,1.36,0,0,1-.85,2.38c-5.41.06-15.44.5-16.22,11.46l-6.46,6.93c-4.75,2.87-4.08,12,2.25,14.5,1.06.41.47,2.17-.66,2.34a11.59,11.59,0,0,1-10.45-3.53c-3.1-3.24-5.15-5.62-7.77-6.65-10.09-4-17.63,6.38-32.84.39-10.05-4-13.34-19.48-7.36-34.67S249.93,220.46,260,224.42Z" style="opacity:0.30000000000000004;isolation:isolate"></path><path d="M285.6,285.61a.65.65,0,0,1-.63,1.11c-2.29-.8-5.7-2.7-9.81-7.11-6.74-7.22-22.31.66-26.36.09s.79-4.44,5.16-7.88c10.66-8.41,1.81-21.24,12.91-22.9,6.13-.92,7,3.92,13.1,6.31,6.41,2.53,10.89-.19,12,2.55s-4.08,7.1-4.08,7.1l.64,4.87s-4.12.8-5.57,6A9.43,9.43,0,0,0,285.6,285.61Z" style="fill:#fff"></path><path d="M256.81,273.15a1.43,1.43,0,1,0,1.85-.8A1.43,1.43,0,0,0,256.81,273.15Z" style="fill:#263238"></path><path d="M252,276.33a1.13,1.13,0,1,0,1.47-.64A1.13,1.13,0,0,0,252,276.33Z" style="fill:#263238"></path><rect x="255.79" y="249.79" width="7.02" height="12.27" rx="0.84" transform="translate(406.78 589.07) rotate(-158.5)"></rect><path d="M280.11,258.92a.88.88,0,0,1,.5,1.15l-2.89,7.35a.89.89,0,1,1-1.66-.66l2.89-7.34A.89.89,0,0,1,280.11,258.92Z" style="fill:#263238"></path><path d="M274.5,256.71a.88.88,0,0,1,.5,1.15l-2.89,7.35a.89.89,0,1,1-1.66-.66l2.89-7.34A.89.89,0,0,1,274.5,256.71Z" style="fill:#263238"></path><path d="M270,255.12a.9.9,0,0,1,.18,1.25l-4.72,6.32a.89.89,0,0,1-1.43-1.06l4.72-6.33A.9.9,0,0,1,270,255.12Z" style="fill:#263238"></path><rect x="255.79" y="249.79" width="7.02" height="12.27" rx="0.84" transform="translate(406.78 589.07) rotate(-158.5)" style="fill:#fff;opacity:0.4"></rect><path d="M285.59,261.4l70.78,28.84L353.7,297l-71.43-27.18a1.75,1.75,0,0,1-1-2.27l2.05-5.2A1.74,1.74,0,0,1,285.59,261.4Z"></path><path d="M285.59,261.4l70.78,28.84L353.7,297l-71.43-27.18a1.75,1.75,0,0,1-1-2.27l2.05-5.2A1.74,1.74,0,0,1,285.59,261.4Z" style="fill:#fff;opacity:0.4"></path><path d="M348.18,294a.29.29,0,0,0,.39-.17l1.89-4.79a.29.29,0,0,0-.17-.39.3.3,0,0,0-.39.17L348,293.63A.3.3,0,0,0,348.18,294Z" style="fill:#fff;opacity:0.2"></path><path d="M343.27,292.09a.31.31,0,0,0,.39-.17l1.88-4.8a.29.29,0,0,0-.17-.39.31.31,0,0,0-.39.17l-1.88,4.79A.3.3,0,0,0,343.27,292.09Z" style="fill:#fff;opacity:0.2"></path><path d="M338.35,290.15a.31.31,0,0,0,.39-.17l1.89-4.79a.3.3,0,0,0-.17-.39.29.29,0,0,0-.39.17l-1.89,4.79A.3.3,0,0,0,338.35,290.15Z" style="fill:#fff;opacity:0.2"></path><path d="M333.43,288.21a.29.29,0,0,0,.39-.17l1.89-4.79a.29.29,0,0,0-.17-.39.3.3,0,0,0-.39.17l-1.89,4.79A.3.3,0,0,0,333.43,288.21Z" style="fill:#fff;opacity:0.2"></path><path d="M328.52,286.28a.31.31,0,0,0,.39-.17l1.89-4.8a.31.31,0,0,0-.17-.39.32.32,0,0,0-.4.17l-1.88,4.79A.31.31,0,0,0,328.52,286.28Z" style="fill:#fff;opacity:0.2"></path><path d="M323.6,284.34a.31.31,0,0,0,.39-.17l1.89-4.79a.3.3,0,0,0-.17-.39.29.29,0,0,0-.39.17L323.43,284A.3.3,0,0,0,323.6,284.34Z" style="fill:#fff;opacity:0.2"></path><path d="M318.68,282.4a.29.29,0,0,0,.39-.17l1.89-4.79a.29.29,0,0,0-.17-.39.3.3,0,0,0-.39.17L318.51,282A.3.3,0,0,0,318.68,282.4Z" style="fill:#fff;opacity:0.2"></path><path d="M313.77,280.47a.31.31,0,0,0,.39-.17l1.89-4.8a.31.31,0,0,0-.17-.39.32.32,0,0,0-.4.17l-1.88,4.79A.31.31,0,0,0,313.77,280.47Z" style="fill:#fff;opacity:0.2"></path><path d="M308.85,278.53a.3.3,0,0,0,.39-.17l1.89-4.79a.3.3,0,0,0-.17-.39.29.29,0,0,0-.39.17l-1.89,4.79A.31.31,0,0,0,308.85,278.53Z" style="fill:#fff;opacity:0.2"></path><path d="M303.93,276.59a.29.29,0,0,0,.39-.17l1.89-4.79a.29.29,0,0,0-.17-.39.3.3,0,0,0-.39.17l-1.89,4.79A.3.3,0,0,0,303.93,276.59Z" style="fill:#fff;opacity:0.2"></path><path d="M299,274.66a.31.31,0,0,0,.39-.17l1.89-4.8a.31.31,0,0,0-.17-.39.3.3,0,0,0-.39.17l-1.89,4.79A.31.31,0,0,0,299,274.66Z" style="fill:#fff;opacity:0.2"></path><path d="M294.1,272.72a.3.3,0,0,0,.39-.17l1.89-4.79a.3.3,0,0,0-.17-.39.29.29,0,0,0-.39.17l-1.89,4.79A.31.31,0,0,0,294.1,272.72Z" style="fill:#fff;opacity:0.2"></path><path d="M289.18,270.78a.31.31,0,0,0,.4-.17l1.88-4.79a.29.29,0,0,0-.17-.39.3.3,0,0,0-.39.17L289,270.39A.3.3,0,0,0,289.18,270.78Z" style="fill:#fff;opacity:0.2"></path><path d="M284.27,268.85a.31.31,0,0,0,.39-.17l1.89-4.8a.31.31,0,0,0-.17-.39.3.3,0,0,0-.39.17l-1.89,4.79A.31.31,0,0,0,284.27,268.85Z" style="fill:#fff;opacity:0.2"></path><path d="M378.18,197.65a1.82,1.82,0,0,0,1-.63,1.86,1.86,0,0,0-.27-2.62l-42.27-34.34a1.86,1.86,0,1,0-2.35,2.89l42.28,34.34A1.85,1.85,0,0,0,378.18,197.65Z" style="fill:#263238"></path><g style="opacity:0.30000000000000004"><path d="M378.18,197.65a1.82,1.82,0,0,0,1-.63,1.86,1.86,0,0,0-.27-2.62l-42.27-34.34a1.86,1.86,0,1,0-2.35,2.89l42.28,34.34A1.85,1.85,0,0,0,378.18,197.65Z" style="fill:#fff"></path></g><path d="M382,416.32a1.85,1.85,0,0,0,1.41-1.92L368.91,187.05a1.86,1.86,0,1,0-3.72.24l14.55,227.34a1.85,1.85,0,0,0,2,1.74A1.75,1.75,0,0,0,382,416.32Z" style="fill:#263238"></path><path d="M382,416.32a1.85,1.85,0,0,0,1.41-1.92L368.91,187.05a1.86,1.86,0,1,0-3.72.24l14.55,227.34a1.85,1.85,0,0,0,2,1.74A1.75,1.75,0,0,0,382,416.32Z" style="fill:#fff;opacity:0.4"></path><path d="M345.39,159.13l-22.49.76a1.82,1.82,0,0,0-1.74,2.07l.42,2.89a1.81,1.81,0,0,0,2.09,1.53l22.16-3.59Z" style="fill:#263238"></path><g style="opacity:0.2"><path d="M345.39,159.13l-22.49.76a1.82,1.82,0,0,0-1.74,2.07l.42,2.89a1.81,1.81,0,0,0,2.09,1.53l22.16-3.59Z" style="fill:#fff"></path></g><polygon points="371.7 415.77 381.13 412.08 390.51 416.07 390.5 417.53 371.69 417.41 371.7 415.77" style="fill:#263238"></polygon><polygon points="371.7 415.77 381.13 412.08 390.51 416.07 390.5 417.53 371.69 417.41 371.7 415.77" style="fill:#fff;opacity:0.2"></polygon><path d="M274.68,204.86s.73.64,2,1.69,2.66,2.17,4.49,3.56c.35.27.7.54,1.07.81l.95.71c1.38,1,2.86,2.09,4.41,3.14l.49.33c.58.39,1.17.77,1.76,1.15l.92.59,1.49.92,1,.59c1.18.69,2.37,1.34,3.55,1.94h0c1,.5,2,1,2.95,1.37,4.57,1.92,8.74,2.66,11.46,1,9.46-5.94,23.57-45.35,23.57-45.35a5.86,5.86,0,0,0,3.17-3.51c.79-2.57,2.19-14.44,1.38-15.9s-12.93-.83-12.93-.83l1.06,14.49s-16.68,38.57-22.3,37a11.57,11.57,0,0,1-2.27-1c-.34-.18-.7-.39-1.07-.62l-1-.6c-2.08-1.35-4.48-3.12-6.81-5-5.56-4.36-10.81-9.07-10.81-9.07Z" style="fill:#ebb376"></path><path d="M291.23,203.38a7,7,0,0,1,.37,3.21,3.72,3.72,0,0,1-.6,1.59,3.11,3.11,0,0,1-1.3,1.09,5.76,5.76,0,0,1-3.13.33,1.89,1.89,0,0,0-1.31.14,1.12,1.12,0,0,0-.37,1.17,1.84,1.84,0,0,0,1,1,3.39,3.39,0,0,0,1.43.39,3.6,3.6,0,0,1-1.48-.27,2.07,2.07,0,0,1-1.16-1,1.44,1.44,0,0,1,.38-1.56,2.3,2.3,0,0,1,1.58-.34,5.16,5.16,0,0,0,2.75-.5,2.49,2.49,0,0,0,1.25-2.12,5.94,5.94,0,0,0-.55-2.66,7.25,7.25,0,0,0-1.49-2.29,7.13,7.13,0,0,0-2.22-1.5,7.43,7.43,0,0,0-2.54-.59l.1-2a9.32,9.32,0,0,1,3.2,1,8.47,8.47,0,0,1,2.57,2.07A8.36,8.36,0,0,1,291.23,203.38Z" style="fill:#407BFF"></path><path d="M284.93,202.67l.82-1.83a6.68,6.68,0,0,1,2.71,2.45,4,4,0,0,1,.49,1.85,2.66,2.66,0,0,1-.61,1.87,2.23,2.23,0,0,1-1.78.71,2.72,2.72,0,0,1-1.66-.63,2.49,2.49,0,0,1-.57-.68,1.31,1.31,0,0,1-.15-.89,1.89,1.89,0,0,1,1.11-1.18,1.82,1.82,0,0,0-.85,1.22,1.43,1.43,0,0,0,.76,1.11,1.81,1.81,0,0,0,2.39-.27,2.2,2.2,0,0,0-.35-2.32A5.11,5.11,0,0,0,284.93,202.67Z" style="fill:#407BFF"></path><path d="M290.45,214.15a3.43,3.43,0,0,1-.6,2.1l.92.59a4.54,4.54,0,0,0,.76-2.72,18.39,18.39,0,0,1,0-2.77,2,2,0,0,1,1.17-1.84c1.48-.49,3.73.11,4.21,1.61a2.32,2.32,0,0,1,0,1.17,2.7,2.7,0,0,1-.59,1.05c-.54.64-1.4,1-2,.67a2,2,0,0,1-.62-2.07.61.61,0,0,1,.27-.35,1,1,0,0,1,.41-.14c.26,0,.57.43.84.84a1.68,1.68,0,0,0-.05-.77.95.95,0,0,0-1.12-.74,1.12,1.12,0,0,0-.45.14,1.36,1.36,0,0,0-.63.71,2.59,2.59,0,0,0,0,1.67,2.5,2.5,0,0,0,.93,1.41,2,2,0,0,0,1.76.16,3.54,3.54,0,0,0,1.33-.94,3.65,3.65,0,0,0,.81-1.41,3.33,3.33,0,0,0,0-1.66,3.51,3.51,0,0,0-2.3-2.21,5,5,0,0,0-3.15-.09,2.62,2.62,0,0,0-1.36,1.09,4,4,0,0,0-.51,1.56A16.06,16.06,0,0,0,290.45,214.15Z" style="fill:#407BFF"></path><path d="M288.62,212.2a2.8,2.8,0,0,1-.55,2.12,2.24,2.24,0,0,1-.47.45l.49.33a3.07,3.07,0,0,0,.39-.5,3.19,3.19,0,0,0,.39-2.46,1.85,1.85,0,0,0-.69-1,1.79,1.79,0,0,0-1.16-.31,1.72,1.72,0,0,1,1.08.41A1.58,1.58,0,0,1,288.62,212.2Z" style="fill:#407BFF"></path><path d="M282.57,206.36a2.71,2.71,0,0,1,.59,2.25c-.13.66-.65,1.42-.92,2.31l.95.71a.43.43,0,0,1,0-.11,7.25,7.25,0,0,1,.45-1.25,6.1,6.1,0,0,0,.54-1.45,3.74,3.74,0,0,0-.82-3.1,6.37,6.37,0,0,0-2.52-1.8l-.38.93A5.34,5.34,0,0,1,282.57,206.36Z" style="fill:#407BFF"></path><path d="M276.68,206.55c1.12.92,2.66,2.17,4.49,3.56a3.12,3.12,0,0,0,.61-1.63c.15-2-2.92-3.32-2.92-3.32Z" style="fill:#407BFF"></path><path d="M292.26,217.76l1,.59a2.3,2.3,0,0,1,.22-.92,1.48,1.48,0,0,1,1.83-.79,1.09,1.09,0,0,1,.61.77c.11.39.1.89.2,1.46a2.68,2.68,0,0,0,.31.87,4.14,4.14,0,0,0,.38.55h0c1,.5,2,1,2.95,1.37a2.32,2.32,0,0,0,.38-.07,5,5,0,0,0,1.48-.78c.84-.61,1.58-1.2,2.4-1.11a1.54,1.54,0,0,1,1.05.5.87.87,0,0,1,.08,1,.76.76,0,0,1-.9.38c-.39-.07-.83-.4-.56-.92a.66.66,0,0,0-.24.78,1.16,1.16,0,0,0,.62.63,1.41,1.41,0,0,0,.93.1,1.35,1.35,0,0,0,.8-.6,1.61,1.61,0,0,0-.11-1.85,2.38,2.38,0,0,0-1.57-.85,3.08,3.08,0,0,0-1.71.33c-.5.26-.92.57-1.33.83a2.39,2.39,0,0,1-2.35.49,2.73,2.73,0,0,1-1-.75,3.16,3.16,0,0,1-.37-.53,1.56,1.56,0,0,1-.19-.55c-.08-.42-.06-.94-.21-1.53a2.19,2.19,0,0,0-1.21-1.5,2.52,2.52,0,0,0-3.22,1.33A3.66,3.66,0,0,0,292.26,217.76Z" style="fill:#407BFF"></path><path d="M292.93,201.71a10.77,10.77,0,0,1,.67,2.35,9.51,9.51,0,0,1,.12,1.22c0,.16,0,.33,0,.5a7.09,7.09,0,0,1,2.84.31,4.26,4.26,0,0,1,1.63,1,5.31,5.31,0,0,1,1.08,1.53,5.24,5.24,0,0,1,.2,3.59,8.29,8.29,0,0,1-1.7,3,10.57,10.57,0,0,0,1.15-3.13,4.89,4.89,0,0,0-.46-3.08,4.37,4.37,0,0,0-.95-1.19,3.25,3.25,0,0,0-1.28-.72,6.58,6.58,0,0,0-3.09-.09l-.82.15.18-.95a1.64,1.64,0,0,0,.06-.38,4.13,4.13,0,0,0,0-.5,9.5,9.5,0,0,0-.1-1.06,9,9,0,0,0-.58-2.07,8.49,8.49,0,0,0-1.13-1.8,11.64,11.64,0,0,0-1.53-1.53l.57-.82a10,10,0,0,1,1.8,1.63A8.37,8.37,0,0,1,292.93,201.71Z" style="fill:#407BFF"></path><path d="M300,217.15l0,.06,0-.06Z" style="fill:#407BFF"></path><path d="M298.29,217.43a3,3,0,0,0,.47,1.12,1.27,1.27,0,0,0,1,.56,1.23,1.23,0,0,0,1-.6.91.91,0,0,0,.08-1.09.88.88,0,0,0-.49-.31.66.66,0,0,0-.28,0,.88.88,0,0,1,.28,0,.91.91,0,0,1,.47.31.86.86,0,0,1-.1,1,1.17,1.17,0,0,1-.94.51,1,1,0,0,1-.86-.57c-.35-.62-.48-1.5,0-1.92a2.57,2.57,0,0,1,1.63-.49h.31l.26,0,.13-.2a10.8,10.8,0,0,0,1.58-5.06,22.75,22.75,0,0,0,.07-2.61l0-.68c-.34-.18-.7-.39-1.07-.62a19.51,19.51,0,0,1,0,3.82,10.05,10.05,0,0,1-1.33,4.45,3.31,3.31,0,0,0-2,1.07A1.53,1.53,0,0,0,298.29,217.43Z" style="fill:#407BFF"></path><path d="M299.91,217.23v0Z" style="fill:#407BFF"></path><path d="M300.07,217.28h-.67a2.24,2.24,0,0,1,.49,0h0a0,0,0,0,0,0,0Z" style="fill:#407BFF"></path><path d="M300.07,217.28h0Z" style="fill:#407BFF"></path><path d="M294.05,201.27a8.44,8.44,0,0,1,.69,3.12s4.9-.2,5.93,4.63a8.72,8.72,0,0,0,.19-2.79C298.78,204.88,296.38,203.11,294.05,201.27Z" style="fill:#407BFF"></path><g style="opacity:0.30000000000000004"><path d="M291.23,203.38a7,7,0,0,1,.37,3.21,3.72,3.72,0,0,1-.6,1.59,3.11,3.11,0,0,1-1.3,1.09,5.76,5.76,0,0,1-3.13.33,1.89,1.89,0,0,0-1.31.14,1.12,1.12,0,0,0-.37,1.17,1.84,1.84,0,0,0,1,1,3.39,3.39,0,0,0,1.43.39,3.6,3.6,0,0,1-1.48-.27,2.07,2.07,0,0,1-1.16-1,1.44,1.44,0,0,1,.38-1.56,2.3,2.3,0,0,1,1.58-.34,5.16,5.16,0,0,0,2.75-.5,2.49,2.49,0,0,0,1.25-2.12,5.94,5.94,0,0,0-.55-2.66,7.25,7.25,0,0,0-1.49-2.29,7.13,7.13,0,0,0-2.22-1.5,7.43,7.43,0,0,0-2.54-.59l.1-2a9.32,9.32,0,0,1,3.2,1,8.47,8.47,0,0,1,2.57,2.07A8.36,8.36,0,0,1,291.23,203.38Z" style="fill:#fff"></path><path d="M284.93,202.67l.82-1.83a6.68,6.68,0,0,1,2.71,2.45,4,4,0,0,1,.49,1.85,2.66,2.66,0,0,1-.61,1.87,2.23,2.23,0,0,1-1.78.71,2.72,2.72,0,0,1-1.66-.63,2.49,2.49,0,0,1-.57-.68,1.31,1.31,0,0,1-.15-.89,1.89,1.89,0,0,1,1.11-1.18,1.82,1.82,0,0,0-.85,1.22,1.43,1.43,0,0,0,.76,1.11,1.81,1.81,0,0,0,2.39-.27,2.2,2.2,0,0,0-.35-2.32A5.11,5.11,0,0,0,284.93,202.67Z" style="fill:#fff"></path><path d="M290.45,214.15a3.43,3.43,0,0,1-.6,2.1l.92.59a4.54,4.54,0,0,0,.76-2.72,18.39,18.39,0,0,1,0-2.77,2,2,0,0,1,1.17-1.84c1.48-.49,3.73.11,4.21,1.61a2.32,2.32,0,0,1,0,1.17,2.7,2.7,0,0,1-.59,1.05c-.54.64-1.4,1-2,.67a2,2,0,0,1-.62-2.07.61.61,0,0,1,.27-.35,1,1,0,0,1,.41-.14c.26,0,.57.43.84.84a1.68,1.68,0,0,0-.05-.77.95.95,0,0,0-1.12-.74,1.12,1.12,0,0,0-.45.14,1.36,1.36,0,0,0-.63.71,2.59,2.59,0,0,0,0,1.67,2.5,2.5,0,0,0,.93,1.41,2,2,0,0,0,1.76.16,3.54,3.54,0,0,0,1.33-.94,3.65,3.65,0,0,0,.81-1.41,3.33,3.33,0,0,0,0-1.66,3.51,3.51,0,0,0-2.3-2.21,5,5,0,0,0-3.15-.09,2.62,2.62,0,0,0-1.36,1.09,4,4,0,0,0-.51,1.56A16.06,16.06,0,0,0,290.45,214.15Z" style="fill:#fff"></path><path d="M288.62,212.2a2.8,2.8,0,0,1-.55,2.12,2.24,2.24,0,0,1-.47.45l.49.33a3.07,3.07,0,0,0,.39-.5,3.19,3.19,0,0,0,.39-2.46,1.85,1.85,0,0,0-.69-1,1.79,1.79,0,0,0-1.16-.31,1.72,1.72,0,0,1,1.08.41A1.58,1.58,0,0,1,288.62,212.2Z" style="fill:#fff"></path><path d="M282.57,206.36a2.71,2.71,0,0,1,.59,2.25c-.13.66-.65,1.42-.92,2.31l.95.71a.43.43,0,0,1,0-.11,7.25,7.25,0,0,1,.45-1.25,6.1,6.1,0,0,0,.54-1.45,3.74,3.74,0,0,0-.82-3.1,6.37,6.37,0,0,0-2.52-1.8l-.38.93A5.34,5.34,0,0,1,282.57,206.36Z" style="fill:#fff"></path><path d="M276.68,206.55c1.12.92,2.66,2.17,4.49,3.56a3.12,3.12,0,0,0,.61-1.63c.15-2-2.92-3.32-2.92-3.32Z" style="fill:#fff"></path><path d="M292.26,217.76l1,.59a2.3,2.3,0,0,1,.22-.92,1.48,1.48,0,0,1,1.83-.79,1.09,1.09,0,0,1,.61.77c.11.39.1.89.2,1.46a2.68,2.68,0,0,0,.31.87,4.14,4.14,0,0,0,.38.55h0c1,.5,2,1,2.95,1.37a2.32,2.32,0,0,0,.38-.07,5,5,0,0,0,1.48-.78c.84-.61,1.58-1.2,2.4-1.11a1.54,1.54,0,0,1,1.05.5.87.87,0,0,1,.08,1,.76.76,0,0,1-.9.38c-.39-.07-.83-.4-.56-.92a.66.66,0,0,0-.24.78,1.16,1.16,0,0,0,.62.63,1.41,1.41,0,0,0,.93.1,1.35,1.35,0,0,0,.8-.6,1.61,1.61,0,0,0-.11-1.85,2.38,2.38,0,0,0-1.57-.85,3.08,3.08,0,0,0-1.71.33c-.5.26-.92.57-1.33.83a2.39,2.39,0,0,1-2.35.49,2.73,2.73,0,0,1-1-.75,3.16,3.16,0,0,1-.37-.53,1.56,1.56,0,0,1-.19-.55c-.08-.42-.06-.94-.21-1.53a2.19,2.19,0,0,0-1.21-1.5,2.52,2.52,0,0,0-3.22,1.33A3.66,3.66,0,0,0,292.26,217.76Z" style="fill:#fff"></path><path d="M292.93,201.71a10.77,10.77,0,0,1,.67,2.35,9.51,9.51,0,0,1,.12,1.22c0,.16,0,.33,0,.5a7.09,7.09,0,0,1,2.84.31,4.26,4.26,0,0,1,1.63,1,5.31,5.31,0,0,1,1.08,1.53,5.24,5.24,0,0,1,.2,3.59,8.29,8.29,0,0,1-1.7,3,10.57,10.57,0,0,0,1.15-3.13,4.89,4.89,0,0,0-.46-3.08,4.37,4.37,0,0,0-.95-1.19,3.25,3.25,0,0,0-1.28-.72,6.58,6.58,0,0,0-3.09-.09l-.82.15.18-.95a1.64,1.64,0,0,0,.06-.38,4.13,4.13,0,0,0,0-.5,9.5,9.5,0,0,0-.1-1.06,9,9,0,0,0-.58-2.07,8.49,8.49,0,0,0-1.13-1.8,11.64,11.64,0,0,0-1.53-1.53l.57-.82a10,10,0,0,1,1.8,1.63A8.37,8.37,0,0,1,292.93,201.71Z" style="fill:#fff"></path><path d="M300,217.15l0,.06,0-.06Z" style="fill:#fff"></path><path d="M298.29,217.43a3,3,0,0,0,.47,1.12,1.27,1.27,0,0,0,1,.56,1.23,1.23,0,0,0,1-.6.91.91,0,0,0,.08-1.09.88.88,0,0,0-.49-.31.66.66,0,0,0-.28,0,.88.88,0,0,1,.28,0,.91.91,0,0,1,.47.31.86.86,0,0,1-.1,1,1.17,1.17,0,0,1-.94.51,1,1,0,0,1-.86-.57c-.35-.62-.48-1.5,0-1.92a2.57,2.57,0,0,1,1.63-.49h.31l.26,0,.13-.2a10.8,10.8,0,0,0,1.58-5.06,22.75,22.75,0,0,0,.07-2.61l0-.68c-.34-.18-.7-.39-1.07-.62a19.51,19.51,0,0,1,0,3.82,10.05,10.05,0,0,1-1.33,4.45,3.31,3.31,0,0,0-2,1.07A1.53,1.53,0,0,0,298.29,217.43Z" style="fill:#fff"></path><path d="M299.91,217.23v0Z" style="fill:#fff"></path><path d="M300.07,217.28h-.67a2.24,2.24,0,0,1,.49,0h0a0,0,0,0,0,0,0Z" style="fill:#fff"></path><path d="M300.07,217.28h0Z" style="fill:#fff"></path><path d="M294.05,201.27a8.44,8.44,0,0,1,.69,3.12s4.9-.2,5.93,4.63a8.72,8.72,0,0,0,.19-2.79C298.78,204.88,296.38,203.11,294.05,201.27Z" style="fill:#fff"></path></g><path d="M267.81,177.52c4.78-1.1,24.64,20.18,24.64,20.18L275,211.24s-10.17-9.9-12.1-16.64C259.57,183,264.76,178.23,267.81,177.52Z" style="fill:#263238"></path><g style="opacity:0.1"><path d="M267.81,177.52c4.78-1.1,24.64,20.18,24.64,20.18L275,211.24s-10.17-9.9-12.1-16.64C259.57,183,264.76,178.23,267.81,177.52Z" style="fill:#fff"></path></g></g></g><g id="freepik--character-1--inject-3"><g id="freepik--group--inject-3"><path d="M178.35,173.78S136.82,198.27,135.6,207s4.91,5.57,10.36,2.59,35.31-21.45,35.31-21.45Z" style="fill:#b97964"></path><path d="M178.35,173.78S136.82,198.27,135.6,207s4.91,5.57,10.36,2.59,35.31-21.45,35.31-21.45Z" style="opacity:0.2;isolation:isolate"></path><polygon points="149.19 410.35 140.83 411.24 132.97 345.53 145.22 341.05 149.19 410.35" style="fill:#b97964"></polygon><polygon points="230.75 408.66 222.81 410.3 206.66 352.65 218.71 351.33 230.75 408.66" style="fill:#b97964"></polygon><path d="M221.71,408.8h9.85a.73.73,0,0,1,.7.56l1.59,7.22a1.19,1.19,0,0,1-.92,1.42,1.1,1.1,0,0,1-.26,0c-3.19,0-5.51-.24-9.51-.24-2.47,0-9.9.25-13.31.25s-3.84-3.36-2.45-3.67c6.25-1.36,10.95-3.25,12.95-5A2,2,0,0,1,221.71,408.8Z" style="fill:#263238"></path><path d="M219,410.23a2.43,2.43,0,0,1-1.55-.42,1.13,1.13,0,0,1-.41-1,.58.58,0,0,1,.33-.53c.9-.47,3.52,1.14,3.81,1.33a.16.16,0,0,1,.09.18.19.19,0,0,1-.14.17A10.93,10.93,0,0,1,219,410.23Zm-1.2-1.69a.51.51,0,0,0-.25.06c-.05,0-.11.07-.13.22a.81.81,0,0,0,.26.69,3.91,3.91,0,0,0,2.89.15A8,8,0,0,0,217.83,408.54Z" style="fill:#407BFF"></path><path d="M221.11,409.94H221c-.83-.46-2.45-2.24-2.29-3.1a.63.63,0,0,1,.62-.5,1.06,1.06,0,0,1,.82.24c.94.77,1.13,3.1,1.14,3.21a.21.21,0,0,1-.09.18A.17.17,0,0,1,221.11,409.94Zm-1.63-3.29h-.1c-.24,0-.26.14-.27.19-.11.53.92,1.88,1.76,2.51a4.62,4.62,0,0,0-1-2.54A.67.67,0,0,0,219.48,406.65Z" style="fill:#407BFF"></path><path d="M139.94,408.54h9.85a.73.73,0,0,1,.69.56l1.6,7.22a1.19,1.19,0,0,1-.92,1.42l-.26,0c-3.19-.06-5.51-.25-9.51-.25-2.47,0-9.91.26-13.31.26s-3.85-3.37-2.45-3.68c6.25-1.36,11-3.24,13-5A2,2,0,0,1,139.94,408.54Z" style="fill:#263238"></path><path d="M137.26,410a2.47,2.47,0,0,1-1.56-.41,1.18,1.18,0,0,1-.4-1,.57.57,0,0,1,.33-.53c.9-.47,3.52,1.14,3.81,1.33a.18.18,0,0,1,.09.18.2.2,0,0,1-.15.17A9.43,9.43,0,0,1,137.26,410Zm-1.21-1.68a.4.4,0,0,0-.24,0c-.06,0-.12.07-.13.23a.83.83,0,0,0,.26.69,4,4,0,0,0,2.89.14A8,8,0,0,0,136.05,408.29Z" style="fill:#407BFF"></path><path d="M139.33,409.68h-.09c-.84-.45-2.45-2.24-2.29-3.1a.63.63,0,0,1,.62-.5,1,1,0,0,1,.81.25c.94.76,1.14,3.09,1.15,3.2a.13.13,0,0,1-.2.15Zm-1.63-3.29h-.09c-.25,0-.27.14-.28.19-.1.53.93,1.88,1.77,2.51a4.62,4.62,0,0,0-1-2.54A.7.7,0,0,0,137.7,406.39Z" style="fill:#407BFF"></path><path d="M224.63,367l-16.84,2s-5.17-14.9-10.75-41.14c-2.21-10.36-7.48-26.31-9-44.81-16.9,10.78-26.68,19.07-32.3,26.85-9.95,13.73-6.94,25.87-7.34,47.26l-17.72-.53c-3.38-25.9-.68-41.42,5.57-54.25.42-.86.85-1.7,1.3-2.54a96.72,96.72,0,0,1,6.26-10l1.28-1.78c.71-1,1.45-2,2.19-3,11.11-14.66,24.71-28.65,26.58-38.87h43c.06,5.65-1.15,56.14,2.25,83.49C222.74,358.26,224.63,367,224.63,367Z" style="fill:#263238"></path><path d="M188.08,283c-16.9,10.78-26.68,19.07-32.3,26.85,4.85-16.11,31.38-36.6,31.38-36.6Z" style="opacity:0.2;isolation:isolate"></path><g style="opacity:0.30000000000000004"><path d="M159.28,290.39c-.55-.22-5.79-2.31-7.47-1.56s-1.18-.2-3-.4c-.95-.11-2.42-.27-3.72-.39.71-1,1.45-2,2.19-3Z" style="fill:#fff"></path><path d="M148.59,303.84c-1.77-.62-6.9-2.27-7.51-1-.74,1.58-2.32,2.57-2.72,1.19s-1.67-2.53-2.07-1.7c.42-.86.85-1.7,1.3-2.54Z" style="fill:#fff"></path><path d="M201.46,301.42l14.84-1.52s-2.18,4-5.14,4-3.76.4-5.34,0-3.56.75-4.36.18-4.3-.77-4.3-.77Z" style="fill:#fff"></path><path d="M201.66,318.08s8.71-2.35,14.64-1.36a5,5,0,0,0-3.49,1.36c-1.26,1.41-1.85,2.39-3.83,1.6s-2.37.76-3.36.28S203.84,318.25,201.66,318.08Z" style="fill:#fff"></path><path d="M210.76,297.13s-12.34-.25-16,2.77C194.74,299.9,206.8,297.93,210.76,297.13Z" style="fill:#fff"></path><polygon points="143.11 295.35 151.82 299.9 143.11 297.13 143.11 295.35" style="fill:#fff"></polygon></g><path d="M177.83,171.67s27.38-1.33,47.77,3.81c0,0-7,62.33-6.61,88.33l-50.25-1.75S170.72,198.28,177.83,171.67Z" style="fill:#407BFF"></path><polygon points="182.19 195.8 181.27 186.71 186.24 192.8 186.89 190.21 189.39 193.75 194.6 193.75 196.41 195.31 201.73 193.75 202.26 194.98 208.78 192.73 208.78 194.58 213.96 188.87 210.03 198.96 211.16 205.12 207.15 201.54 206.15 203.33 203.7 200.75 186.89 198.96 185.11 201.54 184.06 200.22 178.57 203.69 182.19 195.8" style="opacity:0.5"></polygon><polygon points="187.68 203.69 202.26 205.12 202.26 207.7 186.89 205.7 187.68 203.69" style="opacity:0.5"></polygon><path d="M210,172.72c-3.95,3.59-13.63,2.26-13.63,2.26s-6-1.65-4.77-3.54c3.56-.58,5.28-2.25,6-4.37A10.45,10.45,0,0,0,198,163c-.06-.76-.17-1.52-.3-2.27l12-8.86C208.08,157.73,206.17,168.48,210,172.72Z" style="fill:#b97964"></path><path d="M206.89,157.51c-.48,7.18-6.38,9.16-9.26,9.56A10.45,10.45,0,0,0,198,163Z" style="opacity:0.2;isolation:isolate"></path><path d="M188.08,134.83s-5.16,10.73-6.81,10.56c0,0,2.53.36,3.88-.86,0,0-1.05,1.19-.48,4.45l1.35-1.25s.11,4.71,4.07,6.69,5-19.59,5-19.59Z" style="fill:#263238"></path><path d="M215.61,139.29s4.45,6,7.71,6.11c0,0-1.48,3.68-4.55,4.07a8.47,8.47,0,0,0,5.44,1.4A7.13,7.13,0,0,1,216.3,155a3.29,3.29,0,0,0,2.57,1.59s-4.39,7.92-15.17,0S215.61,139.29,215.61,139.29Z" style="fill:#263238"></path><path d="M186.24,134.82s-1.7,11.17,4.23,15.47,5.93-16.5,5.93-16.5Z" style="fill:#263238"></path><path d="M188,153.78a25,25,0,0,0,1.05,3,11.89,11.89,0,0,0,.54,1.07,11.27,11.27,0,0,0,6.45,5.25,10.13,10.13,0,0,0,11.64-3.93,11.55,11.55,0,0,0,.7-1.13c2.48-4.35,1.65-8.88.84-16.23a11,11,0,0,0-16.79-8.28C186.19,137.41,186,146.87,188,153.78Z" style="fill:#b97964"></path><path d="M188,153.78a25,25,0,0,0,1.05,3,11.89,11.89,0,0,0,.54,1.07,11.27,11.27,0,0,0,6.45,5.25,10.13,10.13,0,0,0,11.64-3.93,11.55,11.55,0,0,0,.7-1.13,47.24,47.24,0,0,0-2.24-11.59L205,144.69a20.1,20.1,0,0,1-1.33,5s-3.75-.91-5.23,0-3,4.4-4.74,5A6.52,6.52,0,0,1,188,153.78Z" style="opacity:0.2;isolation:isolate"></path><path d="M192.67,147.24a23.47,23.47,0,0,1-2.13,6,3.75,3.75,0,0,0,3.19.05Z" style="fill:#a24e3f"></path><path d="M197.78,143.54a.43.43,0,0,1-.35.2,3.08,3.08,0,0,0-2.55,1.1.38.38,0,0,1-.53.1.38.38,0,0,1-.09-.53h0a3.77,3.77,0,0,1,3.18-1.44.38.38,0,0,1,.39.38h0A1.21,1.21,0,0,1,197.78,143.54Z" style="fill:#263238"></path><path d="M187.64,145.05a.31.31,0,0,1-.16-.16.38.38,0,0,1,.26-.47h0a3.8,3.8,0,0,1,3.44.67.38.38,0,0,1,0,.54h0a.4.4,0,0,1-.54,0h0a3.09,3.09,0,0,0-2.74-.49A.39.39,0,0,1,187.64,145.05Z" style="fill:#263238"></path><path d="M201.73,132.93v3.56a2.64,2.64,0,0,1,1.72,3.14c-.77,3.1,1.47,7.47,4,9,0,0-.09-1.29,1-1.12s1.63,6.87-.09,10.31c0,0,2.84-3.26,3.78-10.48.88-6.68.43-12.1-1.21-14.44Z" style="fill:#263238"></path><path d="M213.8,147.71a7.71,7.71,0,0,1-3.67,4.55c-2.36,1.27-4.13-.71-4-3.24.17-2.26,1.57-5.7,4.18-5.9S214.47,145.32,213.8,147.71Z" style="fill:#b97964"></path><path d="M195.94,147.24s.79,1,2.53-.7" style="fill:none;stroke:#263238;stroke-linecap:round;stroke-linejoin:round;stroke-width:0.5px"></path><path d="M188.24,147.88s1.36,1.41,2.3-.15" style="fill:none;stroke:#263238;stroke-linecap:round;stroke-linejoin:round;stroke-width:0.5px"></path><path d="M195.64,155.49a21.74,21.74,0,0,1,2.27,2.15c.15-.09.31-.19.46-.3,2.07-1.38,2.58-2.71,2.51-3.76a3.5,3.5,0,0,0-1-2.13,11.81,11.81,0,0,1-3.51,3.56C195.92,155.32,195.64,155.49,195.64,155.49Z" style="fill:#263238"></path><path d="M196.34,155l.69.62c1.95-1.31,3.14-2.49,3.36-3.5a3.23,3.23,0,0,0-.54-.68A11.81,11.81,0,0,1,196.34,155Z" style="fill:#fff"></path><path d="M198.37,157.34c2.07-1.38,2.58-2.71,2.51-3.76a7.87,7.87,0,0,0-2,2A3,3,0,0,0,198.37,157.34Z" style="fill:#de5753"></path><path d="M201.73,136.49c-5.31-.37-11.32,2.93-11.32,2.93a3.41,3.41,0,0,0-3.52-.13,10.27,10.27,0,0,0-2.87,3.05s-8-9.73,1.09-14.67,24.08-1.5,24.08-1.5-7.29-.35-9.48,2.75c0,0,4.77-3.1,14.25,0a3.63,3.63,0,0,0-1.46,1.89s6.17,1.62,6.73,10c0,0-5.18-1.28-12.26,3.18l-3.52-4.36S204.17,136.66,201.73,136.49Z" style="fill:#263238"></path><path d="M217.25,198l-1.26-2.1a1.27,1.27,0,0,0-1.73-.43l-.72.43a1.26,1.26,0,0,0-.38,1.82l1.45,2a1.25,1.25,0,0,0,1.72.31l.54-.36A1.25,1.25,0,0,0,217.25,198Z" style="fill:#fff"></path><path d="M217.25,198l-1.26-2.1a1.27,1.27,0,0,0-1.73-.43l-.72.43a1.26,1.26,0,0,0-.38,1.82l1.45,2a1.25,1.25,0,0,0,1.72.31l.54-.36A1.25,1.25,0,0,0,217.25,198Z" style="opacity:0.2;isolation:isolate"></path><path d="M190.41,170.89s2.42,19.7,24.24,25.25a104.53,104.53,0,0,1-3.72-23.86" style="fill:none;stroke:#263238;stroke-linecap:round;stroke-linejoin:round"></path><path d="M218.49,195.49l-2.2-1.07a1.26,1.26,0,0,0-1.68.57l-.38.76a1.26,1.26,0,0,0,.67,1.73l2.32.92a1.27,1.27,0,0,0,1.62-.68l.26-.6A1.25,1.25,0,0,0,218.49,195.49Z" style="fill:#fff"></path><path d="M210.7,231.6c-10-14.35-21.34-10-27.22-16.81-5.42-6.32-.77-19.86-11.4-27.23a1.36,1.36,0,0,0-2.13,1.38c1.19,5.33,3.1,15.27-7.48,18.59l-5.29,7.95c-1.71,5.33-10.84,6.8-14.75,1.17-.65-.94-2.24,0-2.14,1.19a11.7,11.7,0,0,0,5.89,9.44c3.91,2.28,6.72,3.75,8.33,6.07,6.26,9-2.15,18.79,7.27,32.31,6.22,8.94,22.22,8.56,35.73-.84S216.93,240.54,210.7,231.6Z" style="fill:#407BFF"></path><path d="M210.7,231.6c-10-14.35-21.34-10-27.22-16.81-5.42-6.32-.77-19.86-11.4-27.23a1.36,1.36,0,0,0-2.13,1.38c1.19,5.33,3.1,15.27-7.48,18.59l-5.29,7.95c-1.71,5.33-10.84,6.8-14.75,1.17-.65-.94-2.24,0-2.14,1.19a11.7,11.7,0,0,0,5.89,9.44c3.91,2.28,6.72,3.75,8.33,6.07,6.26,9-2.15,18.79,7.27,32.31,6.22,8.94,22.22,8.56,35.73-.84S216.93,240.54,210.7,231.6Z" style="fill:#fff;opacity:0.6000000000000001"></path><path d="M144.69,220.7a.66.66,0,0,0-.94.88c1.33,2.06,4,5,9.26,8,8.65,4.92,4.55,22,6.05,25.88s4.17-1.81,6.54-6.9c5.76-12.41,20.42-6.73,19.46-18-.52-6.23-5.49-6-9.25-11.39-4-5.69-2.34-10.73-5.28-11.17s-6,5.66-6,5.66l-4.93.5s.18,4.23-4.59,6.87A9.51,9.51,0,0,1,144.69,220.7Z" style="fill:#407BFF"></path><path d="M163.62,246.06a1.44,1.44,0,0,1-1.65-2.37,1.44,1.44,0,1,1,1.65,2.37Z" style="fill:#fff"></path><path d="M161.64,251.54a1.14,1.14,0,1,1-1.31-1.87,1.14,1.14,0,1,1,1.31,1.87Z" style="fill:#fff"></path><rect x="176.41" y="233.4" width="7.08" height="12.38" rx="0.84" transform="translate(273.75 -44.99) rotate(55.15)"></rect><path d="M172.17,219.88a.9.9,0,0,0-1.25-.23l-6.53,4.55a.9.9,0,1,0,1,1.48l6.53-4.55A.9.9,0,0,0,172.17,219.88Z" style="fill:#fff"></path><path d="M175.64,224.87a.89.89,0,0,0-1.25-.22l-6.53,4.54a.9.9,0,0,0,1,1.48l6.53-4.55A.89.89,0,0,0,175.64,224.87Z" style="fill:#fff"></path><path d="M178.24,228.91A.89.89,0,0,0,177,229l-5.11,6.1a.9.9,0,1,0,1.38,1.15l5.11-6.1A.9.9,0,0,0,178.24,228.91Z" style="fill:#fff"></path><path d="M110.5,139.1l-1-.6a.23.23,0,0,0-.33.09l-.24.41a.24.24,0,0,0,.09.33l.17.1-.66,1.14.68.39.66-1.14.18.11a.24.24,0,0,0,.33-.09l.24-.41A.26.26,0,0,0,110.5,139.1Z"></path><path d="M112.86,140.47l-1-.6a.25.25,0,0,0-.34.09l-.23.41a.24.24,0,0,0,.08.33l.18.1-.66,1.14.67.4.67-1.14.18.1a.24.24,0,0,0,.33-.09l.24-.41A.26.26,0,0,0,112.86,140.47Z"></path><path d="M115.22,141.84l-1-.6a.25.25,0,0,0-.34.09l-.23.41a.24.24,0,0,0,.08.33l.18.1-.66,1.14.67.4.67-1.14.18.1a.24.24,0,0,0,.33-.09l.24-.41A.26.26,0,0,0,115.22,141.84Z"></path><path d="M117.58,143.21l-1-.6a.25.25,0,0,0-.34.09l-.23.41a.24.24,0,0,0,.08.33l.18.11-.66,1.14.67.39.67-1.14.18.1a.24.24,0,0,0,.33-.09l.23-.41A.24.24,0,0,0,117.58,143.21Z"></path><path d="M119.94,144.58l-1-.6a.26.26,0,0,0-.34.09l-.23.41a.24.24,0,0,0,.08.33l.18.11-.66,1.14.67.39.67-1.14.18.1a.24.24,0,0,0,.33-.09l.23-.41A.24.24,0,0,0,119.94,144.58Z"></path><path d="M122.3,146l-1-.6a.27.27,0,0,0-.34.09l-.23.41a.24.24,0,0,0,.08.33l.18.11-.66,1.14.67.39.67-1.14.18.1a.24.24,0,0,0,.33-.09l.23-.41A.24.24,0,0,0,122.3,146Z"></path><rect x="176.41" y="233.4" width="7.08" height="12.38" rx="0.84" transform="translate(273.75 -44.99) rotate(55.15)" style="fill:#fff;opacity:0.2"></rect><path d="M168.45,215.08l-44.77-62.74-6,4.2L161,220.3a1.75,1.75,0,0,0,2.45.46l4.63-3.22A1.75,1.75,0,0,0,168.45,215.08Z"></path><path d="M168.45,215.08l-44.77-62.74-6,4.2L161,220.3a1.75,1.75,0,0,0,2.45.46l4.63-3.22A1.75,1.75,0,0,0,168.45,215.08Z" style="fill:#fff;opacity:0.2"></path><g style="opacity:0.2"><path d="M110.5,139.1l-1-.6a.23.23,0,0,0-.33.09l-.24.41a.24.24,0,0,0,.09.33l.17.1-.66,1.14.68.39.66-1.14.18.11a.24.24,0,0,0,.33-.09l.24-.41A.26.26,0,0,0,110.5,139.1Z" style="fill:#fff"></path><path d="M112.86,140.47l-1-.6a.25.25,0,0,0-.34.09l-.23.41a.24.24,0,0,0,.08.33l.18.1-.66,1.14.67.4.67-1.14.18.1a.24.24,0,0,0,.33-.09l.24-.41A.26.26,0,0,0,112.86,140.47Z" style="fill:#fff"></path><path d="M115.22,141.84l-1-.6a.25.25,0,0,0-.34.09l-.23.41a.24.24,0,0,0,.08.33l.18.1-.66,1.14.67.4.67-1.14.18.1a.24.24,0,0,0,.33-.09l.24-.41A.26.26,0,0,0,115.22,141.84Z" style="fill:#fff"></path><path d="M117.58,143.21l-1-.6a.25.25,0,0,0-.34.09l-.23.41a.24.24,0,0,0,.08.33l.18.11-.66,1.14.67.39.67-1.14.18.1a.24.24,0,0,0,.33-.09l.23-.41A.24.24,0,0,0,117.58,143.21Z" style="fill:#fff"></path><path d="M119.94,144.58l-1-.6a.26.26,0,0,0-.34.09l-.23.41a.24.24,0,0,0,.08.33l.18.11-.66,1.14.67.39.67-1.14.18.1a.24.24,0,0,0,.33-.09l.23-.41A.24.24,0,0,0,119.94,144.58Z" style="fill:#fff"></path><path d="M122.3,146l-1-.6a.27.27,0,0,0-.34.09l-.23.41a.24.24,0,0,0,.08.33l.18.11-.66,1.14.67.39.67-1.14.18.1a.24.24,0,0,0,.33-.09l.23-.41A.24.24,0,0,0,122.3,146Z" style="fill:#fff"></path></g><path d="M123.68,152.34a6.2,6.2,0,0,1-.76-3.15,1.42,1.42,0,0,0-.71-1.2l-14.09-7.82a2.09,2.09,0,0,0-2.83.78h0a2.1,2.1,0,0,0,.37,2.58,29.32,29.32,0,0,1,3.92,4.49,32.84,32.84,0,0,1,3.19,6,1.39,1.39,0,0,0,1.3.86,4.27,4.27,0,0,1,3.58,1.68Z" style="fill:#407BFF"></path><path d="M121.87,161.26a.32.32,0,0,1,.08-.43l4.26-3a.3.3,0,0,1,.42.08.29.29,0,0,1-.07.42l-4.27,3A.3.3,0,0,1,121.87,161.26Z" style="fill:#407BFF"></path><path d="M124.92,165.63a.29.29,0,0,1,.07-.42l4.27-3a.3.3,0,0,1,.42.07.32.32,0,0,1-.08.43l-4.26,3A.29.29,0,0,1,124.92,165.63Z" style="fill:#407BFF"></path><path d="M128,170a.3.3,0,0,1,.08-.42l4.26-3a.31.31,0,0,1,.35.5l-4.27,3A.31.31,0,0,1,128,170Z" style="fill:#407BFF"></path><path d="M131,174.38a.31.31,0,0,1,.07-.43l4.27-3a.31.31,0,0,1,.42.08.3.3,0,0,1-.08.42l-4.26,3A.3.3,0,0,1,131,174.38Z" style="fill:#407BFF"></path><path d="M134.05,178.75a.3.3,0,0,1,.08-.42l4.26-3a.29.29,0,0,1,.42.07.31.31,0,0,1-.07.43l-4.27,3A.3.3,0,0,1,134.05,178.75Z" style="fill:#407BFF"></path><path d="M137.1,183.12a.29.29,0,0,1,.07-.42l4.27-3a.3.3,0,0,1,.42.08.31.31,0,0,1-.08.42l-4.26,3A.3.3,0,0,1,137.1,183.12Z" style="fill:#407BFF"></path><path d="M140.14,187.5a.32.32,0,0,1,.08-.43l4.26-3a.3.3,0,0,1,.42.08.29.29,0,0,1-.07.42l-4.27,3A.3.3,0,0,1,140.14,187.5Z" style="fill:#407BFF"></path><path d="M143.19,191.87a.29.29,0,0,1,.07-.42l4.27-3a.3.3,0,0,1,.42.07.32.32,0,0,1-.08.43l-4.26,3A.29.29,0,0,1,143.19,191.87Z" style="fill:#407BFF"></path><path d="M146.23,196.24a.3.3,0,0,1,.08-.42l4.26-3a.31.31,0,0,1,.35.5l-4.27,3A.31.31,0,0,1,146.23,196.24Z" style="fill:#407BFF"></path><path d="M149.28,200.62a.31.31,0,0,1,.07-.43l4.27-3a.31.31,0,0,1,.42.08.3.3,0,0,1-.08.42l-4.26,3A.3.3,0,0,1,149.28,200.62Z" style="fill:#407BFF"></path><path d="M152.32,205a.3.3,0,0,1,.08-.42l4.26-3a.29.29,0,0,1,.42.07.31.31,0,0,1-.07.43l-4.27,3A.3.3,0,0,1,152.32,205Z" style="fill:#407BFF"></path><path d="M155.37,209.36a.29.29,0,0,1,.07-.42l4.27-3a.3.3,0,0,1,.42.08.31.31,0,0,1-.08.42l-4.26,3A.3.3,0,0,1,155.37,209.36Z" style="fill:#407BFF"></path><path d="M158.41,213.74a.32.32,0,0,1,.08-.43l4.26-3a.3.3,0,0,1,.42.08.29.29,0,0,1-.07.42l-4.27,3A.3.3,0,0,1,158.41,213.74Z" style="fill:#407BFF"></path><path d="M161.46,218.11a.29.29,0,0,1,.07-.42l4.27-3a.3.3,0,0,1,.42.07.32.32,0,0,1-.08.43l-4.26,3A.29.29,0,0,1,161.46,218.11Z" style="fill:#407BFF"></path><path d="M130.34,177.09c-2,10.2-.42,33.76,6.7,35.56s6.23-8,4-13-4-16.53-4-16.53Z" style="fill:#b97964"></path><path d="M129.09,183.57s-1.43-4-1.9-4.94,3.06-10.17,4-9.73,7.13,9,7.18,10.8-3.43,9.12-4.7,9.17S129.09,183.57,129.09,183.57Z" style="fill:#b97964"></path><path d="M223.92,191.37c-.06.65-.13,1.32-.2,2-.57,5.72-1.21,12.4-1.82,19.45-6.4-10,.73-23.1.73-23.1Z" style="opacity:0.2;isolation:isolate"></path><path d="M168.2,227.86c.59.57,7.08,6.4,7.84,6.65s12.64-6.65,12.64-6.65,53.41,5.79,54.73-6.26c.18-1.63-.62-6.25-2.1-11.95-.69-2.7-1.54-5.64-2.51-8.62h0c-.21-.64-.42-1.27-.64-1.91a96,96,0,0,0-5.42-13.06c-.46-.88-.92-1.71-1.4-2.49-1.9-3.18-3.91-5.53-5.93-6.47a10.56,10.56,0,0,0-.51,1.06c-.13.32-.29.72-.47,1.19-.23.65-.49,1.43-.75,2.37-.1.36-.21.75-.31,1.16q-.31,1.27-.6,2.85c-.09.49-.17,1-.25,1.55-.05.29-.09.59-.13.9s-.09.7-.13,1.07h0a70.91,70.91,0,0,0-.43,8s2.91,5.75,5.15,11h0c1.6,3.78,2.86,7.31,2.44,8.29-1.32,3.08-40.09,3.58-40.09,3.58s-7.12-3-8.07-2.22S167.6,227.3,168.2,227.86Z" style="fill:#b97964"></path><path d="M186.89,171.12s-11.64,18-15.25,32.21l-5.37,2.59s8.27-24,15.48-34.8Z" style="fill:#263238"></path><g style="opacity:0.4"><path d="M225.63,187.16a19.1,19.1,0,0,1,4.39,3.4l-.16.72-1.19-.49c-.82-.33-1.66-.62-2.52-.88l-1.17-.35,0,1.18-.16,4.19,0,.69.64.15a31.62,31.62,0,0,1,4.5,1.4,15.56,15.56,0,0,1,3.86,2.13l.05,1.57-1-.27a12.77,12.77,0,0,0-1.74-.24l-.49,0,.06.47.5,3.53,0,.18.17.06a22.18,22.18,0,0,1,4.77,2.27,16.47,16.47,0,0,1,4,3.46,16.8,16.8,0,0,0-3.86-3.71,23.21,23.21,0,0,0-4.57-2.49l-.24-2.88a10.46,10.46,0,0,1,1.14.24,10.2,10.2,0,0,1,1.53.53l.66.3,0-.74.07-2.52v-.24l-.19-.17a16.56,16.56,0,0,0-4.24-2.7c-.75-.35-1.51-.66-2.29-.94q-.83-.32-1.68-.57l.21-2.29c.41.16.81.34,1.21.52.75.35,1.52.73,2.23,1.12l1.16.63.37-1.32.73-2.57.15-.53-.37-.47a21.07,21.07,0,0,0-5.14-4.58c-1-.61-1.94-1.18-3-1.69l-.7-.35q-.31,1.27-.6,2.85l.09,0C223.81,186.18,224.73,186.65,225.63,187.16Z"></path><path d="M222.62,188.24c.29.09.59.19.86.3l-.34,7.83v.23l.21.06c1.85.61,3.72,1.23,5.51,2l.69,7.19v.06h0a30.29,30.29,0,0,1,4.84,2.05,29.35,29.35,0,0,0-4.73-2.18l-.48-7.28v-.12l-.11,0c-1.76-.8-3.56-1.45-5.37-2.11l.6-7.91,0-.29-.26-.12c-.42-.19-.8-.32-1.19-.47l-.39-.13c-.05.29-.09.59-.13.9Z"></path><path d="M221.83,197.22s2.91,5.75,5.15,11l1.26-1.86c-.46-2.11-.86-7.51-.86-7.51l-5.12-1.55v-8.07A70.91,70.91,0,0,0,221.83,197.22Z"></path><path d="M224.9,178.15a39.45,39.45,0,0,1,6.44,5.41c-1.9-3.18-3.91-5.53-5.93-6.47A10.56,10.56,0,0,0,224.9,178.15Z"></path><path d="M234,190.43l-1,4.9a29.28,29.28,0,0,1,5.17,3.78,96,96,0,0,0-5.42-13.06,60.08,60.08,0,0,0-8.31-6.71c-.23.65-.49,1.43-.75,2.37A23.42,23.42,0,0,1,234,190.43Z"></path><path d="M232.61,203c.4.23,5.7,3.24,8.7,6.68-.69-2.7-1.54-5.64-2.51-8.62h0l-2.45-1.76v4.88Z"></path></g></g></g></svg>