<svg xmlns="http://www.w3.org/2000/svg" viewBox="0 0 500 500"><g id="freepik--Floor--inject-230"><path id="freepik--floor--inject-230" d="M80.34,253.47c-93.65,54.07-93.65,141.74,0,195.81s245.5,54.07,339.15,0,93.66-141.74,0-195.81S174,199.4,80.34,253.47Z" style="fill:#fafafa"></path></g><g id="freepik--Shadows--inject-230"><path id="freepik--Shadow--inject-230" d="M38.54,268.79c-15.35,8.86-15.35,23.22,0,32.08s40.22,8.86,55.57,0,15.34-23.22,0-32.08S53.88,259.93,38.54,268.79Z" style="fill:#e0e0e0"></path><polygon id="freepik--shadow--inject-230" points="446.84 360.26 265.13 465.18 41.6 336.1 223.32 231.19 446.84 360.26" style="fill:#e0e0e0"></polygon><path id="freepik--shadow--inject-230" d="M376.29,390.12c-24.48,14.62-24.48,38.33,0,52.95s64.16,14.62,88.64,0,24.48-38.33,0-52.95S400.77,375.5,376.29,390.12Z" style="fill:#e0e0e0"></path><path d="M55.75,438c-17-10.87-17-28.48,0-39.35s44.67-10.86,61.72,0,17,28.48,0,39.35S72.79,448.82,55.75,438Z" style="fill:#e0e0e0"></path></g><g id="freepik--Plant--inject-230"><g id="freepik--Pot--inject-230"><path d="M91.66,287.15c13.55-13.82,21.51-48.35,8.29-59.32H32.7c-13.22,11-5.27,45.48,8.28,59.31.11.13.25.26.37.38l.47.46c.38.37.78.73,1.22,1.09l.33.25c.33.26.66.52,1,.77a17.73,17.73,0,0,0,1.75,1.12c11.15,6.44,29.22,6.44,40.37,0h0a19.92,19.92,0,0,0,1.76-1.12c.34-.24.64-.48,1-.72l.4-.32c.42-.34.82-.69,1.19-1.05l.53-.52Z" style="fill:#ebebeb"></path><path d="M38.54,223.42c-15.35,8.86-15.35,23.22,0,32.08s40.22,8.86,55.57,0,15.34-23.22,0-32.08S53.88,214.56,38.54,223.42Z" style="fill:#fafafa"></path><path d="M49.42,229.7c-9.34,5.39-9.34,14.13,0,19.52s24.47,5.39,33.81,0,9.33-14.13,0-19.52S58.75,224.31,49.42,229.7Z" style="fill:#ebebeb"></path><path d="M83.23,239c-9.34-5.39-24.48-5.39-33.81,0a15.53,15.53,0,0,0-5.59,5.13,15.53,15.53,0,0,0,5.59,5.13c9.33,5.39,24.47,5.39,33.81,0a15.53,15.53,0,0,0,5.59-5.13A15.53,15.53,0,0,0,83.23,239Z" style="fill:#e0e0e0"></path><path d="M63.83,247.05a27.2,27.2,0,0,1-19.2-11,79.48,79.48,0,0,1-5.38-8.25c-5.65-10-6.69-23.36-3.77-25s14.8,11.69,14.8,11.69a72.26,72.26,0,0,1-1.25-17c.5-8.9,2.67-17,5.21-18.61s8.25,9.59,10.69,17.72,3.91,14.82,3.91,14.82,1.67-11,4.38-18.71c3-8.45,5.65-10.35,7.74-9.52s3.46,4.77,4.07,16a112,112,0,0,1-.51,16.09s4.19-4.61,8.84-9.08c5.11-4.91,7.3-5.58,8.76-4.65s1.86,8.57-6.05,22.88a88.59,88.59,0,0,1-8.26,12.37,27.32,27.32,0,0,1-23.54,10.29Z" style="fill:#BA68C8"></path><path d="M63.83,247.05a27.2,27.2,0,0,1-19.2-11,79.48,79.48,0,0,1-5.38-8.25c-5.65-10-6.69-23.36-3.77-25s14.8,11.69,14.8,11.69a72.26,72.26,0,0,1-1.25-17c.5-8.9,2.67-17,5.21-18.61s8.25,9.59,10.69,17.72,3.91,14.82,3.91,14.82,1.67-11,4.38-18.71c3-8.45,5.65-10.35,7.74-9.52s3.46,4.77,4.07,16a112,112,0,0,1-.51,16.09s4.19-4.61,8.84-9.08c5.11-4.91,7.3-5.58,8.76-4.65s1.86,8.57-6.05,22.88a88.59,88.59,0,0,1-8.26,12.37,27.32,27.32,0,0,1-23.54,10.29Z" style="opacity:0.15"></path><path d="M50.67,186.21A60.32,60.32,0,0,0,49,197.47a72.26,72.26,0,0,0,1.25,17l5.9,6.14S50.3,201.05,50.67,186.21Z" style="opacity:0.15"></path><path d="M99.19,201.65a24.86,24.86,0,0,0-5.83,4.55c-4.65,4.47-8.84,9.08-8.84,9.08a57.06,57.06,0,0,1-1.33,8.44C91.85,218.72,99.19,201.65,99.19,201.65Z" style="opacity:0.15"></path><path d="M72.14,204.93c1.48-9.38,3.64-17.14,5.27-20.55h0c-1.31,1.42-2.74,4-4.24,8.28-2.71,7.72-4.38,18.71-4.38,18.71L70.38,219S71,212.27,72.14,204.93Z" style="opacity:0.15"></path></g></g><g id="freepik--Paper--inject-230"><g id="freepik--paper--inject-230"><path d="M88.86,317c.5,4.66-.88,8.06-3.29,9.45a6,6,0,0,1-5.51,0c-6.8-3-12.92-13.05-13.65-22.54-.56-7.33,1.57-12.66,5.28-14.8,2.3-1.33,5.21-1.43,8.47,0,5.31,2.31,10.64,7.48,14.64,13.89l-9.56,5.51S88.17,310.54,88.86,317Z" style="fill:#e0e0e0"></path><path d="M88.86,317c.5,4.66-.88,8.06-3.29,9.45a6,6,0,0,1-5.51,0c-6.8-3-12.92-13.05-13.65-22.54-.56-7.33,1.57-12.66,5.28-14.8,2.3-1.33,5.21-1.43,8.47,0,5.31,2.31,10.64,7.48,14.64,13.89l-9.56,5.51S88.17,310.54,88.86,317Z" style="opacity:0.1"></path><path d="M267,214.24c-.69-6.45-3.62-8.48-3.62-8.48L85.24,308.5s2.94,2,3.62,8.49c.5,4.66-.88,8.06-3.28,9.45L263.75,223.68C266.13,222.28,267.5,218.89,267,214.24Z" style="fill:#e0e0e0"></path><path d="M267,214.24c-.69-6.45-3.62-8.48-3.62-8.48L85.24,308.5s2.94,2,3.62,8.49c.5,4.66-.88,8.06-3.28,9.45L263.75,223.68C266.13,222.28,267.5,218.89,267,214.24Z" style="opacity:0.30000000000000004"></path><path d="M101.49,324.34h0c0-14.51-10.7-30.61-21.33-35.23-8.51-3.69-14.66,2.94-13.75,14.82.73,9.49,6.84,19.59,13.65,22.54,5.45,2.36,9.61-1.9,8.8-9.48-.69-6.45-3.62-8.48-3.62-8.48l-1.76,2.55-.1-.07c.08.06,1.9,1.6,2.4,6.33.37,3.53-.56,5.57-1.56,6.31a2.84,2.84,0,0,1-2.92,0c-5.76-2.5-11.16-11.63-11.8-19.94-.42-5.49.83-9.83,3.35-11.63a4.69,4.69,0,0,1,2.81-.88,8.38,8.38,0,0,1,3.27.78c9.18,4,19.44,18.68,19.44,32.38" style="fill:#455a64"></path><path d="M443.23,353.2,265.09,456.05s-95.21-54.78-118.92-68.46-38.29-35.3-46.6-60C95,313.89,89.26,297.47,80.16,292.55a9.7,9.7,0,0,0-4.49-1.36,7.81,7.81,0,0,0-3.91,1l6.59-3.8a12.82,12.82,0,0,1,1.88.66c5.31,2.3,9.51,7.66,13,14.17s6.13,14.16,8.37,21c7.11,21.81,20.91,46.48,44.61,60.17s118.92,68.46,118.92,68.46L443.23,350.07Z" style="fill:#455a64"></path><path d="M324.31,281.6c-23.71-13.69-37.5-38.36-44.62-60.16-4.49-13.77-10.72-30.5-21.32-35.11-3.26-1.41-6.18-1.31-8.48,0L71.75,289.09c2.3-1.33,5.22-1.43,8.47,0h0c10.6,4.6,16.83,21.45,21.32,35.21,7.12,21.81,20.91,46.48,44.62,60.16s118.92,68.47,118.92,68.47h0L443.23,350.07S348,295.29,324.31,281.6Z" style="fill:#f5f5f5"></path><path d="M258.31,186.37c-3.26-1.42-6.18-1.32-8.48,0L71.69,289.12c2.3-1.32,5.22-1.42,8.47,0,4.23,1.83,8.47,5.49,12,10.14L270.34,196.5C266.77,191.86,262.54,188.2,258.31,186.37Z" style="fill:#fafafa"></path><path d="M253.86,186.31a10.46,10.46,0,0,1,4.11.94c9.74,4.23,15.74,19.08,20.77,34.5,5.21,16,18,45.08,45.07,60.72C345.61,295.05,429,343,441.23,350.07L265.09,451.77c-7.49-4.31-95.87-55.16-118.42-68.18-26.5-15.3-39-43.91-44.17-59.61-5.2-15.93-11.44-31.29-21.88-35.82l-.19-.08h0a13.49,13.49,0,0,0-3.32-.93l173.28-99.93a6.83,6.83,0,0,1,3.47-.91m0-1a7.81,7.81,0,0,0-4,1L71.75,289.09a7.83,7.83,0,0,1,4-1,11.16,11.16,0,0,1,4.5,1h0c10.6,4.6,16.83,21.45,21.32,35.21,7.12,21.81,20.91,46.48,44.62,60.16s118.92,68.47,118.92,68.47h0L443.23,350.07S348,295.29,324.31,281.6s-37.5-38.36-44.62-60.16c-4.49-13.77-10.72-30.5-21.32-35.11a11.42,11.42,0,0,0-4.51-1Z" style="fill:#e0e0e0"></path><path d="M184.18,297a18,18,0,0,0-1.31-3.22c-1-1.89-2.12-3.69-3.11-5.57a7.92,7.92,0,0,0,1.12-3.36,7.83,7.83,0,0,0-.3-4.4c-.42-.88-1.37-1.87-2.39-1.19s-1,2.78-.82,3.93a14.61,14.61,0,0,0,1.63,4.83,3.33,3.33,0,0,1-2,1.23c-1.19.23-2.66-.11-3-1.43-.06-.25-.49-.46-.59-.13l-1.14,4.13-2.19-1.13a.22.22,0,0,0-.35.2,9.78,9.78,0,0,1-1.81,5.6,11,11,0,0,1-2.31-1.71c-.1-.09-.37-.15-.39.05-.3,2.3-.69,5-2.89,6.24a2.71,2.71,0,0,1-3.1-.07,2.27,2.27,0,0,1-.68-1c.08-.58.15-1.15.23-1.72,0-.29-.4-.65-.6-.34a2.26,2.26,0,0,0-.29,1.8c-.16,1.11-.33,2.23-.5,3.34-.19,1.3-.57,3.66-2.45,2.47a8.91,8.91,0,0,1-2.76-3.35,11.51,11.51,0,0,1-1.25-4.17c0-.32-.7-.58-.71-.15a37.53,37.53,0,0,1-.76,6.77,29.93,29.93,0,0,1-1.77,6.16c-.33.77-.89,1.72-1.84,1.7a1.53,1.53,0,0,1-.63-.15c.24-.71.45-1.42.61-2.11a19.27,19.27,0,0,0,.44-3.47,6.15,6.15,0,0,0-.44-2.91c-.59-1.28-2.35-2.77-3.54-1.19a5.48,5.48,0,0,0-.74,2.92,9.86,9.86,0,0,0,.38,3.2,7.92,7.92,0,0,0,2.19,3.74c-1.08,2.84-2.9,5.59-5.58,6.95-3.48,1.76-7.4-.11-9.39-3.21a12.68,12.68,0,0,1-1.72-4.6,13.75,13.75,0,0,0,6.83-3,19.24,19.24,0,0,0,6.21-11.09c.36-1.74.93-4.25-1-5.28-1.67-.89-4-.31-5.65.43-4.1,1.85-6.37,6-7.18,10.24a24.6,24.6,0,0,0-.24,8.09,11.82,11.82,0,0,1-1.46,0,11.22,11.22,0,0,1-2.57-.42c-.36-.1-.28.44,0,.53a10.94,10.94,0,0,0,4.16.56,14,14,0,0,0,1.73,4.64c2.09,3.41,6.36,5.64,10.28,4.08,3.1-1.24,5.21-4.26,6.44-7.41a2.71,2.71,0,0,0,.7.21c2.21.36,3-2.18,3.52-3.81a35.58,35.58,0,0,0,1.59-7.56c0-.41.06-.83.08-1.24a12.64,12.64,0,0,0,1,2.15,8.45,8.45,0,0,0,3.29,3.49c1.48.68,2.44-.38,2.73-1.76.25-1.21.42-2.44.58-3.67a3,3,0,0,0,2.82,1.21c3.19-.42,4.05-3.93,4.43-6.62a11.76,11.76,0,0,0,2.3,1.65.23.23,0,0,0,.31-.05,10.3,10.3,0,0,0,2-5.68l2.14,1.11a.23.23,0,0,0,.35-.13l1-3.67c1.08,1.58,3.78,1.58,5.18.33a3.22,3.22,0,0,0,.32-.32c.41.75.84,1.5,1.27,2.23a38.13,38.13,0,0,1,2.34,4.48,12.63,12.63,0,0,1,.74,2.33,9.69,9.69,0,0,1,.32,2.88c0,.2.26.39.29.12a13.3,13.3,0,0,0,.19-1.89A8,8,0,0,0,184.18,297Zm-56.76,7.61c.48-3.83,2-7.66,5.13-10a9,9,0,0,1,5-1.86c.94,0,2,.11,2.35,1.13a5.91,5.91,0,0,1-.1,2.77A19.78,19.78,0,0,1,134.87,307a13.56,13.56,0,0,1-7.5,4A24.43,24.43,0,0,1,127.42,304.65Zm16.33,6.15a8.88,8.88,0,0,1-1.16-5.7c.1-.67.3-2.32,1.28-2.24.68.05,1.14,1.06,1.33,1.6a7.12,7.12,0,0,1,.17,2.87,19.5,19.5,0,0,1-.48,3c-.12.47-.26.95-.42,1.43A6.36,6.36,0,0,1,143.75,310.8Zm35.5-23.56a13.29,13.29,0,0,1-1.15-3.37,8.8,8.8,0,0,1-.16-1.78c0-.67,0-1.66.58-2.13,1.17-1,1.83,1.4,1.89,2.17a11.71,11.71,0,0,1-.5,4.16,5.48,5.48,0,0,1-.53,1.21Z" style="fill:#37474f"></path><path d="M234.22,255.37a3.87,3.87,0,0,1-3.12,2.86l0-.18a9.59,9.59,0,0,0,0-3.92c-.26-.88-.93-2-2-1.86-1.25.14-1.78,1.73-1.77,2.8a4.17,4.17,0,0,0,1.61,3.21,3.42,3.42,0,0,0,1.19.56,7.21,7.21,0,0,1-3.48,5.18,4.46,4.46,0,0,1-3.1.48l-.24-.09c.11-.33.2-.66.28-1a18.37,18.37,0,0,0-.13-8.18c-.24-1.06-.55-2.52-1.83-2.73-1.1-.17-2,.83-2.49,1.7a6.75,6.75,0,0,0-.47,4,10.3,10.3,0,0,0,1.51,4.32,6.44,6.44,0,0,0,2.28,2.27,8.49,8.49,0,0,1-2.55,3.64c-1.34,1.06-4.34,1.94-5.27-.1-.1-.22-.56-.33-.45,0a1.54,1.54,0,0,1-.28,1.4c-.81-1-1.61-1.95-2.36-3-.12-.17-.5-.23-.41.09a3.47,3.47,0,0,1-1.61,4,2.57,2.57,0,0,1-3.61-1.53l0-.13c-.09-.34-.66-.42-.57,0a7.45,7.45,0,0,1,.17,4.05,2.76,2.76,0,0,1-2,1.86c-1.23.17-1.92-.77-2.32-1.87a10.56,10.56,0,0,0-.51-2.1c-.11-.31-.72-.44-.66,0a10.62,10.62,0,0,0,.48,2,7.77,7.77,0,0,1-2,6.75,6.21,6.21,0,0,1-6.42,1.35,14.17,14.17,0,0,0,.91-1.88,7.46,7.46,0,0,0,.55-4.53c-.25-.93-1.17-2.39-2.36-2.07a3.24,3.24,0,0,0-1.43,1.24,4.75,4.75,0,0,0-.78,1.8,5.58,5.58,0,0,0,.62,4,4.64,4.64,0,0,0,1.62,1.67,14.93,14.93,0,0,1-5.67,5.37c-.19.1,0,.53.18.43a14.57,14.57,0,0,0,6.08-5.48,6.71,6.71,0,0,0,5.89-.33,7.48,7.48,0,0,0,3.59-6.77,2.58,2.58,0,0,0,2.33,1.16,3.1,3.1,0,0,0,2.47-2,5.49,5.49,0,0,0,.21-3.06,3.32,3.32,0,0,0,3.16.82,3.62,3.62,0,0,0,2.34-3.88c.69.89,1.38,1.77,2.1,2.64a.22.22,0,0,0,.33,0,1.88,1.88,0,0,0,.55-1.18c1.18,1.28,3.32,1.1,4.84.31A8.13,8.13,0,0,0,223.1,265c.05,0,.08,0,.12,0a5,5,0,0,0,3.5-.21c2.49-1,3.75-3.42,4.26-5.94a3.52,3.52,0,0,0,3.7-3.32C234.68,255.43,234.29,255,234.22,255.37Zm-43.46,25a4.71,4.71,0,0,1-.1-6.41c.43-.43.94-.79,1.52-.38a2.44,2.44,0,0,1,.81,1.62,7.69,7.69,0,0,1-.76,4.15,16.11,16.11,0,0,1-.77,1.56A4.51,4.51,0,0,1,190.76,280.33ZM221,262.48a9.46,9.46,0,0,1-1.44-3.54,7.42,7.42,0,0,1,.07-3.8c.29-.79,1-1.92,2-2,1.14,0,1.31,2.07,1.46,2.89a18,18,0,0,1,.13,6.38,15.28,15.28,0,0,1-.43,1.71A5.27,5.27,0,0,1,221,262.48Zm7.27-6.71a2.67,2.67,0,0,1,.8-2.6c1-.68,1.43,1.17,1.48,1.82a14.67,14.67,0,0,1-.22,3.17,2.38,2.38,0,0,1-.61-.23A3,3,0,0,1,228.22,255.77Z" style="fill:#37474f"></path><path d="M263.26,236.47c-.46,2.68-3.71,4.86-6.28,3.47-.16-.09-.47-.07-.47.18,0,.5,0,1,0,1.49a2.94,2.94,0,0,1-.12,1.39.69.69,0,0,1-1,.11,2.41,2.41,0,0,1-.63-1.3c-.12-.38-.88-.52-.73,0,.46,1.47.07,3.44-1.51,4.05a2.78,2.78,0,0,1-.75.15,19.69,19.69,0,0,0,.07-2.76,2.23,2.23,0,0,0-1.29-2.18,1.23,1.23,0,0,0-1.72,1.15,4.62,4.62,0,0,0,.64,3.49,2.79,2.79,0,0,0,1.46.89,13.8,13.8,0,0,1-.64,2.93,7.39,7.39,0,0,1-2.67,3.75,2.56,2.56,0,0,1-2.77.33A4.93,4.93,0,0,1,243,251.5c0-.09-.08-.18-.12-.27a12,12,0,0,0,1.33-2.34,11.84,11.84,0,0,0,.84-3.36,4.47,4.47,0,0,0-.51-3.11,1.83,1.83,0,0,0-2.11-.7c-.93.42-1.09,2-1.22,2.83a11.79,11.79,0,0,0,1,6.65,11.27,11.27,0,0,1-2.21,2.26c-.2.15,0,.61.24.47a12.4,12.4,0,0,0,2.26-2.14c1,1.72,2.61,3.36,4.72,2.52s3.21-2.84,3.81-4.76a16.61,16.61,0,0,0,.62-2.87,2.17,2.17,0,0,0,.36,0,3.24,3.24,0,0,0,2.88-3.19,1.5,1.5,0,0,0,1.33.47,1.06,1.06,0,0,0,1-.95,11.52,11.52,0,0,0,.05-2.28c2.78,1.07,6.5-.92,6.34-4.11C263.58,236.49,263.31,236.2,263.26,236.47Zm-21.47,9.69a10.88,10.88,0,0,1,.38-2.66c.13-.5.28-1.08.84-1.21a1.14,1.14,0,0,1,1.28.65,5.45,5.45,0,0,1,.13,3.15,11.32,11.32,0,0,1-.82,2.79,12.58,12.58,0,0,1-1,1.72A11.11,11.11,0,0,1,241.79,246.16Zm8.54-.5a2.78,2.78,0,0,1-.84-2.57,1.91,1.91,0,0,1,.26-1.25c.42-.46,1-.07,1.21.41a6.58,6.58,0,0,1,.1,2.58c0,.37-.05.73-.08,1.09A1.85,1.85,0,0,1,250.33,245.66Z" style="fill:#37474f"></path><path d="M191.49,320.56a35.36,35.36,0,0,0,.38-4,17.83,17.83,0,0,0-.67-6.08c-.43-1.32-1.48-2.86-2.93-3.16s-2.41,1.14-2.34,2.51a13.42,13.42,0,0,0,1.73,4.78c1,2,2.07,4,3.15,5.94-.39,2.65-1.22,5.37-3.45,6.85a4.77,4.77,0,0,1-4.13.7c.14-.28.28-.56.4-.86a9,9,0,0,0,.59-2.28,5.21,5.21,0,0,0-.06-2.19c-.51-1.43-2.31-.4-2.86.44a3.92,3.92,0,0,0-.21,3.53,3.44,3.44,0,0,0,1.23,1.54,1.62,1.62,0,0,1-.1.18,10.05,10.05,0,0,1-3.24,3.15,7.91,7.91,0,0,1-4.4,1.24,2.21,2.21,0,0,1-1.05-.61l-1.3-1c-.13-.1-.41-.14-.45.09-.28,1.73-.56,3.47-.85,5.2l-2.39-1.88c-.18-.15-.49-.08-.47.19a7.12,7.12,0,0,1-1.16,4.71,1.48,1.48,0,0,1-1-1.67c.06-.35-.54-.73-.66-.3-.49,1.76,0,3.56-.31,5.33-.22,1.27-1.36,3.07-2.87,2.77-.89-.18-1.43-1.14-1.85-1.85a14.36,14.36,0,0,1-1.09-2.27,14.76,14.76,0,0,1-.76-3.2c0-.68-.07-1.36-.12-2,0-.34-.6-.63-.61-.17a15.24,15.24,0,0,0,.16,2.62,11.84,11.84,0,0,1-1.08,6,6.4,6.4,0,0,1-5.35,3.63c-.13,0-.11.28,0,.29a6.19,6.19,0,0,0,5.86-3.62,10.6,10.6,0,0,0,1.08-4.05c.1.32.2.64.33.95a14.78,14.78,0,0,0,1.29,2.5,3.91,3.91,0,0,0,1.94,1.78c1.5.49,2.85-.79,3.41-2.08.66-1.52.33-3.21.4-4.83a2.44,2.44,0,0,0,1.41.92.24.24,0,0,0,.27-.11,7.62,7.62,0,0,0,1.37-4.61l2.28,1.79c.14.11.42.12.46-.11.28-1.74.55-3.49.83-5.23l.91.68a4,4,0,0,0,1.12.77,5.29,5.29,0,0,0,2.23-.18,9.76,9.76,0,0,0,4.27-2.2,10.67,10.67,0,0,0,2.06-2.48,5.68,5.68,0,0,0,5.56-1.15,9.19,9.19,0,0,0,2.57-4.78c.1-.4.18-.81.26-1.22.56,1,1.1,2.07,1.61,3.12a32.57,32.57,0,0,1,2.08,5.3,16.35,16.35,0,0,1,.74,5.64,1.56,1.56,0,0,1-1.91,1.46,3.37,3.37,0,0,1-2.19-1.3,4.11,4.11,0,0,1,.09-5.27,4.47,4.47,0,0,1,2.12-1.4c.36-.11,0-.72-.31-.63a4.77,4.77,0,0,0-2.8,7,4.44,4.44,0,0,0,3.3,2.27,2.08,2.08,0,0,0,2.38-2.25C196.55,330.11,194.05,325.22,191.49,320.56Zm-10,4a2.53,2.53,0,0,1,.9-1.44c.16-.12.53-.37.74-.34a1.06,1.06,0,0,1,.5.43,1.13,1.13,0,0,1,0,.26c0,.23,0,.46,0,.69a8.55,8.55,0,0,1-1.06,3.65A3.07,3.07,0,0,1,181.5,324.57Zm7.92-7.76c-.82-1.54-1.6-3.11-2.27-4.72-.47-1.16-1.22-3.69.66-4.06a2.23,2.23,0,0,1,2,1.11,6,6,0,0,1,1,2.41,20.21,20.21,0,0,1,.3,6.11c0,.62-.11,1.26-.19,1.92C190.43,318.65,189.91,317.72,189.42,316.81Z" style="fill:#37474f"></path><path d="M250.11,297l-1.27.12v0c-.49-2.22-1-4.44-1.5-6.66-.24-1.06-.43-2.15-.72-3.19a2.52,2.52,0,0,0-1.07-1.61c-1.66-.86-3.13,1.89-3.65,3a9.66,9.66,0,0,0-.73,5.25,4.26,4.26,0,0,0-2-.61.19.19,0,0,0-.2.16c-.18.63-.37,1.25-.55,1.88a1.1,1.1,0,0,0-1-.1c-.79.3-.82,1.21-.73,2a5.16,5.16,0,0,1-2.15-1.42c-.17-.2-.53-.2-.52.12a8.17,8.17,0,0,1-.39,2.78,6.35,6.35,0,0,1-2.69-3c-.13-.28-.69-.47-.66,0,.21,2.85.36,6.62-2.63,8.17a3.09,3.09,0,0,1-4-.87s0-.07,0-.11c.5-1.49,1.22-3.48.71-5-.32-1-1.58-2-2.66-1.4-1.28.7-.59,2.66-.25,3.7a9.88,9.88,0,0,0,1.51,3,9.06,9.06,0,0,1-1,2.15,3.27,3.27,0,0,1-1.33,1.25c-.86.41-1.23-.15-1.76-.74a1.73,1.73,0,0,0-2.66.09c-.86.93-.64,2.22-.25,3.36a2,2,0,0,0-1.72.14,2.84,2.84,0,0,0-1.19,2.35,2.56,2.56,0,0,0-4.7,1.66,3.87,3.87,0,0,0-6.72,3c0,.22.29.29.28,0a3.72,3.72,0,0,1,3.29-3.76,3.61,3.61,0,0,1,3.25,1.59,3.26,3.26,0,0,0,.54,1.18c.15.2.55.22.46-.12a4.11,4.11,0,0,0-.5-1.11,2.53,2.53,0,0,1,1-2.68,2,2,0,0,1,3.09,1.44c0,.31.57.59.56.17a4.46,4.46,0,0,1,.57-2.73c.42-.56,1.68-1.07,2.15-.27.18.32.65.28.48-.14-.38-.95-.88-2.16-.4-3.16.3-.63,1.2-1.29,1.91-.89.35.19.53.62.81.89a1.62,1.62,0,0,0,.76.44,1.93,1.93,0,0,0,1.58-.41,6.53,6.53,0,0,0,2-3.19,3.73,3.73,0,0,0,3.5,1.25,5,5,0,0,0,3.45-3A10.41,10.41,0,0,0,231,297a7.51,7.51,0,0,0,2.76,2.42c.1.05.3,0,.35-.1a9,9,0,0,0,.49-2.72,5.91,5.91,0,0,0,2.44,1.31.22.22,0,0,0,.28-.25,2.56,2.56,0,0,1,0-1.45c.11-.22.82-.77,1-.33.07.22.48.49.58.14.2-.71.41-1.41.61-2.11a3.5,3.5,0,0,1,1.85.72c.21.17.47.06.41-.22a9.06,9.06,0,0,1,.34-4.59,8.77,8.77,0,0,1,1-2,4,4,0,0,1,1.67-1.73c.93-.33,1.21.72,1.38,1.41.22.95.42,1.91.64,2.86l1.17,5.26c.11.47.23,1,.34,1.5-2.57.37-5.29,1.27-6.12,3.93a4.43,4.43,0,0,0,.37,3.66,3.14,3.14,0,0,0,3.35,1.31,4.61,4.61,0,0,0,3.15-3,10,10,0,0,0,0-5.31c.47-.06.93-.1,1.37-.13S250.46,297,250.11,297Zm-28,3.32c-.3-.86-1.23-3.4.4-3.46,2-.07,1.36,2.79,1.09,3.92-.13.52-.27,1.06-.44,1.61A8.78,8.78,0,0,1,222.16,300.32Zm24.65,4.56a2.7,2.7,0,0,1-3.58-.08,3.46,3.46,0,0,1-.53-3.12c.67-2.57,3.26-3.45,5.71-3.81C248.92,300.43,249.11,303.25,246.81,304.88Z" style="fill:#37474f"></path><path d="M283,265.27c0-.25-.51-.48-.51-.11,0,1.47.13,3.31-.86,4.53a2.28,2.28,0,0,1-3.31.53,1.9,1.9,0,0,0-1.25-.65c-.58,0-.85.55-1.1,1l-2.36,4.18a4.62,4.62,0,0,0-1.95-.77c-.19,0-.3.13-.29.31a3,3,0,0,1-.24,1.42,18.14,18.14,0,0,1-2.25-1.85c-.14-.13-.46-.31-.62-.09-.71,1-.55,2.3-1.11,3.37a1.16,1.16,0,0,1-1.88.35,3.83,3.83,0,0,1-.91-2.42c-.06-.36-.79-.57-.79-.09,0,2.5,0,5.25-1.62,7.32a4.14,4.14,0,0,1-6.08.81,18.67,18.67,0,0,0,2.49-3.21,3.46,3.46,0,0,0,.19-3.47,2.24,2.24,0,0,0-2.88-.93c-2.44,1.1-2.58,4.45-1.46,6.53a5.74,5.74,0,0,0,.69,1c-1.2,1.3-2.46,2.54-3.7,3.83-.15.16.06.55.27.4a24.32,24.32,0,0,0,3.81-3.5l.17-.19a4.78,4.78,0,0,0,5.65.64c2.42-1.46,3.05-4.18,3.21-6.83a3.25,3.25,0,0,0,.36.47,2.15,2.15,0,0,0,2.38.58c1.4-.65,1.13-2.57,1.72-3.81a19.45,19.45,0,0,0,2.43,1.91.32.32,0,0,0,.46-.1,3.4,3.4,0,0,0,.42-1.7,3.6,3.6,0,0,1,1.49.71c.15.12.4.22.52,0,.86-1.51,1.7-3,2.56-4.54a1.8,1.8,0,0,1,.31-.48c.33-.28.55-.11.82.09s.44.41.69.57a2.34,2.34,0,0,0,1.44.37,3.35,3.35,0,0,0,2.58-1.66A7.3,7.3,0,0,0,283,265.27ZM255.2,276.79c.81-.87,2.3-1.26,2.86.11s-.3,2.57-1,3.56a26.58,26.58,0,0,1-1.72,2.07C254,280.94,253.74,278.35,255.2,276.79Z" style="fill:#37474f"></path><path d="M225.51,352.26a17.9,17.9,0,0,0,3.94-4.21c.82-1.42,1.42-3.68-.28-4.72-.45-.27-.63.33-.24.58.91.58.58,2,.24,2.84a8.18,8.18,0,0,1-1.43,2.25c-1.24,1.43-2.78,2.56-4.13,3.88a10.71,10.71,0,0,0-2.41,3.23,47,47,0,0,1-7.13-5,9.69,9.69,0,0,0-2.54-3.09.26.26,0,0,0-.39.34,14.39,14.39,0,0,0,2.42,3c.77,1.65.82,3.5-.78,4.86a3.06,3.06,0,0,1-3.42.59c-.52-.3-.93-.92-1.59-.92a.85.85,0,0,0-.78.47,5.39,5.39,0,0,0-1.8-.88c-.21-.06-.32.14-.27.32l1.14,4a12.36,12.36,0,0,1-4.47-1.6c-.21-.13-.5-.05-.47.24a5.93,5.93,0,0,0,1.11,2.37c.42.66.94,1.9.15,2.52s-2.53-.63-3.24-1.15a13.82,13.82,0,0,1-2.47-2.3c-.3-.36-.87-.13-.56.33,2.06,3.05,4.62,7.36,1.62,10.7a3.46,3.46,0,0,1-5,.46,15.38,15.38,0,0,1-1.63-1.29,7.68,7.68,0,0,0-1.63-9.37c-.9-.82-3.87-2.78-4.52-.74a4.55,4.55,0,0,0,.46,2.77,18,18,0,0,0,1.5,3.21,19,19,0,0,0,3.27,4.14,7.35,7.35,0,0,1-8.91,2.12c-.2-.09-.18.28-.05.36a7.49,7.49,0,0,0,9.53-2c.16.15.32.3.49.44,1.59,1.31,3.56,2.51,5.63,1.54a5.75,5.75,0,0,0,3-5.32,11.13,11.13,0,0,0-1.7-5c.29.24.59.46.9.67.9.63,2.25,1.63,3.42,1.26a1.82,1.82,0,0,0,.95-2.28c-.25-1.05-1.11-1.82-1.48-2.8a13.21,13.21,0,0,0,4.55,1.43c.22,0,.33-.15.27-.35l-1.16-4a4.52,4.52,0,0,1,1.43.85c.15.13.46.11.43-.15-.07-.58.65-.38.89-.22s.34.29.52.42a2.9,2.9,0,0,0,.66.38,3,3,0,0,0,1.66.19,4.23,4.23,0,0,0,3.3-5.47,63.42,63.42,0,0,0,6.46,4.42,5.2,5.2,0,0,0-.22.77,8.15,8.15,0,0,0,.65,5.3,7,7,0,0,0,3.73,3.58c1.58.56,3.64,0,3.54-2-.09-1.81-1.61-3.45-2.83-4.65a25.16,25.16,0,0,0-4-3.1,2.21,2.21,0,0,1,.12-.27A13.68,13.68,0,0,1,225.51,352.26Zm-36.89,15.13a18.44,18.44,0,0,1-2.7-5.21c-.22-.69-.75-2.36.51-2.33a4.24,4.24,0,0,1,2.33,1.09,6.93,6.93,0,0,1,1.79,8.65h0A19.25,19.25,0,0,1,188.62,367.39ZM227,362c.6.85,1.37,2.18.69,3.19a2.06,2.06,0,0,1-2.43.48,6.25,6.25,0,0,1-3.57-4.08,7.32,7.32,0,0,1,0-4.44A20.12,20.12,0,0,1,227,362Z" style="fill:#37474f"></path><path d="M270.1,321.83c-.43-.21-.47.41-.18.6a2,2,0,0,1,.41,2.5,2.69,2.69,0,0,1-2.76,1.2,7.18,7.18,0,0,1-4.05-2.39,3.14,3.14,0,0,0-1.93-1.92c-.39-.12-.49.31-.25.55.52.54,1.07,1.15,1.66,1.75a7.61,7.61,0,0,1-.59,3.68,6.09,6.09,0,0,1-3.58-1.86c-.22-.22-.72-.12-.54.26a6.49,6.49,0,0,1,.46,4.27,6.29,6.29,0,0,1-3.93-1.33c-.21-.17-.66-.17-.59.21.26,1.34.51,2.67.76,4a8.54,8.54,0,0,1-4-2.17c-.27-.25-.8,0-.57.36a7.28,7.28,0,0,1,1.27,3.07,2.42,2.42,0,0,1-1.23,2.45,4,4,0,0,1-3-.29,18.4,18.4,0,0,1-2.53-1.22,16,16,0,0,1-2.14-1.44c0-.11,0-.21,0-.32,0-2.93-1.51-6-4.39-7a.27.27,0,0,0-.39.28,10.23,10.23,0,0,0,4.11,7.37,9.55,9.55,0,0,1-4.67,6.93c-.15.09,0,.49.16.4a9.28,9.28,0,0,0,5.09-6.87l.17.14a19.94,19.94,0,0,0,4.53,2.48c1.46.56,3.46.93,4.51-.57.92-1.32.57-2.83-.06-4.19a9.5,9.5,0,0,0,3.56,1.45c.23,0,.46-.06.4-.34l-.73-3.75a7.21,7.21,0,0,0,4.11,1.08c.13,0,.19-.12.22-.23a7.06,7.06,0,0,0-.08-3.76,7,7,0,0,0,3.34,1.33c.1,0,.23,0,.27-.12a8.61,8.61,0,0,0,.79-3.54c1.47,1.34,3.15,2.4,5.19,2a2.92,2.92,0,0,0,2.46-2.22A2.45,2.45,0,0,0,270.1,321.83Zm-31.32,5.81a6.45,6.45,0,0,1,3.41,6A9.56,9.56,0,0,1,238.78,327.64Z" style="fill:#37474f"></path><path d="M314.3,298.35a5.24,5.24,0,0,0-6.51.36c-1.58,1.43-2.28,3.76-4.12,4.91a3.23,3.23,0,0,1-3.06.14c1-2,1.33-4.62-.63-5.79a2,2,0,0,0-3.09.8c-.5,1.45.53,3.13,1.47,4.16a7.77,7.77,0,0,0,1.13,1,3.52,3.52,0,0,1-2.44,1.75,2.42,2.42,0,0,1-1.8-.59,2.49,2.49,0,0,0-.72-2c-.19-.17-.53-.22-.6.09a2.38,2.38,0,0,0,.56,2.07c0,.32-.09.62-.13.89a3.14,3.14,0,0,1-1.2,2.38,1.5,1.5,0,0,1-1.22.18c-.4-.15-.49-.6-.8-.85a.8.8,0,0,0-1.23.12,3.19,3.19,0,0,0-.2,1.76,2,2,0,0,1-1.29,1.8c-1.9.87-3.66-.77-4.95-2-.4-.38-.82.12-.45.51a4.09,4.09,0,0,1-.49,5.81,4.22,4.22,0,0,1-5.81-1c-.21-.31-.44,0-.29.28a4.48,4.48,0,0,0,8.09-3.78,5.37,5.37,0,0,0,2.7,1.19,3.09,3.09,0,0,0,3.21-1.87,10.93,10.93,0,0,0,.09-1.81s.05-.44.13-.45.29.3.35.39a1.83,1.83,0,0,0,.69.54,2.4,2.4,0,0,0,3.11-1.6,7.26,7.26,0,0,0,.4-1.86,3.59,3.59,0,0,0,.38.21,3.24,3.24,0,0,0,3.51-.42,5.37,5.37,0,0,0,1.14-1.29,4.41,4.41,0,0,0,2,.51,4.47,4.47,0,0,0,3.31-1.81,33.13,33.13,0,0,1,2.83-3.72,4.75,4.75,0,0,1,5.67-.43C314.5,299.18,314.58,298.57,314.3,298.35Zm-16.65,1.82a1.44,1.44,0,0,1,.74-1.74,1.65,1.65,0,0,1,1.56.36c1.09,1,.59,2.91.12,4.06a5.4,5.4,0,0,1-.23.49A5.18,5.18,0,0,1,297.65,300.17Z" style="fill:#37474f"></path><path d="M261.26,382.22a13.57,13.57,0,0,0-2.35-3.51l.24-.08c.43-.12.08-.75-.27-.67a4.48,4.48,0,0,0-.52.16,30.3,30.3,0,0,0-2.8-2.53l-1.27-1a10.69,10.69,0,0,0-1-4.73,11.65,11.65,0,0,0-2.64-4c-.88-.76-2.57-1.12-3.28.08s.5,3,1.15,3.93a18.85,18.85,0,0,0,3.23,3.56c.54.48,1.1.95,1.66,1.4a6.39,6.39,0,0,1-1.08,3.05,4.78,4.78,0,0,1-3.19,2.16,3.5,3.5,0,0,1-1.57-.15,5.48,5.48,0,0,0,.37-2.2,3.24,3.24,0,0,0-1.88-3c-1.3-.43-2,.86-1.92,2a4.21,4.21,0,0,0,1.82,3.17,4.72,4.72,0,0,0,.61.37c-1.19,2.32-3.9,4-6.51,3.29-.21-.06-.42.07-.37.31l.3,1.57a8.15,8.15,0,0,0-2.93-1.3c-.13,0-.34,0-.37.16a15.76,15.76,0,0,0-.32,3.75c-.82-.49-1.65-1-2.49-1.45-.6-.33-1.43-.58-1.86.14s-.08,1.59.05,2.26l.47,2.56a16,16,0,0,0-2.44-1.63c-.82-.43-2.19-1.26-3.14-.79s-.51,2-.33,2.8a27,27,0,0,0,.77,2.8,21.07,21.07,0,0,0-2.42-2.2,9.86,9.86,0,0,0-4.3-2.31,2.49,2.49,0,0,0-2.91,1.81c-.2,1.38,1.24,2.16,1.44,3.4.06.31.56.44.51,0-.15-1.1-1.29-1.82-1.37-2.9-.11-1.58,1.94-1.92,3-1.54a12.11,12.11,0,0,1,3.6,2.31,22,22,0,0,1,3,3c.18.22.81.25.65-.17a29.59,29.59,0,0,1-1-3.28c-.13-.52-.24-1-.34-1.57s-.34-1.33.24-1.57c.41-.18,1.07.19,1.45.35a14.49,14.49,0,0,1,1.31.65,15.14,15.14,0,0,1,2.61,1.9.34.34,0,0,0,.58-.28c-.15-.79-.3-1.57-.44-2.36a12.53,12.53,0,0,1-.39-2.35c0-1.22,1.23-.35,1.79,0l2.25,1.3c.18.11.51,0,.49-.22a15.33,15.33,0,0,1,.21-3.83,7.22,7.22,0,0,1,2.93,1.55c.22.19.63.13.56-.23l-.39-2a6.53,6.53,0,0,0,6.36-2.9,6.63,6.63,0,0,0,.48-.81,5,5,0,0,0,5.54-1.85,6.9,6.9,0,0,0,1.34-3.19,42.8,42.8,0,0,1,3.43,3,5,5,0,0,0-2.76,4.92c.26,2.33,2.26,4.65,4.74,4.57a2.3,2.3,0,0,0,2.35-1.74A6.89,6.89,0,0,0,261.26,382.22Zm-15.53-3.61a3,3,0,0,1-.77-1.87c0-.71.34-1.9,1.26-1.33,1.28.79,1.11,2.8.67,4a.69.69,0,0,1,0,.1A4.11,4.11,0,0,1,245.73,378.61Zm3.52-9.07c-.55-.83-2.26-3.59-.18-3.69a2.26,2.26,0,0,1,1.75,1.17,17.66,17.66,0,0,1,1.35,2.19,10.78,10.78,0,0,1,1.28,4.67A21.06,21.06,0,0,1,249.25,369.54ZM260.09,387a2.81,2.81,0,0,1-2.31-.33,4.44,4.44,0,0,1-2-4.39,4.71,4.71,0,0,1,2.44-3.3c.28.32.55.64.82,1a9.73,9.73,0,0,1,2.12,4.91C261.25,385.82,261.05,386.71,260.09,387Z" style="fill:#37474f"></path><path d="M302.16,340.43a2.54,2.54,0,0,0-1.84.14c-.35.2-.4.76-.42,1.27l-1-.65a.44.44,0,0,0-.67.24c-.31,1.44-1.06,3.14-2.58,3.64a1.65,1.65,0,0,1-.32.06c-.1-1.4-.95-2.93-2.51-3a.36.36,0,0,0-.37.16c-.79,1.5.47,3.05,1.92,3.53a5.91,5.91,0,0,1-1.67,3.23,6,6,0,0,1-4.88,1.71,5.58,5.58,0,0,0,0-3.76,3.84,3.84,0,0,0-3.13-2.72,2.15,2.15,0,0,0-2.18,2.35,4.56,4.56,0,0,0,1.84,3.5,6.59,6.59,0,0,0,2.24,1.17c-.09.15-.17.3-.26.44a4.68,4.68,0,0,1-3,2c-1.1.19-2.83.46-2.93,1.77l-2.31-1c-.2-.08-.48-.08-.5.2-.12,1.31-.25,2.62-.37,3.93l-3.94-1.33a.31.31,0,0,0-.36.46,3,3,0,0,1-1.05,4.15,2.75,2.75,0,0,1-3.07-.54,5.54,5.54,0,0,0-.73-1.08c-.23-.27-.78-.28-.62.2a3.41,3.41,0,0,0,.9,1.35,5,5,0,0,1,.2,3.65,5.14,5.14,0,0,1-3.73,3.28c-.29.07-.09.59.17.55a5.33,5.33,0,0,0,4.26-6.85,3.32,3.32,0,0,0,4.7-4.21l3.61,1.21a.31.31,0,0,0,.41-.25l.34-3.89,2.38,1.06c.23.1.56,0,.49-.29-.25-1.22,1.36-1.45,2.19-1.56a5.32,5.32,0,0,0,2-.68,5.66,5.66,0,0,0,2.08-2.31,6.66,6.66,0,0,0,7.82-5.52c2,0,3.23-2,3.74-3.76l1.16.73c.21.13.63.07.66-.23.05-.48.1-.95.14-1.43a1.74,1.74,0,0,1,1.06-.07C302.67,341.4,302.73,340.57,302.16,340.43Zm-17.08,9.38a3.72,3.72,0,0,1-1.75-3,1.57,1.57,0,0,1,2.6-1.33c1.63,1.17,1.71,3.42,1,5.19A6.15,6.15,0,0,1,285.08,349.81Zm8.09-6.77c.8.2,1.15,1.12,1.22,2A1.66,1.66,0,0,1,293.17,343Z" style="fill:#37474f"></path><path d="M348.52,314a4.78,4.78,0,0,1-3.54,3.64,5.65,5.65,0,0,1-3.86-.61c.84-1.48,1.15-3.34-.21-4.5s-4.2-.5-3.49,1.75a6,6,0,0,0,2.49,2.81l.15.09a7.07,7.07,0,0,1-.56.65c-1.39,1.37-3.6,2.16-5.38,1.07a.31.31,0,0,0-.48.32,1.46,1.46,0,0,1-.26,1.13,1.9,1.9,0,0,0-2.79-.27c-.61.7-.28,1.82-1.37,2.14a4.33,4.33,0,0,1-2.69-.36.4.4,0,0,0-.47.12c-.85,1.44.35,3-.33,4.46a1,1,0,0,1-.63.62c-.49.1-1.12-.59-1.47-.87l-2.5-2c-.33-.27-1,0-.65.43,2,2.32,1.64,5.83-.08,8.2-2,2.77-5.8,3.21-8.78,1.79a8.7,8.7,0,0,1-1.15-.68,10,10,0,0,0,2.23-4.36,8.09,8.09,0,0,0-.59-5.48c-.84-1.56-3-2.88-4.65-1.59a4.38,4.38,0,0,0-1.28,2.9,9.42,9.42,0,0,0,.09,3.43,9,9,0,0,0,3.2,5.26,8.73,8.73,0,0,1-4.55,2.47c-.24,0-.11.49.1.46a9.12,9.12,0,0,0,5-2.56c2.88,2,7,2.52,9.89.26a7.79,7.79,0,0,0,2.45-8.59c.46.38.93.76,1.41,1.13a1.89,1.89,0,0,0,2.25.39c1.71-1.19.18-3.38.77-4.91,1.15.4,2.7.69,3.66-.17a1.93,1.93,0,0,0,.52-.84c.12-.39.1-.89.45-1.18a1,1,0,0,1,1.57.51c0,.24.44.48.65.31a2,2,0,0,0,.83-1.57,5.26,5.26,0,0,0,5.47-1.19,5.58,5.58,0,0,0,.86-1,7.43,7.43,0,0,0,3,.9c2.45.16,5.44-1.51,5.31-4.25C349,314,348.6,313.62,348.52,314ZM307,325.1c.19-.93.5-2,1.49-2.35a2.43,2.43,0,0,1,2.63.87,6.72,6.72,0,0,1,1.05,5,9.68,9.68,0,0,1-2.23,4.83A8.68,8.68,0,0,1,307,325.1Zm32.37-9.26c-.7-.61-1.94-2-1-2.9a1.63,1.63,0,0,1,1.94-.07c.85.57.81,1.82.54,2.68a4.63,4.63,0,0,1-.46,1A9.56,9.56,0,0,1,339.4,315.84Z" style="fill:#37474f"></path></g></g><g id="freepik--Ink--inject-230"><g id="freepik--Inkwell--inject-230"><path d="M133.33,406.58H122.17c-1.3-4.41-4.61-8.62-10-12-14.14-9-37.06-9-51.2,0-5.35,3.41-8.66,7.62-10,12H39.89l15.9,16.29h0A27.78,27.78,0,0,0,61,427.19c14.14,9,37.06,9,51.2,0a28.25,28.25,0,0,0,5.27-4.32h0Z" style="fill:#BA68C8"></path><path d="M133.33,406.58H122.17c-1.3-4.41-4.61-8.62-10-12-14.14-9-37.06-9-51.2,0-5.35,3.41-8.66,7.62-10,12H39.89l15.9,16.29h0A27.78,27.78,0,0,0,61,427.19c14.14,9,37.06,9,51.2,0a28.25,28.25,0,0,0,5.27-4.32h0Z" style="fill:#fff;opacity:0.2"></path><path d="M133.28,368.87h0l-15.74-16.3H88.18c-1.05,0-2.09,0-3.14,0H55.79l-15.85,16.3h0c-13.58,13.62-11.08,31.88,7.58,43.77,21.59,13.77,56.59,13.77,78.18,0C144.36,400.75,146.86,382.49,133.28,368.87Z" style="fill:#BA68C8"></path><path d="M133.28,368.87h0l-15.74-16.3H88.18c-1.05,0-2.09,0-3.14,0H55.79l-15.85,16.3h0c-13.58,13.62-11.08,31.88,7.58,43.77,21.59,13.77,56.59,13.77,78.18,0C144.36,400.75,146.86,382.49,133.28,368.87Z" style="fill:#fff;opacity:0.4"></path><path d="M137,387.78c0,5.14-2.4,10.27-6.94,14.85L121,411.91h0l-5.32,5.62h0L114.1,419a23.42,23.42,0,0,1-4.31,3.57c-6.11,3.9-14.35,6-23.18,6s-17.07-2.14-23.18-6A23.47,23.47,0,0,1,59.11,419l-1.4-1.47h0l-5.41-5.62h0l-9.14-9.28c-4.54-4.58-6.93-9.71-6.93-14.85s2.43-10.35,7-15L51,365l1.45-1.51h0A30.86,30.86,0,0,1,58.06,359c.58-.38,1.17-.72,1.78-1.06h53.54c.6.34,1.19.68,1.77,1.06a30.52,30.52,0,0,1,5.68,4.57h0l.8.83,8.35,8.46C134.58,377.43,137,382.61,137,387.78Z" style="fill:#37474f"></path><path d="M58.07,395.35C42.3,385.3,42.3,369,58.07,359s41.32-10,57.08,0,15.76,26.34,0,36.39S73.83,405.4,58.07,395.35Z" style="fill:#455a64"></path><path d="M133.28,368.87h0l-15.74-16.3H88.18c-1.05,0-2.09,0-3.14,0H55.79l-15.85,16.3h0c-11.44,11.47-11.45,26.23,0,37.71h0l15.9,16.29h0A27.78,27.78,0,0,0,61,427.19c14.14,9,37.06,9,51.2,0a28.25,28.25,0,0,0,5.27-4.32h0l15.85-16.29h0C144.73,395.1,144.72,380.34,133.28,368.87Z" style="fill:#BA68C8;opacity:0.30000000000000004"></path><path d="M133.28,368.87h0l-15.74-16.3H88.18c-1.05,0-2.09,0-3.14,0H55.79l-15.85,16.3h0c-11.44,11.47-11.45,26.23,0,37.71h0l15.9,16.29h0A27.78,27.78,0,0,0,61,427.19c14.14,9,37.06,9,51.2,0a28.25,28.25,0,0,0,5.27-4.32h0l15.85-16.29h0C144.73,395.1,144.72,380.34,133.28,368.87Z" style="fill:#fff;opacity:0.1"></path><path d="M112.66,418.62c-30.85,6.69-59.3-7.49-66.45-15.63C34.08,389.2,39,377,55.4,362.54l-2.52-7L39.94,368.87h0c-13.58,13.62-11.08,31.88,7.58,43.77C65.18,423.91,91.73,425.79,112.66,418.62Z" style="fill:#fff;opacity:0.4"></path><path d="M120.28,355.73a24.3,24.3,0,0,0-8.07-7.11c-14.14-8.16-37.06-8.16-51.2,0a24.2,24.2,0,0,0-8.07,7.11H50.41v7.37h0C50.3,368.55,53.81,374,61,378.18c14.14,8.16,37.06,8.16,51.2,0,7.2-4.16,10.71-9.63,10.58-15.08h0v-7.37Z" style="fill:#BA68C8"></path><path d="M120.28,355.73a24.3,24.3,0,0,0-8.07-7.11c-14.14-8.16-37.06-8.16-51.2,0a24.2,24.2,0,0,0-8.07,7.11H50.41v7.37h0C50.3,368.55,53.81,374,61,378.18c14.14,8.16,37.06,8.16,51.2,0,7.2-4.16,10.71-9.63,10.58-15.08h0v-7.37Z" style="fill:#fff;opacity:0.4"></path><path d="M112.21,378.18a30,30,0,0,0,2.67-1.73,73.58,73.58,0,0,1-22.59,6.31C80,384,65.53,378.61,59.65,374.47s-8-10.31-8-13.36l0-5.38H50.41v7.37h0C50.3,368.55,53.81,374,61,378.18,75.15,386.34,98.07,386.34,112.21,378.18Z" style="opacity:0.1"></path><path d="M61,370.51c-14.14-8.16-14.14-21.4,0-29.56s37.06-8.16,51.2,0,14.14,21.4,0,29.56S75.15,378.67,61,370.51Z" style="fill:#BA68C8"></path><path d="M61,370.51c-14.14-8.16-14.14-21.4,0-29.56s37.06-8.16,51.2,0,14.14,21.4,0,29.56S75.15,378.67,61,370.51Z" style="fill:#fff;opacity:0.7000000000000001"></path><path d="M67.57,366.72c-10.52-6.07-10.52-15.91,0-22s27.56-6.07,38.08,0,10.52,15.92,0,22S78.08,372.8,67.57,366.72Z" style="fill:#BA68C8"></path><path d="M67.56,366.73c-10.52-6.08-10.52-15.92,0-22s27.58-6.07,38.1,0,10.52,15.92,0,22S78.08,372.8,67.56,366.73Z" style="fill:#fff;opacity:0.4"></path><path d="M96.19,348.18c-9.6-2.09-20.88-.93-28.64,3.54-3.69,2.12-6.06,4.75-7.16,7.5-2-5,.38-10.57,7.16-14.48-3.37,2.22-4.19,6.19-1.75,5.76S80.84,342.81,96.19,348.18Z" style="opacity:0.1"></path><path d="M105.66,351.72c-10.52-6.08-27.58-6.08-38.1,0-3.71,2.14-6.08,4.75-7.18,7.5,1.1,2.75,3.47,5.37,7.18,7.51,10.52,6.07,27.58,6.07,38.1,0,3.71-2.14,6.08-4.76,7.18-7.51C111.74,356.47,109.37,353.86,105.66,351.72Z" style="fill:#BA68C8;opacity:0.4"></path><path d="M112.83,359.22c-1.08,2.75-3.46,5.37-7.17,7.51-10.52,6.07-27.58,6.07-38.1,0-3.71-2.14-6.08-4.76-7.18-7.51a12,12,0,0,1,1.8-3.05c14.39-6.33,34.47-6.33,48.85,0A11.74,11.74,0,0,1,112.83,359.22Z" style="fill:#BA68C8;opacity:0.4"></path><path d="M112.83,359.22a9,9,0,0,1-.47,1,16.87,16.87,0,0,0-6.69-6.41c-10.54-6.09-27.58-6.09-38.12,0a16.87,16.87,0,0,0-6.69,6.41,7.5,7.5,0,0,1-.47-1c1.1-2.75,3.47-5.38,7.16-7.5,10.54-6.07,27.58-6.07,38.12,0C109.36,353.84,111.73,356.47,112.83,359.22Z" style="opacity:0.1"></path><path d="M105.66,366.73a36.43,36.43,0,0,1-16.22,4.72,43.94,43.94,0,0,1-16.88-2.05c-5.24-1.93-10.77-5.16-12.7-10.82-1.93-6,2.85-11.43,7.7-13.85-4.73,2.72-9.08,8.13-7.2,13.69,1.89,5.34,7.3,8.44,12.46,10.24a43.13,43.13,0,0,0,16.59,2.27A40,40,0,0,0,105.66,366.73Z" style="fill:#fff"></path><path d="M112.83,359.22c-1.08,2.75-3.46,5.37-7.17,7.51-10.52,6.07-27.58,6.07-38.1,0-3.71-2.14-6.08-4.76-7.18-7.51a12,12,0,0,1,1.8-3.05c14.39-6.33,34.47-6.33,48.85,0A11.74,11.74,0,0,1,112.83,359.22Z" style="fill:#455a64"></path></g></g><g id="freepik--Character--inject-230"><g id="freepik--character--inject-230"><g id="freepik--Bottom--inject-230"><path d="M430.09,419c-.71-3.11,2.3-5.07,3.73-6.86,2.2-2.76,2.88-9.19,2.85-12.47,0-4.1.46-7-2-10.72-2.95-4.39-7.05-9.52-20.8-22.08l16.93-17.4c3.55,5.69,12.48,25.59,12.48,25.59l.59,1.24a22.66,22.66,0,0,0,5.33,5.22l.94.49c1.62,1.13,5.72,2.32,5.65,6.25s-1.57,4.89-3.3,8.11a11.74,11.74,0,0,0-2,7c-.07,3.16.06,6.68.09,9.51,0,2.38-2.12,5.84-6.59,7.38C437.44,422.51,430.79,422,430.09,419Z" style="fill:#ffbda7"></path><path d="M458.07,388.36A44.5,44.5,0,0,1,463,397l-4.49,6.44-3.78-6.5A23.69,23.69,0,0,0,458.07,388.36Z" style="fill:#263238"></path><path d="M458.47,403.41l-6.18-.43a5.48,5.48,0,0,1,.61-3.9,7.9,7.9,0,0,1,1.79-2.17Z"></path><path d="M456.83,386.9a4.45,4.45,0,0,1,1.19,1.32c.3.64,0,4.68-1.32,6.63s-3.37,4-3.89,6.82.57,9.21-.52,13.11-4.76,8.34-12.76,9.39c-5.73.75-7.88-.36-9.8-1.58-.69-2.53-.62-3.18,2.51-5.32S456.83,386.9,456.83,386.9Z" style="fill:#263238"></path><path d="M446.17,376.62c2.57,3.12,3.49,4.32,5.85,5.73,2.86,1.69,3.45,2.37,4.81,4.55.58,3.38-.09,4.77-3.12,9.09a12.77,12.77,0,0,0-2.69,8.95c.07,4.91,1.7,9.39-4.15,14.42-4.55,3.91-14.52,4.17-17.22,1.45-2.32-6.7,3.85-6.35,5.24-13.45.78-3.94.84-9.87-.36-13.8a32.78,32.78,0,0,0-2-5.15c-1-1.67-1.81-2.88-1-3.76l1.46,1.83c1.45.32,5-.45,7.27-2.35,5.57-4.59,3.63-7.84,3.63-7.84l-.59-1.24C443.8,374.36,444.72,374.85,446.17,376.62Z" style="fill:#37474f"></path><path d="M384.22,220.16c-1.41,9.68-6,21.82-8.5,44.74-2.37,21.49-3.43,32.7-1.92,43.38.53,3.81,2.45,8.27,6.11,13.91,11.46,17.65,34,45.44,34,45.44s5.11-.09,11.31-5.14a17.78,17.78,0,0,0,6.25-12.1s-.6-4-10.06-20.3-10.67-33.87-10.67-33.87l6.16-69C402.25,228.54,391.07,225.79,384.22,220.16Z" style="fill:#263238"></path><path d="M425.25,362.49a17.78,17.78,0,0,0,6.25-12.1s-.6-4-10.06-20.3-10.67-33.87-10.67-33.87l4.72-52.83C404,241.57,388,241.72,388,241.72c-.3,7.56,1.33,16.92,12,22.56,0,0-2,37.16-2.21,48-.19,8.29,2.17,29.41,3.3,39,7.16,9.27,12.91,16.34,12.91,16.34S419.05,367.54,425.25,362.49Z"></path><path d="M405.78,402.25l-.07-1.67-1.6-33.93,23.34,6-5.19,27.2-.17,1.42s-.25,6.91-10.68,7.3C406.07,408.74,405.78,402.25,405.78,402.25Z" style="fill:#ffbda7"></path><polygon points="418.39 433.19 410.29 430.12 410.03 422.25 418.28 425.43 418.39 433.19"></polygon><path d="M426.27,415.53c.34,2.9-2,14-2,14l-5.89,3.65-.11-7.76s-1.64,1.42-3.37,5.53c-1.63,3.88-3.87,7.61-7.72,9.57s-10.5,2.77-16.15,2c-4-.54-6.5-2.3-7.17-3.34a3.71,3.71,0,0,1-.24-1.64Z" style="fill:#263238"></path><path d="M405.71,400.58c-1.11-.09-1,1-2.39,7.5-1,4.87-3.25,13.26-11.91,18.79-3.56,2.28-8.5,3.72-7.78,10.7,2.47,3.38,11.1,4.27,16.26,3.34,10.43-1.88,12-6.09,14.59-12.36,2.09-5,3.93-5.57,6.71-7.59,1.84-1.33,4.35-3.25,5.08-5.43.13-4.78-1.63-7.9-2.26-10.31s-.25-5.06-1.75-5.41l-.17,1.42s-1.4,3.83-8.66,4-7.65-2.95-7.65-2.95Z" style="fill:#37474f"></path><path d="M384.22,220.16s-1.87,12.5,2.11,23.89c3.46,9.9,10.1,15.48,17.09,17.8,0,0-2.32,44.45-2.94,50.64s.83,28.61,2.14,43.37,1.71,19.81,1.71,19.81,3.08,3.32,11.71,3.49,11.37-3.47,11.37-3.47,5.46-17.06,5.69-30.45c.13-7.67-1.52-11.48-.09-19.09s12-41.46,13.75-57.52-.89-30.16-12.06-46.59C422.69,230.05,395.15,228,384.22,220.16Z" style="fill:#263238"></path><path d="M429.78,224.51c6.05,8.54,14.77,26.16,8.58,51.38q-2.64,10.77-5.21,20.8c-4,15.68-7.11,28.06-7.54,32.79a38.24,38.24,0,0,0,.39,8,68.6,68.6,0,0,1,0,18.75c-1.09,8.08-2.66,16.57-3.8,22.31.37-.1.71-.2,1-.31,1.13-5.74,2.65-14,3.71-21.87a69,69,0,0,0,0-19,37.32,37.32,0,0,1-.38-7.79c.42-4.65,3.55-17,7.51-32.64,1.7-6.7,3.46-13.62,5.22-20.8,6.23-25.41-2.46-43.23-8.6-52C430.39,224.28,430.09,224.4,429.78,224.51Z"></path></g><g id="freepik--Top--inject-230"><g id="freepik--Arm--inject-230"><path d="M345.61,211.22c-3.56,2.26-6.41,2-9.23,2.68-3.58.86-6.41,2.66-11.27,4.95l-2.49,1.21a11.11,11.11,0,0,1-1.22.55c-.4.13-.73.26-.71.8a1.59,1.59,0,0,0,.49,1,4.46,4.46,0,0,0,3.44,1.15,22,22,0,0,0,3.66-.73c.93-.21.49.8.21,1.25-1.36,2.2-8.19,3.92-10.43,5.06-1,.52-2.36.51-2.55,1.88a6.85,6.85,0,0,1-.19,1.37,6,6,0,0,1-.77,1.24,3.21,3.21,0,0,0-.61,2,1.84,1.84,0,0,0,1.22,1.63c.54.15,1.15,0,1.66.22a5.87,5.87,0,0,1,.65.46c1,.67,2.28.32,3.45.28,1,0,2,.29,3,.3a17.81,17.81,0,0,0,3.18-.12,38.26,38.26,0,0,0,7.19-2,25.67,25.67,0,0,0,8.12-5.83,16.6,16.6,0,0,1,6.73-4.87c4.39-1.95,21.33-8.65,27.3-13,2.17-1.6,3.25-3.32,10.16-10.59,10.27-10.79,13.48-15.27,13.48-15.27l7.41-25.18c-8.53.27-12.24-.46-18.65,6.62-9,9.92-22.46,27-22.46,27S348.63,209.31,345.61,211.22Z" style="fill:#ffbda7"></path><path d="M331.15,223.42c3.29,2.41,8.49,1.08,10.65-.21,0,0-2.85,2.72-5.61,2.72C333.16,225.93,332,224.85,331.15,223.42Z" style="fill:#f0997a"></path></g><g id="freepik--Pen--inject-230"><path d="M286.54,339.3c-3.14,11.78-4.61,16.71-6.6,19.85s-2.93,4.7-2.86,10.08.74,15.21.17,16.37c-.59-.05-.6,1,.52,1.43,1,.35,1.75-.32,1.17-.89,0,0-.2-1.12,4.17-5.41s5-4.06,8.49-6.46c2.74-1.89,2.74-3.3,3.33-6.76.57-3.26,1-5.41,3.63-13.11,2.22-6.55,3.39-9.64,3.39-9.64Z" style="fill:#e0e0e0"></path><path d="M279.4,379.66l-.51,2.34c-.35,1.67-.73,3.35-1.22,5a1.27,1.27,0,0,1-.8-.84,3.16,3.16,0,0,0,.26-.52l.12,0a3.73,3.73,0,0,0,.18-1.1c0-.16.05-.32.08-.48.78-5,1.56-9.94,2.76-14.82a6.19,6.19,0,0,0,.25-1.7c0-.61-.23-1.2-.25-1.81a1.47,1.47,0,0,1,.82-1.49c2.07-.7.86,3.46.73,4.07-.53,2.57-1.17,5.11-1.72,7.67C279.84,377.17,279.66,378.43,279.4,379.66Z" style="opacity:0.15"></path><path d="M277.46,381.33h0v0Z" style="fill:#fafafa"></path><path d="M277.08,369.23c-.07-5.38.88-6.93,2.86-10.08s3.46-8.07,6.6-19.85l1,.36s-3.46,12-4,13.73a24.22,24.22,0,0,1-3.34,7.51,11.07,11.07,0,0,0-2.63,6.06c-.41,2.41-.23,11.81-.18,13.93C277.37,377.29,277.11,372.46,277.08,369.23Z" style="fill:#ebebeb"></path><polygon points="290.49 346.39 285.2 362.64 290.49 351.88 290.49 346.39" style="opacity:0.15"></polygon><path d="M280.44,383.6a77.1,77.1,0,0,0,5-7.38c1.62-3,1.19-6,.71-8.69s2-7.75,4.31-15.38l9.17-.83c-.33.94-.67,1.94-1.06,3.08-2.61,7.7-3.06,9.85-3.63,13.11-.59,3.46-.59,4.87-3.33,6.76-3.47,2.4-4.11,2.18-8.49,6.46a37.83,37.83,0,0,0-2.67,2.87Z" style="opacity:0.15"></path><path d="M291.13,374.6c.14-.11.3-.21.47-.32a8.22,8.22,0,0,0,1.65-1.46c.64-2.49.27-5.45.65-8.18s3.74-12.44,3.74-12.44l-3.84.38c-1.77,6.48-3.66,10.71-3.56,13.74.05,1.13.17,2.49.18,3.87.46-2.09.19-4.51,1.43-6.23a10.64,10.64,0,0,0-.25,2.4c0,2.87.46,4.8-.12,7.17A6.08,6.08,0,0,1,291.13,374.6Z" style="fill:#e0e0e0;opacity:0.30000000000000004"></path><path d="M277.77,387a1.71,1.71,0,0,1-.33-.21c.46-2.38,2.74-14.16,4.25-19.8,0-.11-.23-.33-.28-.42a2.05,2.05,0,0,1-.32-.83,1.31,1.31,0,0,1,0-.34,2,2,0,0,1,.18-.58.76.76,0,0,1,.67-.4,1.09,1.09,0,0,1,.51.21,4.47,4.47,0,0,1,1.21,1.28,4.76,4.76,0,0,1,.4.73,1.7,1.7,0,0,1,0,.95c-.07.29-.25.7-.57.77a1,1,0,0,1-.84-.34c-.09-.07-.55-.35-.51-.49-1.45,5.38-3.61,16.46-4.19,19.49A1.11,1.11,0,0,1,277.77,387Z" style="fill:#455a64"></path><path d="M282.1,341.31l2,.63a7.9,7.9,0,0,1,2.32-.88,17.27,17.27,0,0,1,14.93,4.63,8.3,8.3,0,0,1,1.42,2l2,.62-2,3.38h0a6,6,0,0,1-4.08,2.58,17.26,17.26,0,0,1-14.92-4.64,6,6,0,0,1-1.9-4.43h0Z" style="fill:#BA68C8"></path><path d="M282.1,341.31l2,.63a7.9,7.9,0,0,1,2.32-.88,17.27,17.27,0,0,1,14.93,4.63,8.3,8.3,0,0,1,1.42,2l2,.62-2,3.38h0a6,6,0,0,1-4.08,2.58,17.26,17.26,0,0,1-14.92-4.64,6,6,0,0,1-1.9-4.43h0Z" style="opacity:0.15"></path><path d="M301.3,291c5.27-1.2,12.53,1.06,16.2,5,1.84,2,2.43,4,1.91,5.72l-14.21,45.7c-.53,1.69-2.17,3-4.81,3.63-5.28,1.2-12.54-1.05-16.21-5-1.84-2-2.43-4-1.91-5.72l14.22-45.7C297,292.91,298.66,291.56,301.3,291Z" style="fill:#BA68C8"></path><path d="M301.3,291c5.27-1.2,12.53,1.06,16.2,5,1.84,2,2.43,4,1.91,5.72l-14.21,45.7c-.53,1.69-2.17,3-4.81,3.63-5.28,1.2-12.54-1.05-16.21-5-1.84-2-2.43-4-1.91-5.72l14.22-45.7C297,292.91,298.66,291.56,301.3,291Z" style="fill:#fff;opacity:0.5"></path><path d="M314.6,305.36c-5.28,1.19-12.54-1.06-16.21-5-1.84-2-2.43-4-1.9-5.72s2.17-3,4.81-3.63c5.27-1.2,12.53,1.06,16.2,5,1.84,2,2.43,4,1.91,5.72S317.24,304.76,314.6,305.36Z" style="fill:#BA68C8"></path><path d="M301.92,284.54c6.09-1.38,14.47,1.22,18.71,5.81,2.12,2.29,2.8,4.65,2.2,6.6l-2.2,7.07c-.6,2-2.5,3.5-5.55,4.19-6.09,1.38-14.47-1.22-18.71-5.81-2.12-2.29-2.8-4.64-2.2-6.6l2.2-7.06C297,286.78,298.87,285.23,301.92,284.54Z" style="fill:#BA68C8"></path><path d="M301.92,284.54c6.09-1.38,14.47,1.22,18.71,5.81,2.12,2.29,2.8,4.65,2.2,6.6l-2.2,7.07c-.6,2-2.5,3.5-5.55,4.19-6.09,1.38-14.47-1.22-18.71-5.81-2.12-2.29-2.8-4.64-2.2-6.6l2.2-7.06C297,286.78,298.87,285.23,301.92,284.54Z" style="fill:#fff;opacity:0.35000000000000003"></path><path d="M317.28,301.15c-6.1,1.38-14.47-1.22-18.71-5.81-2.12-2.29-2.81-4.65-2.2-6.6s2.5-3.51,5.55-4.2c6.09-1.38,14.47,1.22,18.71,5.81,2.12,2.29,2.8,4.65,2.2,6.6S320.32,300.46,317.28,301.15Z" style="fill:#BA68C8"></path><path d="M469.63,101.77l-28.26,4.91,23.49,2.18c-5.55,7.83-12.84,16.93-22,27.52-14.3,16.6-31.67,47.29-45.47,74.77L350.1,231l42.2-9.41c-6.65,13.74-12.11,26-15.42,34.37-10.48,26.45-38.23,45.41-63.92,37.89l-6.49-2.68c-10.82-4.87-27.06-17.55-17.07-68.44A118.21,118.21,0,0,1,293,209l13.43,29.58-8.66-42.44a248.43,248.43,0,0,1,23.28-42.81L331.15,183,325,147.63c12.76-18,28.33-35.25,45.93-49.1q2.34-1.84,4.64-3.58l1.67,30.44,7.14-36.84c45.27-31.53,74.76-30.62,87-22.35C481.3,72.92,481.3,83.31,469.63,101.77Z" style="fill:#BA68C8"></path><path d="M469.63,101.77l-28.26,4.91,23.49,2.18c-5.55,7.83-12.84,16.93-22,27.52-14.3,16.6-31.67,47.29-45.47,74.77L350.1,231l42.2-9.41c-6.65,13.74-12.11,26-15.42,34.37-10.48,26.45-38.23,45.41-63.92,37.89l-6.49-2.68c-10.82-4.87-27.06-17.55-17.07-68.44A118.21,118.21,0,0,1,293,209l13.43,29.58-8.66-42.44a248.43,248.43,0,0,1,23.28-42.81L331.15,183,325,147.63c12.76-18,28.33-35.25,45.93-49.1q2.34-1.84,4.64-3.58l1.67,30.44,7.14-36.84c45.27-31.53,74.76-30.62,87-22.35C481.3,72.92,481.3,83.31,469.63,101.77Z" style="fill:#fff;opacity:0.75"></path><path d="M393.46,135.35c9.4-1.51,30.51-5.94,45.86-16.95a120.12,120.12,0,0,1-41.16,10.66c15.12-19.72,32.17-36.8,52.92-50.43-34.16,18.35-61.52,48.16-86.87,90.86-3.08-17.55-.84-53.68-.84-53.68s-6.83,35.95-3.73,61.54q-5.79,10.2-11.47,21.31c-.95,1.86-1.87,3.7-2.79,5.51h0c-24.13,48.09-34.16,80.34-36.38,88l4,1.63a40.17,40.17,0,0,0,4.41,1c8.63-26.53,21.56-61.1,36.48-92.32,10.95-2.62,30.49-8.9,46.32-22.65A123.37,123.37,0,0,1,358,194c3.89-7.79,7.91-15.29,12-22.31A426.33,426.33,0,0,1,393.46,135.35Zm-63.41,97.42c-5.38-11.27-8.81-19.55-13.29-37.28,2.08,19.39,5.47,35.47,10,48.79Z" style="fill:#BA68C8;opacity:0.2"></path><path d="M306.47,291.14C330.39,218,379.1,115.81,451.08,78.63c-19.19,9.91-38.7,27.91-52.1,44.68a443.26,443.26,0,0,0-43.11,65.82c-15.76,29.53-31.8,69.76-42.91,104.68-.75,2.36-7.43-.39-6.49-2.67Z" style="fill:#fff"></path></g><path d="M443.48,134.91a5.57,5.57,0,0,1,3.66,3.21c.74,2,.19,4.51,1.73,5.93a2.85,2.85,0,0,0,4.13-.51,2.26,2.26,0,0,1-2,3.73,6.37,6.37,0,0,1,3,10.42,4.38,4.38,0,0,0-.82,1c-.44.93,0,2,.42,3a9,9,0,0,1,.7,5.12,5.65,5.65,0,0,1-3.08,3.92,4.8,4.8,0,0,0-.35-4,6.06,6.06,0,0,1-4.09,6.19,11.94,11.94,0,0,1-6.52-.07,30.11,30.11,0,0,0-5.75-1.58c-1.1-.11-2.21,0-3.3-.19a8,8,0,0,1-5.39-3.4,7.86,7.86,0,0,1-1.24-5.46c.33-2.07-1-3.65-2.15-5.35-1.35-2-2.62-4.49-1.81-6.78.72-2,2.91-3.37,3.2-5.49.17-1.26-.4-2.41-.26-3.67a7.2,7.2,0,0,1,1.27-3.2,7.71,7.71,0,0,1,5.26-3.34c2.46-.32,4.86.59,7.31.51C439.47,134.85,441.49,134.31,443.48,134.91Z" style="fill:#263238"></path><g id="freepik--Chest--inject-230"><path d="M446.16,200.7s-4.6-2.27-5.85-12.51c-.57-4.65,1-10.71,2.93-17.7l-13.07-5.82s-4.32-1.22-13.85-3l-8.85,0s-15.93,6.88-22.41,15.57c-3.53,4.74-7.19,14.85-1,22.53-.48,6.88-.57,20.91-.57,20.91s3.66,6.77,21.23,8.83c25.2,2.94,32.22-6.46,32.22-6.46C437.45,215.7,443.5,207.79,446.16,200.7Z" style="fill:#BA68C8"></path><path d="M446.16,200.7s-4.6-2.27-5.85-12.51c-.57-4.65,1-10.71,2.93-17.7l-13.07-5.82s-4.32-1.22-13.85-3l-8.85,0s-15.93,6.88-22.41,15.57c-3.53,4.74-7.19,14.85-1,22.53-.48,6.88-.57,20.91-.57,20.91s3.66,6.77,21.23,8.83c25.2,2.94,32.22-6.46,32.22-6.46C437.45,215.7,443.5,207.79,446.16,200.7Z" style="fill:#fff;opacity:0.2"></path><path d="M402.8,202.2s3.63,6.3,13.39,6.06,12.65-7.32,12.65-7.32-.75,9.55-12.41,9.79C405,211,402.8,202.2,402.8,202.2Z" style="fill:#BA68C8"></path></g><g id="freepik--Head--inject-230"><path d="M438.42,113.27A10.21,10.21,0,0,0,433,109.8c-2-.52-3.27-.49-5.21-1.3s-3.42-2.08-5.25-2.87a11.77,11.77,0,0,0-9.08.15c-2.86,1.18-4.64,3.83-7.67,4.55-1.59.38-3.23.47-4.8.88a10.45,10.45,0,0,0-6.43,4.86,8.4,8.4,0,0,0-.14,7.94,6.09,6.09,0,0,1,1,2.18c.14,1.49-1.23,2.63-1.89,4-1.14,2.29,0,5.23,2,6.79a11.31,11.31,0,0,0,7.29,1.89,17.22,17.22,0,0,0,5.37,9.91,38.64,38.64,0,0,0,6.13,4.75,30.74,30.74,0,0,0,6.1,2.84c2.17.85,6.09,2.45,8.23.71a9.18,9.18,0,0,0,1.93-2.7c2-3.54,4.74-6.6,7.29-9.78s5-6.54,6.25-10.4a15.25,15.25,0,0,0,.37-8.92,11.06,11.06,0,0,0-1.42-3.42c-.24-.33-3.41-2.2-3.46-2A8.83,8.83,0,0,0,438.42,113.27Z" style="fill:#263238"></path><path d="M438.38,136.44c-2.47-1.06-4.61-.18-6,2.45-1.23,2.29-3.66,1.39-3-2.22-5.43-5.65,1.21-8.92-3.25-14.36-2.78-3.39-9-2.72-11.49-.74a6,6,0,0,0-6.89-3.1c-2.62.84-4.32,2.37-5.68,6-1.42,3.78-.1,4.54-.82,7.22a20.38,20.38,0,0,0-1.5,5.73c-.62,12.65,1.84,15.94,4.5,18.11,1.83,1.49,4.2,2.33,8.27,2.51l-.37,5.51A28.59,28.59,0,0,0,406,178.3c11.77-3.08,17.89-7.15,24.78-12.46l1.17-18.34h0c.53,1.46,3.35,3.14,6.32.82C442,145.39,442.73,138.31,438.38,136.44Z" style="fill:#ffbda7"></path><path d="M403.37,130.2l4-1.52a2,2,0,0,0-2.68-1.34A2.32,2.32,0,0,0,403.37,130.2Z" style="fill:#263238"></path><path d="M419.07,129.18l3.68,2.23a2.13,2.13,0,0,0-.67-3A2.22,2.22,0,0,0,419.07,129.18Z" style="fill:#263238"></path><path d="M416.88,144.25l-6,1.9a3.13,3.13,0,0,0,4.21,2A3,3,0,0,0,416.88,144.25Z" style="fill:#b16668"></path><path d="M413.38,148.32a3.32,3.32,0,0,1,3.34-3c.1,0,.2,0,.3,0a2.82,2.82,0,0,1-1.92,2.75A3.43,3.43,0,0,1,413.38,148.32Z" style="fill:#f28f8f"></path><polygon points="413.23 131.26 411.93 142.57 405.87 140.24 413.23 131.26" style="fill:#f0997a"></polygon><path d="M417.75,134.54a1.82,1.82,0,0,0,1.67,2,1.83,1.83,0,1,0-1.67-2Z" style="fill:#263238"></path><path d="M403.82,133.74a1.79,1.79,0,1,0,1.9-1.71A1.81,1.81,0,0,0,403.82,133.74Z" style="fill:#263238"></path><path d="M412.52,158c4-.11,10.73-.11,14.14-4.56,0,0-.51,2.7-4.63,4.68-2.89,1.39-9.62,1.79-9.62,1.79Z" style="fill:#f0997a"></path></g><g id="freepik--arm--inject-230"><path d="M354.1,220.08c.35.69,1.18.95,1.47,1.65a2.7,2.7,0,0,1,0,1.1,3.55,3.55,0,0,0,1.09,2.73,4,4,0,0,1,.65.66,2.67,2.67,0,0,1,.29.92,7.4,7.4,0,0,0,2.28,3.6c.46.4.94.8,1.44,1.16a15,15,0,0,0,4.15,2.19,42.35,42.35,0,0,0,10.88,1.48c3.86,0,7.5-1,13.62-.64,9,.49,27.6.86,33.7.74s8.75-.64,12.49-8.44c3-6.23,4-8.13,10-22.22,7.94-18.58,7.92-29.43-3-34.52-5.83,1.77-9.87,9-12.85,16.73-3.46,8.93-11.48,28.4-11.48,28.4s-27.61,2.92-32.41,2.69c-4.51-.23-8.62-2.21-12.82-3.7-1.25-.45-2.45-1-3.67-1.45-1.42-.46-2.86-1-3.46-1.13-1.81-.3-1.19,2.93.07,4.16a33,33,0,0,0,2.7,2.25c.55.49,1.84,1.49.95,2.23s-2.32.35-3.69-.08c-.89-.28-1.71-.61-2.23-.79a43.94,43.94,0,0,0-6.51-2,4.19,4.19,0,0,0-3.27.45A1.3,1.3,0,0,0,354.1,220.08Z" style="fill:#ffbda7"></path><path d="M367.84,217.28c.51.66,1.2,1.12,1.68,1.66s.94,1.21.56,1.38c-1,.67-2.63,0-3.76-.35-2.77-.91-5.55-2-8.48-2.14,2.78.92,5.41,2.16,8.19,3.09a7.5,7.5,0,0,0,3.39.54c.94-.07,2-1.06,1.26-2.05s-1.82-1.32-2.84-2.13Z" style="fill:#f0997a"></path><path d="M418.91,215.62c-8.17.44-16.71,1.25-24.85,1.83-2.07.16-4.14.33-6.19.4-4.13.19-8.09-1.3-11.95-2.67l-5.91-2c5.76,2.36,11.5,5.69,17.88,5.6a296.53,296.53,0,0,0,31-3.14Z" style="fill:#f0997a"></path></g></g></g></g><g id="freepik--speech-bubble--inject-230"><g id="freepik--speech-bubble--inject-230"><g id="freepik--speech-bubble--inject-230"><path d="M183.2,222.81c-7.4-1.19-14.25-3.69-20-10.84-6.92-8.61-7.76-19.37-17.27-26.37-5.24-3.86-11.47-6.09-17.4-8.77-16.71-7.57-32.22-18.8-41.64-34.64-6.82-11.45-7.8-26-4.1-38.63C87.52,87.4,99,71.33,112.12,60.79c21.49-17.25,46.73-26.32,73.57-31.15,23.12-4.16,52.39-3.25,75.46,1.83,24.91,5.5,48.57,22.31,54,48.7,3.25,15.89.86,30.65-7.55,44.52-8.28,13.67-24.41,22.22-38.48,29.79S239.71,167,224.46,171.82c-5.59,1.76-11.25,3.52-16.24,6.58s-9.34,7.6-10.91,13.24.56,14,5.44,17.6c6.91,5.13,15.41,5.08,20.13,13.32a20.38,20.38,0,0,1,1.8,15.91c-.26.83-.76,1.79-1.63,1.8-1.12,0-1.48-1.47-1.66-2.57a14.32,14.32,0,0,0-6.94-9.6c-4.5-2.72-9.51-2.83-14.56-3.49C194.34,223.88,188.73,223.7,183.2,222.81Z" style="fill:#BA68C8"></path><path d="M183.2,222.81c-7.4-1.19-14.25-3.69-20-10.84-6.92-8.61-7.76-19.37-17.27-26.37-5.24-3.86-11.47-6.09-17.4-8.77-16.71-7.57-32.22-18.8-41.64-34.64-6.82-11.45-7.8-26-4.1-38.63C87.52,87.4,99,71.33,112.12,60.79c21.49-17.25,46.73-26.32,73.57-31.15,23.12-4.16,52.39-3.25,75.46,1.83,24.91,5.5,48.57,22.31,54,48.7,3.25,15.89.86,30.65-7.55,44.52-8.28,13.67-24.41,22.22-38.48,29.79S239.71,167,224.46,171.82c-5.59,1.76-11.25,3.52-16.24,6.58s-9.34,7.6-10.91,13.24.56,14,5.44,17.6c6.91,5.13,15.41,5.08,20.13,13.32a20.38,20.38,0,0,1,1.8,15.91c-.26.83-.76,1.79-1.63,1.8-1.12,0-1.48-1.47-1.66-2.57a14.32,14.32,0,0,0-6.94-9.6c-4.5-2.72-9.51-2.83-14.56-3.49C194.34,223.88,188.73,223.7,183.2,222.81Z" style="fill:#fff;opacity:0.30000000000000004"></path><path d="M72.66,127.79c1,4.72,6.38,16-.1,18.19a8,8,0,0,1-5-.25A22.44,22.44,0,0,1,57.28,138,35.57,35.57,0,0,1,50,117.86a36.52,36.52,0,0,1,6.33-22c3.74-5.35,9.26-10.3,15.46-9.43,5,.7,6.9,4.58,4.71,9.27A49.52,49.52,0,0,0,72.66,127.79Z" style="fill:#BA68C8"></path><path d="M72.66,127.79c1,4.72,6.38,16-.1,18.19a8,8,0,0,1-5-.25A22.44,22.44,0,0,1,57.28,138,35.57,35.57,0,0,1,50,117.86a36.52,36.52,0,0,1,6.33-22c3.74-5.35,9.26-10.3,15.46-9.43,5,.7,6.9,4.58,4.71,9.27A49.52,49.52,0,0,0,72.66,127.79Z" style="fill:#fff;opacity:0.30000000000000004"></path></g><g id="freepik--Letters--inject-230"><path d="M147,171.38l2.68-1.81L147,140.18l3.41-2.07,19.06,22.26,3.27-1,.32,1-9.81,4.56-.31-1,3.12-2.07-5.56-6.72-10.09,4.7.89,8.9,3.92-1.23.32,1-8.3,3.87Zm1.64-29.3,1.66,16.22,9.3-4.32-10.06-12.32Z" style="fill:#fff"></path><path d="M127.33,163.27l0-16.13-2.2-.44.1-1.21,3.91-.13.4.25,0,8-.47,5.72.2,0,.79-3.38c.76-3.35,1.8-4.85,4-4.92,2.53-.08,3.71,1.9,3.82,5.1.16,5-2.25,7.89-5.76,8A11.6,11.6,0,0,1,127.33,163.27Zm3.22-4-.73,2.92a5.12,5.12,0,0,0,2.27.46c2.26-.08,3.48-2.79,3.37-6.21-.05-1.38-.14-3.57-1.67-3.52C132,153,131.62,155.11,130.55,159.3Z" style="fill:#fff"></path><path d="M146,102.93a1.93,1.93,0,0,1-.21,2.86,2.21,2.21,0,0,1-2.42.22v-1c.07-1.81-1.32-1.67-2.5-.71-2.19,1.81-1.81,4.85,1.16,8.48,1.86,2.27,4.21,3.38,6.15,1.79,1.5-1.23,1.62-3.08,1.76-4.48l1.62.19c.06,1.23,0,4.36-2.45,6.36-3.1,2.55-6.71,1.55-9.45-1.79-3.37-4.11-3.59-9,.08-12C141.88,101.14,144.42,101,146,102.93Z" style="fill:#fff"></path><path d="M169,104.61a22.25,22.25,0,0,1-6.78-.93l-7.47-2.1L155,101l3.42.4,7.1-21.59-2.94-1.49.25-.61,9.4,2.64a14,14,0,0,1,7.68,4.77c1.78,2.43,2.16,5.5,1.15,9.12C179.14,100.93,175.09,104.41,169,104.61Zm-8.32-2.3,1.54.43a17.93,17.93,0,0,0,5.38.75c5.28-.18,8.85-3.42,10.6-9.65,2.47-8.78-3.28-11.81-6.92-12.84l-3.38-1Z" style="fill:#fff"></path><path d="M252.06,134.8c2.64,2.79,1,6.13-.66,8.75l-2,3.15c1.76,1.56,4.45,2.62,6.5.68a6.67,6.67,0,0,0,1.73-4.72l1.87.2a8.49,8.49,0,0,1-2.5,6.89c-3.3,3.12-7.52,2.22-10.81-1.26-4.15-4.38-4.77-9.81-1-13.41C247.82,132.61,250.21,132.85,252.06,134.8Zm-5.66,2c-1.93,1.82-1.35,4.92,1.55,8.38l1.7-2.72c1.34-2.13,1.53-3.61,0-5.26C248.69,136.22,247.46,135.79,246.4,136.8Z" style="fill:#fff"></path><path d="M209.27,113.26l-1.52,3.34,5,2-1,2.18-4.85-1.89-5.07,11.6c-1.86,4.23-4.77,8.34-7.71,10a4.35,4.35,0,0,1-3.85.53c-1.47-.57-2.14-1.68-1.77-2.85a4.48,4.48,0,0,1,1.91-2.17l1.32,1.27c1.07,1.06,2.26,1.05,3.19-.7.62-1.15,1.09-2.24,1.75-3.72l6.63-15.39-3.12-1.22,1-1.88,3.05.85.81-1.76c2.09-4.6,5.95-7.11,10.65-5.28,2.31.9,4.84,3.11,3.65,6.16a2.22,2.22,0,0,1-3.1,1.33,2.81,2.81,0,0,1-1.68-1.76l.76-.88c1.27-1.41,1-2.47-.57-3.1C212.38,109,210.46,110.63,209.27,113.26Z" style="fill:#fff"></path><path d="M203.09,86.53l-.34,2.63c-.61,4.41-1.55,6.47-4.53,6.85-3.34.44-5.11-2.41-5.59-6.06-.75-5.73,1.58-10.09,5.94-10.66a11.22,11.22,0,0,1,4,.23l1.31-1,1,.18,1.24,13.33c.45,4.93-1,9.83-7.1,10.62-2.23.3-4.85-.17-5.14-2.41a2.09,2.09,0,0,1,1.75-2.54,2.5,2.5,0,0,1,1.92.59l-.16.9c-.32,1.41.26,2,1.91,1.78,3.19-.42,4.46-3.58,4.26-8.45l-.26-6Zm-1.34-1.2.53-3.84a7.44,7.44,0,0,0-3.06-.29c-2.88.38-4,3.9-3.47,8.25.21,1.65.65,4.56,2.74,4.29S201,90.82,201.75,85.33Z" style="fill:#fff"></path><path d="M220.75,87l-1.7,9.83,3.49,1-.47,1.81L211.7,98.16l.47-1.81,3.09,0L219,74.94l-3.1-1.07.47-1.76,10.1,1.35L226,75.27l-3.26.17-1.56,9L232.42,86l1.6-9-3.1-1.06.47-1.77,10.07,1.35L241,77.28l-3.26.17L234,98.79l3.49,1-.47,1.81-10.37-1.39.47-1.81,3.1-.08L232,88.46Z" style="fill:#fff"></path><path d="M160,124.23a5.5,5.5,0,0,0-1.86.55l-.55-1.46a7.78,7.78,0,0,1,3.67-1.2c1.73-.06,2.59,1,2.52,3.4l-.39,9.74c0,.9.07,1.33.75,1.3a3.22,3.22,0,0,0,1.79-1l.78,1.24a5.76,5.76,0,0,1-3.77,1.82c-2,.07-2.59-1.09-2.59-2.81l.46-10.36C160.78,124.66,160.67,124.2,160,124.23Zm1.7-9.32a2,2,0,0,1,2.14,2,2.09,2.09,0,1,1-2.14-2Z" style="fill:#fff"></path><path d="M183.2,183.34a4.18,4.18,0,0,1-3.13,1.87c-1.58,0-2.42-.73-2.53-1.87a3.92,3.92,0,0,1,.84-2.45l1.6.61c1.27.47,2.32.07,2.48-1.77.11-1.22.11-2.36.13-3.87l.11-14.42c0-1-.16-1.5-1-1.47a6.74,6.74,0,0,0-2.26.66l-.65-1.75a9.41,9.41,0,0,1,4.37-1.43c2.05-.06,3.09,1.26,3,4.13l-.06,10.52C186.13,176.15,185,181,183.2,183.34Zm.3-34.46a2.36,2.36,0,0,1,2.55,2.41,2.48,2.48,0,1,1-2.55-2.41Z" style="fill:#fff"></path><path d="M201.06,141.39l.54-1.42,4.7,1.17.39.44-3.9,13.15a12.26,12.26,0,0,0,5-.78c1.36-.5,1.8-1.26,1.09-1.93l-.69-.7a2.33,2.33,0,0,1,2.75-1.46,2,2,0,0,1,1.47,2.6c-.39,1.55-1.53,2.29-3.9,3.07a20.75,20.75,0,0,1-2.22.57L208,162c.41,1.34.72,2,1.48,2.17a3,3,0,0,0,1.68-.15l.39,1.31a5.26,5.26,0,0,1-3.63.5c-1.61-.4-2.11-1.52-2.58-3.09l-1.72-6.23-1.37,0-2.06,6.94-2.63-.65,5.94-20.12Z" style="fill:#fff"></path><path d="M250.75,127.87l2.31-1.46L246.12,108l-2.76.58-.22-.76,7.93-3.38.21.73-2.95,1.87,7,18.46,4.78-2c2-.85,2.54-1.9,2.3-4.32l-.14-1.43,1-.44,1.51,5.41L251,128.6Z" style="fill:#fff"></path><path d="M121.16,137.94l-3.77,1.84L103.5,118.42l4.77,21,3.52-.48.33,1.92-9.1,2.74-.33-1.92,2.94-1.46-5-22.06-3.36.31L97,116.64l8.42-2.54,13.28,20.72.47-24.86,8.31-2.5.34,2L125,110.86l7.28,21.41,3.66-.56.33,1.92L126,136.73l-.33-1.92,3-1.42-7-20.88Z" style="fill:#fff"></path><path d="M262.61,94.29c-1.72,0-2.27-.9-2.21-2.32l.43-7.89c.08-1.78-.19-2.35-1-2.33-1.09,0-1.42.88-2.12,3.21l-2.8,9.19-2.69.09.06-11.55c0-.74-.2-1.07-.76-1a4.84,4.84,0,0,0-1.56.52l-.52-1.4a8.12,8.12,0,0,1,3.24-1.05c1.61,0,2.25.9,2.15,2.76l-.45,7.4.19,0,1.77-6c.85-3,1.91-4.34,4.08-4.41,2.46-.08,3.26,1.47,3.11,4.5l-.37,7.28c-.05.84.07,1.2.68,1.18a3,3,0,0,0,1.45-.66l.67,1.09A6,6,0,0,1,262.61,94.29Z" style="fill:#fff"></path><path d="M183.76,115.29c4,1.17,5.26,4.7,4,9s-4.42,7.76-9.4,6.3c-3.91-1.15-5.22-4.62-3.93-9S178.72,113.81,183.76,115.29Zm1,8.09c.93-3.16.81-5.65-1.68-6.38-3-.88-4.6,2.17-5.61,5.59-.94,3.18-.65,5.63,1.64,6.3C182,129.76,183.69,126.88,184.72,123.38Z" style="fill:#fff"></path><path d="M126.26,93.05l-.31-.22,0-9.37L125.54,71a1.9,1.9,0,0,0-.46-1.38,1.2,1.2,0,0,0-.93-.28l-.16,0a5.64,5.64,0,0,0-1.6.55l-.37-1a8.83,8.83,0,0,1,3.1-1.15,4.1,4.1,0,0,1,.49-.06,2.06,2.06,0,0,1,1.64.46,3,3,0,0,1,.6,2.33s-.34,7-.35,8.41.84,1.34,1.09.06,1-5,1-5c.89-4.67,2.1-6.45,4.62-6.83.16,0,.33,0,.51-.06a4.06,4.06,0,0,1,3.7,1.56A9.43,9.43,0,0,1,140,73.8c.42,6.19-2.17,10.62-6.61,11.29h0a6,6,0,0,1-.61.06,9.11,9.11,0,0,1-3.91-.59l-.61-.26,0,7.2,3.25.2,0,.93ZM134,68.91c-2.42.36-3,3.12-4.08,8.13l-.35,1.58-1,4.49.36.14a8,8,0,0,0,3.48.58l.36,0c3.17-.48,5-4.31,4.6-9.78-.13-1.85-.36-5.31-3.07-5.13Z" style="fill:#fff"></path><path d="M289.73,133.85a4.73,4.73,0,0,1-1.43-.19c-2-.57-3.85-2.19-6.17-5.42l-.12-.17c-2.62-3.82-3.71-5.39-6.63-6.23a9.56,9.56,0,0,0-3.1-.37,27.35,27.35,0,0,0-3,.31l-.31-1.91a18.2,18.2,0,0,1,2.57-.26,13.27,13.27,0,0,1,1.56,0s0,0,.45,0,1-.78.32-1.13l-.37-.22c-5.77-3.35-8-9.7-5.88-17,2.44-8.52,7.64-13.34,14.63-13.57a17.68,17.68,0,0,1,5.55.73,13.36,13.36,0,0,1,8.52,6.57c1.75,3.35,2,7.58.63,12.24-2.38,8.3-7.38,12.81-14.47,13a20,20,0,0,1-4.09-.31l-.49-.08c-1.11-.18-1.32.87-.38,1.31l.43.2a14.49,14.49,0,0,1,6,4.86c2.06,2.66,3.15,3.6,4.18,3.56a1.83,1.83,0,0,0,1.47-1l.66-1.09a4.27,4.27,0,0,1,2.24,1.52,2.56,2.56,0,0,1,.29,2.19A3.08,3.08,0,0,1,289.73,133.85Zm-6.57-43.93c-3.59.12-8.45,2.3-11.24,12-2.53,8.82-.37,14.7,6.07,16.55a9.71,9.71,0,0,0,3.05.38c5.18-.17,9.38-4.54,11.52-12,2.45-8.57.22-14.74-6-16.52A11.36,11.36,0,0,0,283.16,89.92Z" style="fill:#fff"></path><path d="M146.26,60a6.49,6.49,0,0,0-2,1.06l-1-1.77a11.21,11.21,0,0,1,4.22-2.16c2.11-.42,3.09.81,3.37,3.33l.5,5.33h.23l1-5c.61-3.05,1.2-4.9,3.57-5.38a2.71,2.71,0,0,1,3.5,2,3,3,0,0,1-1.46,3.11l-.93-.82c-.52-.47-.88-.71-1.43-.59-.86.17-1.05.94-1.82,4.18-1.29,5.65-1.58,7.29-1.28,9.89l.25,3-3.11.63-2.4-15.55C147.36,60.29,147,59.85,146.26,60Z" style="fill:#fff"></path><path d="M205.86,68c-4.46,2.38-8.41,1.71-9.82-.93-.91-1.71-.45-3.35,1-4.12a4,4,0,0,1,3.19-.31l0,1.5c0,1.76,1.34,3,4.58,1.24,2.87-1.53,4.69-4.37,3-7.65-3-5.58-14.32,1.67-18.56-6.26-1.65-3.09-1.85-8.48,4.55-11.9,3.84-2,8-1.67,9.57,1.35a2.64,2.64,0,0,1-1.07,3.73,4.29,4.29,0,0,1-2.95.38l-.07-1.83c-.05-1.79-1.64-2.62-4.39-1.15-3.39,1.81-4.12,4.21-2.87,6.55,3.14,5.88,14.52-1.48,18.79,6.52C213.25,59.68,211.3,65.07,205.86,68Z" style="fill:#fff"></path><path d="M228,157.43a4.33,4.33,0,0,1-3.3-1,4.87,4.87,0,0,1-1.14-3.62l.14-11.88-2.82.09.11-1,2.69-.37,1.31-5.87,1.36,0-.12,5.94,5.38-.18,0,1.18-5.37.18L226,152.44a3.66,3.66,0,0,0,.84,2.78,2.63,2.63,0,0,0,2,.65,5.32,5.32,0,0,0,3.44-1.73l.58.63A6.48,6.48,0,0,1,228,157.43Z" style="fill:#fff"></path><path d="M173.84,51.63c1.54.39,1.82,1.39,1.36,2.67l-2.43,6.93c-.53,1.55-.55,2.16.26,2.36s1.42-.44,2.69-2.39l4.82-7.5,2.44.62-3.06,10.35c-.2.68-.12,1,.41,1.15a5.17,5.17,0,0,0,1.54-.06l.13,1.37a7.32,7.32,0,0,1-3.19.12c-1.48-.37-1.81-1.39-1.23-3l2.34-6.57-.2-.08-3.07,5c-1.45,2.34-2.76,3.39-4.78,2.88-2.21-.56-2.43-2.19-1.52-4.85l2.22-6.42c.25-.69.25-1.09-.3-1.23a2.63,2.63,0,0,0-1.48.22L170.5,52A5.65,5.65,0,0,1,173.84,51.63Z" style="fill:#fff"></path><path d="M258.1,51.21c2.07,4.63,3.75,14.27-2.36,17-2,.9-4.66,1.42-6.44-3.15L246,56.52c-.41-1-1-1.06-1.7-.49l-1.13,1-1.22-1.31a9.65,9.65,0,0,1,3.25-2.67c1.88-.84,3,0,3.64,1.59l3.32,8.77c.75,2,1.49,3.07,3.15,2.33,3.49-1.56,2.62-8,1.28-11.38-.58-1.56-1.05-1.79-2-1.74l-1.29.1c-.9-1.42-.68-3,.8-3.66C255.86,48.28,257.27,49.36,258.1,51.21Z" style="fill:#fff"></path><path d="M229.58,60.58a2.56,2.56,0,0,1-2.77-2.33l-.22-1.35L226,58.13a4.29,4.29,0,0,1-4,2.7,3,3,0,0,1-2.31-.75,4.28,4.28,0,0,1-1-3.2l.12-7.54a1.49,1.49,0,0,0-.38-1.1,1.08,1.08,0,0,0-.81-.29,1.68,1.68,0,0,0-.59.12l-.72.25-.23-.6a7.47,7.47,0,0,1,2.76-.79,1.79,1.79,0,0,1,1.37.41,1.92,1.92,0,0,1,.44,1.48l-.19,7.57a3.68,3.68,0,0,0,.7,2.8,1.91,1.91,0,0,0,1.45.5c2.66-.09,4-3.32,3.83-9.1a31.81,31.81,0,0,0-.31-3.29l1.69-.26a16.57,16.57,0,0,1,.32,3,45,45,0,0,1-.27,5.88c-.12,1.15-.14,2.31.49,3a2,2,0,0,0,1.61.55c3.35-.11,4.56-5.94,4.59-8.58,0-1.48-.31-2.07-1.33-2.41l-.74-.24a1.91,1.91,0,0,1,.34-1.35,1.24,1.24,0,0,1,1-.4c.84,0,2,.21,2,2.62C236,53.62,234.13,60.43,229.58,60.58Z" style="fill:#fff"></path><path d="M276.76,70.53c.69-1.19.82-1.91,0-2.15l-.81-.24a1.71,1.71,0,0,1,1.17-1.83,1.46,1.46,0,0,1,1.93,1c.44,1.25-.23,2.38-1.43,4.35L276.83,73l2.89,3c.74.77,1.06.91,1.58.74a2.45,2.45,0,0,0,1.07-.82l.81.69a3.9,3.9,0,0,1-2.1,1.83,2.48,2.48,0,0,1-3-.78l-2.72-2.8-1.31,2.08c-.73,1.16-.58,1.88.41,1.92h.6a1.69,1.69,0,0,1-1.06,2,1.52,1.52,0,0,1-2.06-1c-.41-1.19-.05-2.11,1.22-4l1.26-1.94L271.62,71c-.67-.7-1-.65-1.36-.54a3.91,3.91,0,0,0-1.12.84l-.81-1a6,6,0,0,1,2.29-1.64,2.24,2.24,0,0,1,2.65.71L275.9,72Z" style="fill:#fff"></path><path d="M112,98.57l-.43-6.87-1.62.62-.41-.84,4-2.59.44.92L112.87,91l.37,8.51,2,3.4,1.71-.8.42.88-4.61,3-.42-.88,1.22-1.1-1.94-3.41-7.36-4.09-1.41.55-.42-.91,4.43-2.85.44.89-1.24,1.11,5.9,3.38Z" style="fill:#fff"></path><path d="M236.51,111.82l.43,1.19-8.68,11.75a8,8,0,0,1,1.88-.27c1.27,0,2.34.3,3.31.27s1.22-.72,2.11-3.38l1.5,0-.67,5.51c-2.67.74-5.53-.08-7.8,0a5,5,0,0,0-2.31.55L225.2,126l8.61-11.83-4.54.15c-1.56,0-1.81.44-2.35,2.94l-1.53.14.25-4.88.31-.34Z" style="fill:#fff"></path></g></g></g></svg>
