<svg xmlns="http://www.w3.org/2000/svg" viewBox="0 0 500 500"><g id="freepik--background-simple--inject-34"><path d="M327.3,34.54S252.79,8.05,179.66,50.23s-110,125.9-141.73,193S24.49,378.49,80.31,409.6s93.79-14.75,172.11-17,99.38,9,164.37-35.28,76.74-148.73,25.47-226S327.3,34.54,327.3,34.54Z" style="fill:#92E3A9"></path><path d="M327.3,34.54S252.79,8.05,179.66,50.23s-110,125.9-141.73,193S24.49,378.49,80.31,409.6s93.79-14.75,172.11-17,99.38,9,164.37-35.28,76.74-148.73,25.47-226S327.3,34.54,327.3,34.54Z" style="fill:#fff;opacity:0.7000000000000001"></path></g><g id="freepik--Graphics--inject-34"><path d="M458.21,313c-14.07-22.34-22.51-29.79-20.63-51.2s12.19-44.69,5.62-59.58a101.84,101.84,0,0,0-15.94-25.14s11.26,22.35,2.82,42.83S401,255.34,401,281.35s11.77,44.22,5.42,57.48-26.05,18.85-26.05,18.85,16.88-15.82,8.44-33.51-18.75-27-20.63-39.1,1.88-29.79,1.88-29.79-26.26,31.65-22.51,49.34,4.69,35.38,0,40a29.73,29.73,0,0,1-10.32,6.52s7.5-12.11,0-21.41c0,0-10-13.06-12.19-20.49s0-33.51,0-33.51S309.1,301.83,311,314.86s-1.87,31.65-3.75,34.44a18.5,18.5,0,0,0-2.46,5.48v0c-1.4-2.08-4.2-16-2.8-25.67S291.47,300,291.47,300s1.64,19.44,0,25-9.09,15.26-9.09,15.26c-5.59,6.94,0,16,0,16a22,22,0,0,1-7.68-4.86c-3.5-3.47-2.8-16.65,0-29.83s-16.77-36.77-16.77-36.77,2.79,13.19,1.39,22.2-9.08,16-15.37,29.14,6.29,25,6.29,25-14.68-4.16-19.41-14,4-23.46,4-42.84-15.37-30.52-21.66-45.79,2.1-31.91,2.1-31.91a76.12,76.12,0,0,0-11.89,18.73c-4.89,11.1,2.8,28.45,4.2,44.4s-4.89,21.51-15.38,38.16A54.5,54.5,0,0,0,187,338.27c-1.17-7-1.88-16.1-.83-23.41,1.87-13-14.07-39.1-14.07-39.1s2.2,26.09,0,33.51S160,329.76,160,329.76c-7.5,9.3,0,21.41,0,21.41a29.73,29.73,0,0,1-10.32-6.52c-4.69-4.65-3.75-22.34,0-40s-22.5-49.34-22.5-49.34S130.88,273,129,285.07s-12.19,21.41-20.63,39.1,8.44,33.51,8.44,33.51-19.69-5.58-26-18.85,5.43-31.48,5.42-57.48-20.63-41-29.07-61.44,2.81-42.83,2.81-42.83A101.84,101.84,0,0,0,54,202.22c-6.57,14.89,3.75,38.17,5.62,59.58S53,290.66,39,313s-10.31,41-10.31,41l4.68,16.76h430.5L468.53,354S472.28,335.34,458.21,313Z" style="fill:#92E3A9"></path><path d="M218.53,97.54c0-6.44-1.59-11.11-6.44-13.14,4.32-2,6.35-6.17,6.35-12.51V67c0-9.52-4.32-14.19-14.37-14.19H189.44V69.06a30,30,0,0,0-14.25-5.26c-10.55-.88-28.12,4.39-28.12,4.39s17.57,0,25.48,4.39c4.62,2.57,10.74,5.74,15,7.93-7.43,2-15.12,6.25-24.69,11.4-11.42,6.15-20.21,1.76-20.21,1.76s8.79,6.15,23.72,6.15c9.19,0,17.78-3,23-5.32v.73c-1.32.74-2.65,1.46-4,2.1a62.06,62.06,0,0,1-11.9,4.26,57.39,57.39,0,0,1-6.23,1.16c-2.09.27-4.25.4-6.21.47a31.24,31.24,0,0,1-11.87-2.07,67.13,67.13,0,0,1-11.91-6.38c-4.09-2.54-8.52-5.37-13.64-6.92a27.25,27.25,0,0,0-3.88-.89,35.62,35.62,0,0,0-3.84-.37,31.54,31.54,0,0,0-7.59.55,25.88,25.88,0,0,0-13.1,6.53,24.58,24.58,0,0,1,13.38-3.75,28.23,28.23,0,0,1,6.75.83,28.67,28.67,0,0,1,3.23,1,22.47,22.47,0,0,1,3,1.33c3.83,2,7.12,5.11,10.62,8.39a77.07,77.07,0,0,0,11.92,9.68,43.89,43.89,0,0,0,15.57,6,55.37,55.37,0,0,0,8.17.84,75.33,75.33,0,0,0,8.09-.17A79.52,79.52,0,0,0,191,115.1v-.55h8.13V89.43h3.35c4.41,0,6.35,2.11,6.35,7.84V107c0,5,.35,6,.88,7.58h9.87c-1-2.29-1.05-4.49-1.05-7.49Zm-9.79-23.45c0,4.94-2.2,6.52-5.82,6.52h-3.79v-19h4.68c3.43,0,4.93,1.94,4.93,6.35Z" style="fill:#92E3A9"></path><path d="M273.44,115.26c9.52,0,14.46-5.64,14.46-15.52v-8.2h-9.17v8.82c0,4.41-1.94,6-5,6s-5-1.58-5-6V67c0-4.41,1.94-6.08,5-6.08s5,1.67,5,6.08v6.61h9.17v-6c0-9.88-4.94-15.52-14.46-15.52S259,57.78,259,67.66V99.74C259,109.62,263.92,115.26,273.44,115.26Z" style="fill:#92E3A9"></path><path d="M238.8,52.14c-9.52,0-14.72,5.64-14.72,15.52V99.74c0,9.88,5.2,15.52,14.72,15.52s14.72-5.64,14.72-15.52V67.66C253.52,57.78,248.32,52.14,238.8,52.14Zm-5.76,51H230V88.3H233Zm2.75-25.71h-2v3.71h-3V77.47h-3.13v-3h3.13V69h3v5.45h2Zm4.3,25.71H237V88.3h3.07Zm7,0h-3.07V88.3h3.07Zm2.2-25.71h-2v3.71h-3V77.47h-3.13v-3h3.13V69h3v5.45h2Z" style="fill:#92E3A9"></path><polygon points="224.26 182.18 251.25 182.18 251.25 173.18 234.16 173.18 234.16 154.74 247.74 154.74 247.74 145.74 234.16 145.74 234.16 128.19 251.25 128.19 251.25 119.19 224.26 119.19 224.26 182.18" style="fill:#92E3A9"></polygon><path d="M269.88,133.68c0-4.5,1.8-6.21,4.95-6.21s4.95,1.71,4.95,6.21v2.61h9.35v-2c0-10.08-4.95-15.83-14.57-15.83S260,124.23,260,134.31c0,18,19.35,20.43,19.35,33.38,0,4.5-2,6.12-5.13,6.12s-5.13-1.62-5.13-6.12V163.2h-9.36v3.86c0,10.08,5,15.84,14.76,15.84s14.75-5.76,14.75-15.84C289.22,149.07,269.88,146.64,269.88,133.68Z" style="fill:#92E3A9"></path><path d="M190.12,119.14l-.12,0h-.56v.24c-3.56,1.44-20.58,7.53-36.22-.29C135.65,110.36,133,108.6,133,108.6s15.81,17.57,27.23,22c9,3.47,23.47,2,29.19,1.25v50.37h9.89v-26h12.78v-9H199.33v-19h16.29v-9H190.13Z" style="fill:#92E3A9"></path><path d="M393.24,87.14a31.63,31.63,0,0,0-7.6-.55,35.44,35.44,0,0,0-3.83.37,26.94,26.94,0,0,0-3.88.89c-5.12,1.55-9.56,4.38-13.64,6.92a67.82,67.82,0,0,1-11.91,6.38,31.27,31.27,0,0,1-11.87,2.07c-2-.07-4.12-.2-6.21-.47a56.94,56.94,0,0,1-6.23-1.16,60,60,0,0,1-8.36-2.72L319,97.1a53.86,53.86,0,0,0,16.16,2.72c14.94,0,23.72-6.15,23.72-6.15s-8.78,4.39-20.2-1.76c-9.57-5.15-17.26-9.42-24.7-11.4,4.29-2.19,10.41-5.36,15-7.93,7.91-4.39,25.48-4.39,25.48-4.39s-17.57-5.27-28.11-4.39a27.61,27.61,0,0,0-6.55,1.38l6.05-12.33h-9.7L303.5,79.73V52.85h-9.7v61.7h9.7v-19l3-5.64,9.43,24.59h1.64l.19.55c4.93,1.37,2.79,2.3,7.88,2.7a75.52,75.52,0,0,0,8.1.17,55.24,55.24,0,0,0,8.16-.84,43.82,43.82,0,0,0,15.57-6,76.69,76.69,0,0,0,11.93-9.68c3.5-3.28,6.79-6.35,10.61-8.39a23.71,23.71,0,0,1,3-1.33,30,30,0,0,1,3.23-1,28.31,28.31,0,0,1,6.76-.83,24.52,24.52,0,0,1,13.37,3.75A25.88,25.88,0,0,0,393.24,87.14Z" style="fill:#92E3A9"></path><path d="M325.73,122.76l-14-3.5-.28-.12v0H295.88v9h10.35v54h9.9V132.27c6.9.67,17.86,1.12,25.19-1.71,11.42-4.39,27.24-22,27.24-22s-2.64,1.76-20.21,10.54A40.54,40.54,0,0,1,325.73,122.76Z" style="fill:#92E3A9"></path></g><g id="freepik--character-2--inject-34"><polygon points="261.32 191.79 273.47 166.59 262.84 193 261.32 191.79" style="fill:#263238;stroke:#263238;stroke-linecap:round;stroke-linejoin:round"></polygon><path d="M274.56,166.59a1.09,1.09,0,1,0-1.09,1.09A1.09,1.09,0,0,0,274.56,166.59Z" style="fill:#263238;stroke:#263238;stroke-linecap:round;stroke-linejoin:round"></path><polygon points="235.38 205.46 247.53 180.25 236.9 206.67 235.38 205.46" style="fill:#263238;stroke:#263238;stroke-linecap:round;stroke-linejoin:round"></polygon><path d="M248.62,180.25a1.09,1.09,0,1,0-1.09,1.09A1.09,1.09,0,0,0,248.62,180.25Z" style="fill:#263238;stroke:#263238;stroke-linecap:round;stroke-linejoin:round"></path><path d="M222.81,300l-2,7.15s4,2.78,7.94,2.78,1.19,6.35,1.19,6.35-5.56.8-9.53,1.2-8.34-3.58-11.51-4.77-7.15-2.78-7.15-2.78l6.75-11.52,2-3.57Z" style="fill:#263238;stroke:#263238;stroke-linecap:round;stroke-linejoin:round"></path><path d="M217.41,183.61s-2.36,8.56-4.72,11.8-3.84,3.84-10,4.43-10.63,3.55-12.4,8-5.9,30.41-4.72,32.77-1.77,21.55,4.72,25.09,31.88-2.07,31.88-2.07L211.7,302.77h10.92s17.52-39.17,21.95-46,6.79-14.46,3.83-15.64-16.23-.3-16.23-.3l-8,2.07s-2.36-10.92,3.25-20.66,11.51-13,10-18.3-13-4.73-13-4.73l2.07-5Z" style="fill:#919191;stroke:#263238;stroke-linecap:round;stroke-linejoin:round"></path><path d="M227.45,222.28c5.6-9.74,11.51-13,10-18.3s-13-4.73-13-4.73,3.25,9.45-3.24,8.56-10.93-9.74-10.93-9.74l-.14,0c-1.56,1.06-3.59,1.44-7.53,1.81-6.2.59-10.63,3.55-12.4,8s-5.9,30.41-4.72,32.77a4.75,4.75,0,0,1,.27,1.58c2.85,2.28,6.85,5,9.77,5.21,5,.29,28.63-4.43,28.63-4.43S221.84,232,227.45,222.28Z" style="fill:#263238;stroke:#263238;stroke-linecap:round;stroke-linejoin:round"></path><path d="M202.65,199.84s1.18-2.65.89,5.61-5.32,27.75-5.32,27.75,10-3.54,16.83-6.5,8.56-3.54,8.56-3.54l.59,3.84s-19.78,19.78-28,21.55-11.81-5.32-11.81-10.33,4.13-27.75,6.49-32.18S199.7,199.55,202.65,199.84Z" style="fill:#919191;stroke:#263238;stroke-linecap:round;stroke-linejoin:round"></path><path d="M222.72,163.54s-5.61,5.6-5.9,13,0,10.93,1.18,13.88,6.49,8.26,11.22,6.79,10.33-13.58,10-22.14S231.28,158.52,222.72,163.54Z" style="fill:#919191;stroke:#263238;stroke-linecap:round;stroke-linejoin:round"></path><path d="M231.12,172.57s.19,4.67-2.34,6.62-5.83,2.91-6.61,4.47,0,3.31-1.36,4.86-3.31,6-3.31,6-.78,1.16-4.67-1.56-6.81-5.84-6-8-.59-1.36-1.17-5.06a7.73,7.73,0,0,1,3.7-7.78c1.94-1,1.75-1,4.08-5.06s2-4.47,4.87-6,4.28-1.36,6-2.14,3.69-1.94,6.22,0,5.45,4.67,7.59,5.25,3.11,1.37,5.06,6.43,3.11,6,.78,7.58-3.51,2.53-2.92,3.31,1.36,1,.39,2.14a8,8,0,0,1-3.12,2.33c-1,.39-2.33,1-2.33,1a50.67,50.67,0,0,0,1.17-6.42c.19-2.53,1.36-5.06-.2-5.84S231.12,172.57,231.12,172.57Z" style="fill:#263238;stroke:#263238;stroke-linecap:round;stroke-linejoin:round"></path><ellipse cx="328.48" cy="164.43" rx="32.76" ry="8.95" style="fill:#fff;stroke:#263238;stroke-linecap:round;stroke-linejoin:round"></ellipse><polyline points="326.9 164.59 326.9 293.62 306.67 318.61" style="fill:none;stroke:#263238;stroke-linecap:round;stroke-linejoin:round;stroke-width:2px"></polyline><line x1="326.9" y1="293.62" x2="343.96" y2="318.22" style="fill:none;stroke:#263238;stroke-linecap:round;stroke-linejoin:round;stroke-width:2px"></line><line x1="326.9" y1="295.6" x2="326.9" y2="318.22" style="fill:none;stroke:#263238;stroke-linecap:round;stroke-linejoin:round;stroke-width:2px"></line><path d="M291,187.24c-1.66-4.36-12.1-4.46-23.33-.21s-19,11.24-17.34,15.6l13.59,33.52,40.66-15.39Z" style="fill:#bdbdbd;stroke:#263238;stroke-linecap:round;stroke-linejoin:round"></path><path d="M268.78,190.23c11.29-4.27,21.79-4.18,23.45.21l-1.28-3.2c-1.66-4.36-12.1-4.46-23.33-.21s-19,11.24-17.34,15.6l.87,2.14C251,200.37,258.42,194.15,268.78,190.23Z" style="fill:#fff;stroke:#263238;stroke-linecap:round;stroke-linejoin:round"></path><path d="M262.12,231.84l1.75,4.31,40.66-15.39-1.8-4.44c-5.05-1.3-13.32-.34-22,3C271.9,222.61,265,227.47,262.12,231.84Z" style="fill:#fff;stroke:#263238;stroke-linecap:round;stroke-linejoin:round"></path><path d="M264.08,236.71c1.54,4.06,11.88,3.9,23.11-.35s19.09-11,17.56-15-11.88-3.9-23.11.35S262.55,232.66,264.08,236.71Z" style="fill:#fff;stroke:#263238;stroke-linecap:round;stroke-linejoin:round"></path><line x1="254.01" y1="198.26" x2="256.42" y2="203.09" style="fill:none;stroke:#263238;stroke-linecap:round;stroke-linejoin:round;stroke-width:2px"></line><line x1="269.71" y1="188.9" x2="271.52" y2="193.13" style="fill:none;stroke:#263238;stroke-linecap:round;stroke-linejoin:round;stroke-width:2px"></line><line x1="286.62" y1="186.79" x2="288.43" y2="191.01" style="fill:none;stroke:#263238;stroke-linecap:round;stroke-linejoin:round;stroke-width:2px"></line><line x1="263.37" y1="227.25" x2="264.88" y2="230.57" style="fill:none;stroke:#263238;stroke-linecap:round;stroke-linejoin:round;stroke-width:2px"></line><line x1="278.16" y1="216.68" x2="280.58" y2="220.9" style="fill:none;stroke:#263238;stroke-linecap:round;stroke-linejoin:round;stroke-width:2px"></line><line x1="296.88" y1="213.36" x2="298.69" y2="217.28" style="fill:none;stroke:#263238;stroke-linecap:round;stroke-linejoin:round;stroke-width:2px"></line><path d="M245.69,186.75c-1.75-4.62-12.8-4.72-24.69-.22s-20.11,11.89-18.36,16.52L217,238.53l43-16.29Z" style="fill:#bdbdbd;stroke:#263238;stroke-linecap:round;stroke-linejoin:round"></path><path d="M222.22,189.92c12-4.53,23.07-4.43,24.83.22l-1.36-3.39c-1.75-4.62-12.8-4.72-24.69-.22s-20.11,11.89-18.36,16.52l.92,2.26C203.43,200.66,211.26,194.06,222.22,189.92Z" style="fill:#fff;stroke:#263238;stroke-linecap:round;stroke-linejoin:round"></path><path d="M215.18,234l1.85,4.56,43-16.29-1.91-4.71c-5.35-1.37-14.11-.35-23.3,3.13C225.53,224.19,218.19,229.34,215.18,234Z" style="fill:none;stroke:#263238;stroke-linecap:round;stroke-linejoin:round"></path><ellipse cx="238.78" cy="230.98" rx="23.02" ry="8.31" transform="translate(-66.3 99.46) rotate(-20.73)" style="fill:#fff;stroke:#263238;stroke-linecap:round;stroke-linejoin:round"></ellipse><line x1="206.59" y1="198.42" x2="209.14" y2="203.53" style="fill:none;stroke:#263238;stroke-linecap:round;stroke-linejoin:round;stroke-width:2px"></line><line x1="223.21" y1="188.51" x2="225.13" y2="192.98" style="fill:none;stroke:#263238;stroke-linecap:round;stroke-linejoin:round;stroke-width:2px"></line><line x1="241.11" y1="186.27" x2="243.03" y2="190.74" style="fill:none;stroke:#263238;stroke-linecap:round;stroke-linejoin:round;stroke-width:2px"></line><line x1="216.5" y1="229.1" x2="218.09" y2="232.62" style="fill:none;stroke:#263238;stroke-linecap:round;stroke-linejoin:round;stroke-width:2px"></line><line x1="232.16" y1="217.92" x2="234.72" y2="222.39" style="fill:none;stroke:#263238;stroke-linecap:round;stroke-linejoin:round;stroke-width:2px"></line><line x1="251.98" y1="214.4" x2="253.9" y2="218.56" style="fill:none;stroke:#263238;stroke-linecap:round;stroke-linejoin:round;stroke-width:2px"></line><rect x="162.15" y="239.97" width="58.18" height="78" style="fill:#fff;stroke:#263238;stroke-linecap:round;stroke-linejoin:round"></rect><rect x="162.15" y="243.81" width="58.18" height="70.32" style="fill:#bdbdbd;stroke:#263238;stroke-linecap:round;stroke-linejoin:round"></rect><line x1="170.15" y1="240.29" x2="170.15" y2="249.56" style="fill:none;stroke:#263238;stroke-linecap:round;stroke-linejoin:round;stroke-width:2px"></line><line x1="191.56" y1="240.29" x2="191.56" y2="249.56" style="fill:none;stroke:#263238;stroke-linecap:round;stroke-linejoin:round;stroke-width:2px"></line><line x1="212.98" y1="240.29" x2="212.98" y2="249.56" style="fill:none;stroke:#263238;stroke-linecap:round;stroke-linejoin:round;stroke-width:2px"></line><line x1="170.15" y1="308.06" x2="170.15" y2="317.33" style="fill:none;stroke:#263238;stroke-linecap:round;stroke-linejoin:round;stroke-width:2px"></line><line x1="191.56" y1="308.06" x2="191.56" y2="317.33" style="fill:none;stroke:#263238;stroke-linecap:round;stroke-linejoin:round;stroke-width:2px"></line><line x1="212.98" y1="308.06" x2="212.98" y2="317.33" style="fill:none;stroke:#263238;stroke-linecap:round;stroke-linejoin:round;stroke-width:2px"></line><ellipse cx="195.56" cy="160.79" rx="32.76" ry="8.95" style="fill:#fff;stroke:#263238;stroke-linecap:round;stroke-linejoin:round"></ellipse><polyline points="193.98 160.94 193.98 293.62 173.75 318.61" style="fill:none;stroke:#263238;stroke-linecap:round;stroke-linejoin:round;stroke-width:2px"></polyline><line x1="193.98" y1="293.62" x2="211.05" y2="318.22" style="fill:none;stroke:#263238;stroke-linecap:round;stroke-linejoin:round;stroke-width:2px"></line><line x1="193.98" y1="295.6" x2="193.98" y2="318.22" style="fill:none;stroke:#263238;stroke-linecap:round;stroke-linejoin:round;stroke-width:2px"></line><circle cx="277.13" cy="276.09" r="45.55" style="fill:#fff;stroke:#263238;stroke-linecap:round;stroke-linejoin:round"></circle><path d="M325.24,276.09A45.53,45.53,0,0,0,304.62,238v-7.43H279.69a45.55,45.55,0,0,0-2.56,91v.07h27.49v-7.43A45.53,45.53,0,0,0,325.24,276.09Z" style="fill:#bdbdbd;stroke:#263238;stroke-linecap:round;stroke-linejoin:round"></path><circle cx="304.62" cy="276.09" r="45.55" style="fill:#fff;stroke:#263238;stroke-linecap:round;stroke-linejoin:round"></circle><circle cx="308.47" cy="276.09" r="45.55" style="fill:#fff;stroke:#263238;stroke-linecap:round;stroke-linejoin:round"></circle><circle cx="308.47" cy="276.09" r="42.91" transform="translate(-80.7 134.93) rotate(-21.89)" style="fill:#fff;stroke:#263238;stroke-linecap:round;stroke-linejoin:round"></circle><path d="M308.47,233.18a42.91,42.91,0,0,0-42.91,42.91c0,.17,0,.33,0,.5A41.9,41.9,0,1,1,308,319l.51,0a42.91,42.91,0,0,0,0-85.82Z" style="fill:#263238;stroke:#263238;stroke-linecap:round;stroke-linejoin:round"></path></g><g id="freepik--Speakers--inject-34"><rect x="370.8" y="327.55" width="93.67" height="146.29" style="fill:#fff;stroke:#263238;stroke-linecap:round;stroke-linejoin:round"></rect><rect x="405.76" y="327.55" width="58.71" height="146.29" style="fill:#ccc;stroke:#263238;stroke-linecap:round;stroke-linejoin:round"></rect><circle cx="435.45" cy="359.31" r="23.37" transform="matrix(0.16, -0.99, 0.99, 0.16, 11.47, 732.07)" style="fill:#545d62"></circle><circle cx="435.45" cy="359.31" r="8.39" transform="translate(-128.56 384.07) rotate(-42.04)" style="fill:#263238"></circle><circle cx="435.45" cy="447.32" r="23.37" transform="translate(-136.59 197.35) rotate(-22.17)" style="fill:#545d62"></circle><circle cx="435.45" cy="447.32" r="8.39" transform="translate(-96.73 773.66) rotate(-77.29)" style="fill:#263238"></circle><circle cx="435.45" cy="401.95" r="11.57" transform="translate(-132.2 231.8) rotate(-26.02)" style="fill:#545d62"></circle><path d="M439.6,402a4.16,4.16,0,1,1-4.15-4.15A4.15,4.15,0,0,1,439.6,402Z" style="fill:#263238"></path><rect x="98.37" y="318" width="284.63" height="155.84" style="fill:#fff;stroke:#263238;stroke-linecap:round;stroke-linejoin:round"></rect><rect x="143.41" y="318" width="239.59" height="155.84" style="fill:#fff;stroke:#263238;stroke-linecap:round;stroke-linejoin:round"></rect><rect x="35.8" y="327.55" width="93.67" height="146.29" style="fill:#fff;stroke:#263238;stroke-linecap:round;stroke-linejoin:round"></rect><rect x="70.76" y="327.55" width="58.71" height="146.29" style="fill:#ccc;stroke:#263238;stroke-linecap:round;stroke-linejoin:round"></rect><circle cx="100.45" cy="359.31" r="23.37" transform="translate(-270.14 402.39) rotate(-81.01)" style="fill:#545d62"></circle><circle cx="100.45" cy="359.31" r="8.39" transform="translate(-229.18 184.57) rotate(-46.45)" style="fill:#263238"></circle><circle cx="100.45" cy="447.32" r="23.37" transform="translate(-156.11 67.37) rotate(-21.37)" style="fill:#545d62"></circle><circle cx="100.45" cy="447.32" r="8.39" transform="translate(-357.96 439.94) rotate(-76.42)" style="fill:#263238"></circle><circle cx="100.45" cy="401.95" r="11.57" transform="translate(-150.49 72.27) rotate(-23.25)" style="fill:#545d62"></circle><path d="M104.6,402a4.16,4.16,0,1,1-4.15-4.15A4.15,4.15,0,0,1,104.6,402Z" style="fill:#263238"></path><polygon points="260.37 473.84 337.62 473.84 337.62 438.23 276.43 438.23 260.37 473.84" style="fill:#757575;stroke:#263238;stroke-linecap:round;stroke-linejoin:round"></polygon><rect x="287.14" y="438.23" width="50.48" height="35.62" style="fill:#4a4a4a;stroke:#263238;stroke-linecap:round;stroke-linejoin:round"></rect><polygon points="199.37 473.84 276.62 473.84 276.62 438.23 215.43 438.23 199.37 473.84" style="fill:#757575;stroke:#263238;stroke-linecap:round;stroke-linejoin:round"></polygon><rect x="226.14" y="438.23" width="50.48" height="35.62" style="fill:#4a4a4a;stroke:#263238;stroke-linecap:round;stroke-linejoin:round"></rect><line x1="9.3" y1="473.84" x2="485.54" y2="473.84" style="fill:none;stroke:#263238;stroke-linecap:round;stroke-linejoin:round"></line></g><g id="freepik--character-3--inject-34"><path d="M450.83,457.26A26.66,26.66,0,0,1,447,465c-2.48,3.1-10.23,4.34-10.54,6.82s.31,1.86.31,1.86,25.1.93,28.51,0,13-9.3,14.25-10.54-5.88-9.92-5.88-9.92Z" style="fill:#92E3A9;stroke:#263238;stroke-linecap:round;stroke-linejoin:round"></path><path d="M436.74,473.64s-.5.49-.37-1.22c4.83.11,23.14.43,26.09-.64,3.12-1.14,14-10.57,15.85-12.16,1,1.62,1.64,3,1.19,3.48-1.24,1.24-10.84,9.61-14.25,10.54S436.74,473.64,436.74,473.64Z" style="fill:#fff;stroke:#263238;stroke-linecap:round;stroke-linejoin:round"></path><path d="M302.32,452.32s-7.81,1.48-11.84,1.17-9-.62-10.53,1.86,0,4.65,3.1,6.2,14.87,5.58,20.76,7.44,11.15,2.48,13.63,3.1,4.34-8.06,4.34-10.85S302.32,452.32,302.32,452.32Z" style="fill:#92E3A9;stroke:#263238;stroke-linecap:round;stroke-linejoin:round"></path><path d="M283.05,461.55c-3.1-1.55-4.65-3.72-3.1-6.2l.09-.11a71.56,71.56,0,0,0,17.26,8.48c5.29,1.61,17.07,4.24,22.78,5.49-.72,1.82-1.62,3.13-2.64,2.88-2.48-.62-7.74-1.24-13.63-3.1S286.15,463.1,283.05,461.55Z" style="fill:#fff;stroke:#263238;stroke-linecap:round;stroke-linejoin:round"></path><path d="M420.57,346.73l-2.16,8.95-.61,2.47-3.4,45.39s5.25-.62,4.63,2.47a13.11,13.11,0,0,0-.31,4.63s10.19,2.47,13.59,5.56,27.79,23.15,30.87,25S473.37,443.37,474,448s1.54,8.64,1.54,8.64-10.49,1.55-14.82,1.55a72.61,72.61,0,0,1-9.88-.93l-1.23-4s-51.87-29.33-53.73-31.5-4-9.57-4.32-11.73S379.2,363.4,379.2,363.4l-4-1.24S346.78,377,342.46,378.84a24.82,24.82,0,0,0-7.1,4.63l-1.24.92s3.4,17.29.93,25.63-6.18,19.14-7.41,23.16-2.78,17.91-2.78,19.76,0,4.94-.93,6.17-3.08,4.33-3.08,4.33a29.21,29.21,0,0,1-9.88-3.71,34.42,34.42,0,0,1-8.65-7.41s-1.23-1.85,0-3.09,3.4-3.08,3.4-3.08,2.16-15.13,2.47-17.29,2.6-45.32,3.08-49.71c.93-8.34,3.71-9,5.25-11.43s19.15-18.52,30.57-28.1S369.94,326,373,326s13.49,5.34,19.36,5.34,26.33,13.49,27.26,13.18S420.57,346.73,420.57,346.73Z" style="fill:#263238;stroke:#263238;stroke-linecap:round;stroke-linejoin:round"></path><path d="M363.2,254.12s.57,29.76,1.15,38.92,3.43,30.33,3.43,30.33l-7.44,6.87s13.5,8.59,20.2,8.3a33.1,33.1,0,0,0,10.7-2l18.32-6.87s-10.31-79.54-11.45-82.41-16.6-5.15-20.6-4.57S363.2,254.12,363.2,254.12Z" style="fill:#fff;stroke:#263238;stroke-linecap:round;stroke-linejoin:round"></path><path d="M378.53,212.35s4.08-8.86,6.71-4.55-1.2,9.1-3.11,10.06-4.08-.72-4.08-.72" style="fill:#fff;stroke:#263238;stroke-linecap:round;stroke-linejoin:round"></path><path d="M321.76,222.17l6.47.24,2.17,41.73s20.66-11.06,24-12.74,6.88-7.19,9.51-8.39,9.1-1.67,9.1-1.67l19.17-10.07,3.35,2.4s8.86,2.16,12.46,5.27,9.58,15.81,11.25,20.6.48,35,.48,38.32,8.15,50.07,8.15,50.07-16.53,4.55-30.18,4.79c-8.34.14-13.27.29-15.86.38-.86-8.35-3.76-37.28-3.76-50.91V255.27c-4-10.3-7.44-1.72-10.3-.58s1.72,63.53,0,68.68c-1.45,4.35-6.17,9.11-7.59,10.47L346,340.74s.48-5.27,3.11-7.9,14.61-12,15.09-13.18-5-40.48-5-40.48-41.24,4.72-42.44,2.09S321.76,222.17,321.76,222.17Z" style="fill:#92E3A9;stroke:#263238;stroke-linecap:round;stroke-linejoin:round"></path><path d="M358.6,260.83c-2.62,8.91.53,18.35.53,18.35s-41.24,4.72-42.44,2.09,5.08-59.1,5.08-59.1l6.46.24,2.17,41.73s20.66-11.06,24-12.74,6.88-7.19,9.51-8.39a22.17,22.17,0,0,1,5.18-1.23C365.24,247.45,360.16,255.53,358.6,260.83Z" style="fill:#263238;stroke:#263238;stroke-linecap:round;stroke-linejoin:round"></path><polygon points="372.85 239.11 365.53 242.16 363.7 250.69 373.45 248.86 372.85 239.11" style="fill:#263238;stroke:#263238;stroke-linecap:round;stroke-linejoin:round"></polygon><path d="M361.74,190.25s-6.13,8.37-6.41,10a24.45,24.45,0,0,0-.1,4.39s-4,3-4,4.69,3.24,1.78,3.24,1.78-2.31,11.17-.81,14.07c1,2,1.74,4.25,5.42,4.82.83.13,4.62-1.41,5.15-.48l13.1,22.86,22-17-5.85-20.07a105.18,105.18,0,0,0-.56-10.87c-.56-4.18-9.76-14.5-18.68-17S361.74,190.25,361.74,190.25Z" style="fill:#fff;stroke:#263238;stroke-linecap:round;stroke-linejoin:round"></path><path d="M360.41,215.79c.63,1.87.07,3.75-1.25,4.19s-2.89-.71-3.52-2.58-.08-3.75,1.24-4.2S359.78,213.92,360.41,215.79Z" style="fill:#263238;stroke:#263238;stroke-linecap:round;stroke-linejoin:round"></path><polyline points="360.18 203.57 359.7 205.11 363.63 204.67" style="fill:none;stroke:#263238;stroke-linecap:round;stroke-linejoin:round"></polyline><path d="M357.34,200.72s2.79-4.18,7.25-2.5" style="fill:none;stroke:#263238;stroke-linecap:round;stroke-linejoin:round"></path><polygon points="363.85 229.19 378.19 224.84 365.93 232.65 363.85 229.19" style="fill:#263238;stroke:#263238;stroke-linecap:round;stroke-linejoin:round"></polygon><polygon points="387.88 230.56 371.11 240.14 372.79 251.06 395.54 235.73 387.88 230.56" style="fill:#92E3A9;stroke:#263238;stroke-linecap:round;stroke-linejoin:round"></polygon><path d="M408.78,273.23a28.71,28.71,0,0,0,3.37,1.48" style="fill:none;stroke:#263238;stroke-linecap:round;stroke-linejoin:round"></path><path d="M415.49,266s-15.42-1.54-19.53-3.34-4.12-1-4.12-1a132.9,132.9,0,0,0,12.64,9.18" style="fill:none;stroke:#263238;stroke-linecap:round;stroke-linejoin:round"></path><path d="M396.47,269.83s8.22,8.48,12.59,11.3" style="fill:none;stroke:#263238;stroke-linecap:round;stroke-linejoin:round"></path><polyline points="412.15 317.89 381.16 321.59 381.82 328.42 412.66 322.77" style="fill:none;stroke:#263238;stroke-linecap:round;stroke-linejoin:round"></polyline><path d="M412.66,325.34s2.83,15.93,1.54,16.7-27.75,5.14-29,3.6-2.83-14.9-2.83-14.9" style="fill:none;stroke:#263238;stroke-linecap:round;stroke-linejoin:round"></path><path d="M364.92,192.5s-.28-.27-2.67-.27-5-1.2-5.51.24,2.39,3.83,1.19,4.55-5.51-.48-6-3.59,3.11-5.51,5.5-5.75-.47-2.87,3.12-5,6.95-1.2,12-1,6.7-1.91,12.45.48,11,7.67,13.89,12.46,2.16,7.42,4.31,10.54,6.71,3.59,9.83,8.14-.24,7.67-1.68,9.58-.48,1.44,0,4.55.48,6.71-2.88,6.71-5,.24-6,1.68-6.23,2.63-8.39.71a10.54,10.54,0,0,0-6.22-2.87,4.39,4.39,0,0,1-3.84-4.31c0-2.16,1.2-2.64.24-4.07s-2.39-4.08-1.2-5.51,3.84-2.64,2.88-5.75-10.81-7.08-13.21-9.95-1.68-5.16,0-8.52S366.59,192,364.92,192.5Z" style="fill:#263238;stroke:#263238;stroke-linecap:round;stroke-linejoin:round"></path><path d="M404.08,206.46a32.05,32.05,0,0,0,8.95,6.85c5.36,2.69,4.34,6.78,2.29,9.16s-1.8,3,0,5.11-1,6.47-4.77,7.15" style="fill:none;stroke:#263238;stroke-linecap:round;stroke-linejoin:round"></path><circle cx="334.62" cy="222.92" r="5.95" style="fill:#263238;stroke:#263238;stroke-linecap:round;stroke-linejoin:round"></circle><path d="M317.05,220,304,222.58a2.63,2.63,0,0,0-2.1,2.85h0a2.63,2.63,0,0,0,2.78,2.35l18.56-1.13-3.34-7.46Z" style="fill:#263238;stroke:#263238;stroke-linecap:round;stroke-linejoin:round"></path><line x1="323.22" y1="226.65" x2="243.8" y2="465.55" style="fill:none;stroke:#263238;stroke-linecap:round;stroke-linejoin:round;stroke-width:3px"></line><path d="M277.62,469.15c-1.44,5.71-17.25,6.67-35.32,2.13s-31.55-12.85-30.12-18.56,17.25-6.67,35.32-2.13S279.05,463.44,277.62,469.15Z" style="fill:#263238;stroke:#263238;stroke-linecap:round;stroke-linejoin:round"></path><path d="M394.1,238.22s-2.87-1.68-6.46,1.2-12.7,10.54-16.05,11-7.67-.24-8.15.72a35,35,0,0,1-3.11,3.83s.48-1-1.2-.72-4.07.72-4.07.72-18.2-10.78-21.32-13.89-4.31-4.08-4.31-4.08-1.2-12.21-1.2-13.41-4.55-6.47-4.55-6.47a16,16,0,0,0-4.07-.24c-1.44.24-5.51,1-6,2.16s-1.68,1.92-.48,2.15,2.16.24,2.88.48,2.39,10.78,4.31,12.94,4.55,7.42,4.55,7.42,18.68,25.15,23.47,29.47a68.68,68.68,0,0,0,10.78,7.66s4.31,2.88,6.95,2.88,6.23-4.32,8.14-4.56,9.58-.24,14.85-4.07,11.74-9.82,17.49-13.17,1-11-.72-13.89" style="fill:#92E3A9;stroke:#263238;stroke-linecap:round;stroke-linejoin:round"></path><path d="M359.72,257s9.25,9.51,8,12.08" style="fill:none;stroke:#263238;stroke-linecap:round;stroke-linejoin:round"></path><path d="M363.57,256.46s8,4.37,8,6.43" style="fill:none;stroke:#263238;stroke-linecap:round;stroke-linejoin:round"></path><path d="M323.68,217.14s7.91-1.91,9.58-1.91,6.23,6,6.23,7.66-10.78,2.16-12.22,2.16S322.24,217.38,323.68,217.14Z" style="fill:#fff;stroke:#263238;stroke-linecap:round;stroke-linejoin:round"></path><path d="M337.55,223.85s-4.41-7-7.07-8.4" style="fill:none;stroke:#263238;stroke-linecap:round;stroke-linejoin:round"></path><path d="M334.08,224.29s-3.7-5.56-7.05-7.63" style="fill:none;stroke:#263238;stroke-linecap:round;stroke-linejoin:round"></path><path d="M330.38,224.77s-2.66-5.63-6.35-7.68" style="fill:none;stroke:#263238;stroke-linecap:round;stroke-linejoin:round"></path><path d="M319.61,216.9a16,16,0,0,1,4.07.24s4.55,5.27,4.55,6.47,1.2,13.41,1.2,13.41,1.2,1,4.31,4.08c2.1,2.09,11,7.66,16.64,11.07-2.47.3-7.78,1.84-10.48,9.5-6.9-8.69-15-19.62-15-19.62s-2.64-5.27-4.55-7.42-3.59-12.7-4.31-12.94-1.68-.24-2.88-.48,0-1,.48-2.15S318.17,217.14,319.61,216.9Z" style="fill:#fff;stroke:#263238;stroke-linecap:round;stroke-linejoin:round"></path></g><g id="freepik--character-1--inject-34"><path d="M118.83,189.18s4.71-5.6,1.47-8.84-16.49-.88-29.45,11.49S77,223.05,80,233.94s14.43,19.44,23.56,23,31.22,8.83,40.06,9.13,23.56-10,23.56-10-5.6-9.13-2.06-26.5a200.4,200.4,0,0,1,7.66-28.28s-12.38,1.47-21.51,6.48-15.9,9.72-20.32,5-2.06-11.78-3.53-17.38S118.83,189.18,118.83,189.18Z" style="fill:#263238;stroke:#263238;stroke-linecap:round;stroke-linejoin:round"></path><path d="M80.15,211.72s-6.07,21.48-3.26,28S86.69,250,86.69,250" style="fill:none;stroke:#263238;stroke-linecap:round;stroke-linejoin:round"></path><path d="M135.26,215a109.53,109.53,0,0,0,18.21-10.74,31.59,31.59,0,0,1,19.62-6.53" style="fill:none;stroke:#263238;stroke-linecap:round;stroke-linejoin:round"></path><path d="M129.5,241.28s6.74-3.67,10.48-.71,5.46,14.64,6.39,21.5,5.3,30.23,5.45,31.79-2.33,6.85-6.07,6.85-4.21-.15-6.86-7.63-6.39-32.41-6.39-32.41l-3.58-19.17Z" style="fill:#fff;stroke:#263238;stroke-linecap:round;stroke-linejoin:round"></path><path d="M144.62,254.33s-.22-1.35-3.85-2.26a39.74,39.74,0,0,1-6.11-2s.46,2.27,1.59,2.95a32,32,0,0,0,5,1.58,4.28,4.28,0,0,1,1.35.9" style="fill:none;stroke:#263238;stroke-linecap:round;stroke-linejoin:round"></path><path d="M137.15,253.65a4.33,4.33,0,0,0,1.36,2.49c1.13.91,5,1.59,5,1.59" style="fill:none;stroke:#263238;stroke-linecap:round;stroke-linejoin:round"></path><path d="M140.1,257.27s-2,3.4-1.14,3.17a15.23,15.23,0,0,0,2.95-1.58s-2,3.17-.68,2.94,2.49-2,2.49-2l.68,2.49.9-.45" style="fill:none;stroke:#263238;stroke-linecap:round;stroke-linejoin:round"></path><path d="M146.21,264.06s-1.14,1.59-4.08.46a45.42,45.42,0,0,1-5.65-2.72l-.23,2.49A8.26,8.26,0,0,0,141,267a16,16,0,0,0,5.66-.22" style="fill:none;stroke:#263238;stroke-linecap:round;stroke-linejoin:round"></path><polyline points="136.7 265.19 137.83 269.49 139.42 268.14 140.78 269.04 141 267" style="fill:none;stroke:#263238;stroke-linecap:round;stroke-linejoin:round"></polyline><path d="M65.34,380a55.63,55.63,0,0,1-3.11,15.27c-2.81,7.48-2.81,12.47-4,22.75s-2.81,29.61-7.48,37.4c-2.09,3.47-6.55,9.35-9.66,11.53s-7.48,2.49-8.11,6.55,1.56,4.67,5.92,5.29,10-.31,11.54-1.87,2.8-5,7.16-6.23,7.48-3.12,7.79-7.79-.62-10.28.32-13.4S71,432.07,75,422.41,79.06,400.9,79.68,399s8.1-17.45,8.1-17.45L66,376.28Z" style="fill:#fff;stroke:#263238;stroke-linecap:round;stroke-linejoin:round"></path><path d="M83.15,391.33c1.69-3.59,3.5-7.38,4.26-9l-4.29-1.91L66,376.28,65.34,380s-.07,1.93-.49,4.77c2.76,1.71,8.31,4.8,13.6,5.74C80.42,390.89,82,391.14,83.15,391.33Z" style="fill:#263238;stroke:#263238;stroke-linecap:round;stroke-linejoin:round"></path><path d="M53.06,449.82a26.61,26.61,0,0,1-2.36,5.62c-2.09,3.47-6.55,9.35-9.66,11.53s-7.48,2.49-8.11,6.55,1.56,4.67,5.92,5.29,10-.31,11.54-1.87,2.8-5,7.16-6.23,7.48-3.12,7.79-7.79c.29-4.22-.44-9.19.1-12.41C58.55,453.7,54.85,451.72,53.06,449.82Z" style="fill:#263238;stroke:#263238;stroke-linecap:round;stroke-linejoin:round"></path><path d="M57.55,470.71c3.94-1.12,6.85-2.76,7.61-6.5-4.11,3.22-9.07,2.78-13.53,5.57-5,3.11-6.54,4.36-6.54,4.36a20.37,20.37,0,0,0-2.5-4.05A5.05,5.05,0,0,0,39.36,468c-2.81,1.41-5.91,2.2-6.43,5.57-.62,4.05,1.56,4.67,5.92,5.29s10-.31,11.54-1.87S53.19,472,57.55,470.71Z" style="fill:#fff;stroke:#263238;stroke-linecap:round;stroke-linejoin:round"></path><path d="M63.37,457.05a2.69,2.69,0,1,1-1.88-3.54A2.83,2.83,0,0,1,63.37,457.05Z" style="fill:#fff;stroke:#263238;stroke-linecap:round;stroke-linejoin:round"></path><path d="M131.88,386.18s7.24,10.05,8.18,13.56a111,111,0,0,0,8.65,22.2c5.37,10.52,16.73,30.39,17.67,35.07s3.5,18.23,3.5,18.23l2.81,1.63s14.72.71,16.12-.23,1.17-4.91-1.4-7.71-7.71-3-8.41-5.38-2.57-4.67-4.91-18.46-4.11-25-8.55-35.77-9.59-19.64-9.82-20.57-3-9.35-3-9.35Z" style="fill:#fff;stroke:#263238;stroke-linecap:round;stroke-linejoin:round"></path><path d="M157,407.18a1.75,1.75,0,0,1,.25-2.52c1.37-1.25,2.38-.63,2.77-1.47l.39-.84s2.4,1.19,2.15,2.92a9.61,9.61,0,0,1-.75,2.72" style="fill:none;stroke:#263238;stroke-linecap:round;stroke-linejoin:round"></path><path d="M166.24,410.74a1.63,1.63,0,0,1-.82.87l-.62.22" style="fill:none;stroke:#263238;stroke-linecap:round;stroke-linejoin:round"></path><path d="M162.49,406.2a2.65,2.65,0,0,1,1.61-.58" style="fill:none;stroke:#263238;stroke-linecap:round;stroke-linejoin:round"></path><path d="M161.13,408.37a4.08,4.08,0,0,1,1.48,2.76c0,1.57-.26,2.52-1.88,3a4.28,4.28,0,0,1-4.12-.53,2.86,2.86,0,0,1-.7-2" style="fill:none;stroke:#263238;stroke-linecap:round;stroke-linejoin:round"></path><path d="M162.61,411.13s3.77-.06,3.23,2.36-3.22,2.72-4.73,3.09-2.3,1.93-4,2.18-1.76-1.28-1.39-2.25a9.48,9.48,0,0,1,1.84-2.38" style="fill:none;stroke:#263238;stroke-linecap:round;stroke-linejoin:round"></path><path d="M155.71,417s-1.76.41-2.58-.64-.49-1.48-1.21-1.89a2.49,2.49,0,0,1-1-1.28,2.66,2.66,0,0,1-.13-1.68,2,2,0,0,1,1.49-1.27l1.28-.2" style="fill:none;stroke:#263238;stroke-linecap:round;stroke-linejoin:round"></path><path d="M158.92,411.71a1.39,1.39,0,0,1-1.76.41,9.14,9.14,0,0,1-2.7-1.41c-.88-.64,0-1.69,0-1.69Z" style="fill:none;stroke:#263238;stroke-linecap:round;stroke-linejoin:round"></path><path d="M159.75,407a6.23,6.23,0,0,1-.05,3c-.48,1.12-.78,1.69-.78,1.69s2.31-.23,2.28-1.27.29-2.26-.12-3.24S159.75,407,159.75,407Z" style="fill:none;stroke:#263238;stroke-linecap:round;stroke-linejoin:round"></path><path d="M159.75,407a3,3,0,0,0-1.21-.2c-.78,0-1,.94-1,.94a1.26,1.26,0,0,0-1.82,0c-.9.92-1.24,1.24-1.24,1.24" style="fill:none;stroke:#263238;stroke-linecap:round;stroke-linejoin:round"></path><path d="M156.67,405.67a4.59,4.59,0,0,0-2.14-.31,5.6,5.6,0,0,1-2.09-.07c-.4-.06-.16.68-.78,1.69s-.93,1.58-.68,2.32a2.25,2.25,0,0,0,.69,1.07" style="fill:none;stroke:#263238;stroke-linecap:round;stroke-linejoin:round"></path><path d="M151,409.3a5.57,5.57,0,0,0-2.4.51c-.83.52-1.77,1.19-1.77,1.19a3.87,3.87,0,0,0,1.41,1.47,7.4,7.4,0,0,0,2.72.75" style="fill:none;stroke:#263238;stroke-linecap:round;stroke-linejoin:round"></path><path d="M154.53,405.36a7.4,7.4,0,0,1-.21-2.19,28.86,28.86,0,0,1,.33-2.91,11.26,11.26,0,0,1,2.65,1.93,18.37,18.37,0,0,1,1.59,1.83" style="fill:none;stroke:#263238;stroke-linecap:round;stroke-linejoin:round"></path><path d="M162.4,404s-.14-.42.59-.81" style="fill:none;stroke:#263238;stroke-linecap:round;stroke-linejoin:round"></path><path d="M166.83,412.17c-.61,0-1.06,0-1.06,0" style="fill:none;stroke:#263238;stroke-linecap:round;stroke-linejoin:round"></path><path d="M165.77,414.68a2.79,2.79,0,0,0,2,.46" style="fill:none;stroke:#263238;stroke-linecap:round;stroke-linejoin:round"></path><path d="M154.31,417.25a3.65,3.65,0,0,0-.81,2.35,4.3,4.3,0,0,0,.84,2.86,8.52,8.52,0,0,0,2.11-1.5,5.71,5.71,0,0,0,1.25-2" style="fill:none;stroke:#263238;stroke-linecap:round;stroke-linejoin:round"></path><path d="M160.17,417.25s1.21,1.9,2.06,1.5.68-2.32.68-2.32" style="fill:none;stroke:#263238;stroke-linecap:round;stroke-linejoin:round"></path><line x1="162.23" y1="418.75" x2="168.48" y2="435.37" style="fill:none;stroke:#263238;stroke-linecap:round;stroke-linejoin:round"></line><path d="M165.65,428.12a17.5,17.5,0,0,1,.8-3.25,11.67,11.67,0,0,1,2.06-2.67s.91,2.47.13,3.37A26.46,26.46,0,0,1,165.65,428.12Z" style="fill:none;stroke:#263238;stroke-linecap:round;stroke-linejoin:round"></path><path d="M165.65,428.12c-.34.32-2.22,0-4.09.51a4.92,4.92,0,0,0-2.75,2.39,9.81,9.81,0,0,0,3.26,0C163.32,430.7,165.65,428.12,165.65,428.12Z" style="fill:none;stroke:#263238;stroke-linecap:round;stroke-linejoin:round"></path><path d="M164.33,424.68a9.05,9.05,0,0,0-2.51-1,20.69,20.69,0,0,0-2.4-.41s1.65,2.22,3,2.4A1.92,1.92,0,0,0,164.33,424.68Z" style="fill:none;stroke:#263238;stroke-linecap:round;stroke-linejoin:round"></path><path d="M135,390.67c3.28-.35,12.28-1.57,19.85-4.74-.9-2.77-2.15-6.53-2.15-6.53l-20.8,6.78S133.31,388.16,135,390.67Z" style="fill:#263238;stroke:#263238;stroke-linecap:round;stroke-linejoin:round"></path><path d="M187.41,468.93c-2.57-2.81-7.71-3-8.41-5.38-.43-1.43-1.3-2.86-2.44-6.92a17.28,17.28,0,0,1-10,1.49c1.06,5.4,3.28,17.12,3.28,17.12l2.81,1.63s14.72.71,16.12-.23S190,471.73,187.41,468.93Z" style="fill:#263238;stroke:#263238;stroke-linecap:round;stroke-linejoin:round"></path><path d="M170.16,461.77c.33,1.55,0,2.93-.69,3.08s-1.54-1-1.86-2.54,0-2.93.68-3.08S169.83,460.22,170.16,461.77Z" style="fill:#fff;stroke:#263238;stroke-linecap:round;stroke-linejoin:round"></path><path d="M179.46,469.16a8.1,8.1,0,0,0-5.61,4.21L169.27,472c.37,1.92.61,3.21.61,3.21l5,2.44s12.53-.1,13.93-1c1.16-.77,1.2-3.6-.26-6.15C186.9,469.84,182.76,468.43,179.46,469.16Z" style="fill:#fff;stroke:#263238;stroke-linecap:round;stroke-linejoin:round"></path><path d="M92.77,287.93a19.64,19.64,0,0,1-1.56,7.48c-1.56,3.12-9,15.9-12,24.78s-17,60.3-17,60.3,14.8,7.17,24.46,7.95a146,146,0,0,0,14.65.62l7.48-43.78,3.43-1.41,4.67,44.72s12.62,0,21-1.71,20.88-6.08,20.88-6.08S152,356,151,350.26s-10.12-39.11-13.55-47.68S132,290.12,132,289.49v-5a75.62,75.62,0,0,1-18.38,0c-10.13-1.25-20.73-2.34-20.73-2.34Z" style="fill:#fff;stroke:#263238;stroke-linecap:round;stroke-linejoin:round"></path><path d="M158.84,380.8S152,356,151,350.26s-10.12-39.11-13.55-47.68l-.64-1.58c-5.9,1.67-22.81,5.2-48.9.46-2.89,5.36-6.79,12.89-8.74,18.73-3,8.88-17,60.3-17,60.3s14.8,7.17,24.46,7.95a146,146,0,0,0,14.65.62l7.48-43.78,3.43-1.41,4.67,44.72s12.62,0,21-1.71S158.84,380.8,158.84,380.8Z" style="fill:#fff;stroke:#263238;stroke-linecap:round;stroke-linejoin:round"></path><path d="M136.71,357.27s1.56,10.29,1.25,13.4-.94,5,4,5.3,15-1.56,15-4.05-1.25-6.85-2.19-9.66-2.49-8.1-2.49-8.1l-7.79-.63Z" style="fill:#fff;stroke:#263238;stroke-linecap:round;stroke-linejoin:round"></path><path d="M150.42,347.93s-7.17,2.8-10,2.8a9.89,9.89,0,0,0-4,.62s-.63,5.92.31,5.92,9.66-.31,11.22-.93,4.36-2.18,4.36-2.18S151.67,352.29,150.42,347.93Z" style="fill:#fff;stroke:#263238;stroke-linecap:round;stroke-linejoin:round"></path><path d="M82.17,360.7s-1.56,10.91-1.87,14-.62,4.67-3.43,4.67-9.34-3.12-10.9-4.67-2.81.31-2.18-2.81S66.9,363.2,67.21,361a47.17,47.17,0,0,1,1.56-5.92l13.09,4.37Z" style="fill:#fff;stroke:#263238;stroke-linecap:round;stroke-linejoin:round"></path><path d="M70.64,349.48a41.24,41.24,0,0,0,7.79,3.43c3.43.94,5.3,0,5.61,1.56s-.93,6.23-1.87,6.23a48.84,48.84,0,0,1-9-2.18c-3.73-1.25-4.67-2.18-4.67-2.18A43.57,43.57,0,0,0,70.64,349.48Z" style="fill:#fff;stroke:#263238;stroke-linecap:round;stroke-linejoin:round"></path><path d="M116.08,191.17a34.66,34.66,0,0,1,8,9.35c3,5.47,5.11,15.53,5.47,18.35s.53,6.53-1.94,7.24-9,.88-9,.88.35,9.35,1.58,11.47a5.85,5.85,0,0,0,5.3,3c2.12,0,4.06-.18,4.06-.18s4.76,27.71,5.82,31.41,1.41,6.53-1.24,10.94S125.79,290,117,290.69,96.89,291.87,91,287.87c-3.89-2.65-6.71-6.35-5.12-13.59s12.7-29.82,12.7-29.82L103,243.4a40.64,40.64,0,0,0,0-9.71,91.36,91.36,0,0,0-3.71-13.06c-1.41-4,3.18-2.64,3.18-2.64S110.09,195.93,116.08,191.17Z" style="fill:#fff;stroke:#263238;stroke-linecap:round;stroke-linejoin:round"></path><path d="M117.51,190.7s-8.4,9.34-10.27,17.75,2.8,22.88-13.54,25.21" style="fill:none;stroke:#263238;stroke-linecap:round;stroke-linejoin:round"></path><path d="M114.24,191.17S104,201,106.31,211.25s5.6,22.41-7,26.15" style="fill:none;stroke:#263238;stroke-linecap:round;stroke-linejoin:round"></path><polygon points="110.35 225.52 118.87 231.77 119.53 226.77 110.35 225.52" style="fill:#263238;stroke:#263238;stroke-linecap:round;stroke-linejoin:round"></polygon><path d="M102.5,218s-3.53-5.3-6.18-2.83-.18,7.77,2.12,9,6.17-1.58,6.17-1.58l2.3,1.94" style="fill:#fff;stroke:#263238;stroke-linecap:round;stroke-linejoin:round"></path><path d="M119.45,236.17c-.25-1.3-.44-2.9-.58-4.4L103,233.67v0a27,27,0,0,1,.31,4.16Z" style="fill:#263238;stroke:#263238;stroke-linecap:round;stroke-linejoin:round"></path><path d="M106.42,235.3a.79.79,0,1,1-.79-.78A.79.79,0,0,1,106.42,235.3Z" style="fill:#fff"></path><path d="M111.49,234.69a.79.79,0,1,1-1.57,0,.79.79,0,1,1,1.57,0Z" style="fill:#fff"></path><path d="M116.83,234.17a.79.79,0,1,1-.79-.79A.78.78,0,0,1,116.83,234.17Z" style="fill:#fff"></path><path d="M119.61,198.93a2.13,2.13,0,0,0,2.12,1.59c1.77,0,3.88-1.94,4.06.53s-1.41,4.59-2.47,4.59" style="fill:#fff;stroke:#263238;stroke-linecap:round;stroke-linejoin:round"></path><path d="M125.26,209.34a6.38,6.38,0,0,1-6.35.18" style="fill:none;stroke:#263238;stroke-linecap:round;stroke-linejoin:round"></path><path d="M111.5,203s2.47-2.47,5.47-2.12" style="fill:none;stroke:#263238;stroke-linecap:round;stroke-linejoin:round"></path><path d="M109.56,198.93s2.64-3.35,6.35-1.41" style="fill:none;stroke:#263238;stroke-linecap:round;stroke-linejoin:round"></path><path d="M129.5,241.28s-1.34.12-3,.16l-.17,21.9s-3.88,2.47-15.35,3.18-15.18-1.59-15.18-1.59L103,243.4l-4.42,1.06s-11.11,22.59-12.7,29.82,1.23,10.94,5.12,13.59c5.86,4,17.11,3.53,25.94,2.82s14.47-2.65,17.11-7.06,2.3-7.23,1.24-10.94S129.5,241.28,129.5,241.28Z" style="fill:#263238;stroke:#263238;stroke-linecap:round;stroke-linejoin:round"></path><path d="M121.34,287c-.56.75-2.87,5,.79,7.84l-4.68,5.42s7,7.15,13.83,7.28,8.37,4.86,5.54,7.54-13.17,2.52-18,6.06-11.26,20.68-21.32,24c-19.42,6.37-36.45-23-29.51-39,5.87-13.53,22-7.21,32.89-11.49,7.58-3,10.33-16.89,18.61-18.44S123.71,283.83,121.34,287Z" style="fill:#92E3A9;stroke:#263238;stroke-linecap:round;stroke-linejoin:round"></path><path d="M119.73,287.5c-.56.75-2.88,4.94.78,7.83l-4.68,5.42s7,7.15,13.84,7.28,8.36,4.87,5.53,7.55-13.17,2.52-18,6.06-11.26,20.67-21.33,24c-19.41,6.38-36.44-23-29.5-39,5.87-13.53,22-7.21,32.88-11.49,7.58-3,10.34-16.89,18.61-18.44S122.1,284.3,119.73,287.5Z" style="fill:#92E3A9;stroke:#263238;stroke-linecap:round;stroke-linejoin:round"></path><path d="M115.83,300.75s-2.3,7.43,6.09,8.85,8.68,3.9,3.48,4.91-13.66.7-16.21,7.57-9,12.59-18.47,11.44-15.91-20.2-10-22.84,7.63.18,15-1.05S115.83,300.75,115.83,300.75Z" style="fill:#fff;stroke:#263238;stroke-linecap:round;stroke-linejoin:round"></path><polygon points="91.6 316.18 179.06 251.52 181.68 255.33 95.36 320.65 91.6 316.18" style="fill:#787878;stroke:#263238;stroke-linecap:round;stroke-linejoin:round"></polygon><path d="M179.06,251.52,177.93,246l24.48-9.39s3.21,3.88.51,6.05a5.53,5.53,0,0,1-5.63.77s-5,7.15-7.14,8.81-8.47,3.13-8.47,3.13Z" style="fill:#fff;stroke:#263238;stroke-linecap:round;stroke-linejoin:round"></path><path d="M98.61,244.46s-7.09.31-11.45,2.49-21.5,42.39-21.5,42.39,2.77,4.92,6.82,5.54S78.87,288,81.05,284s10.47-22.66,10.47-22.66Z" style="fill:#fff;stroke:#263238;stroke-linecap:round;stroke-linejoin:round"></path><path d="M73.32,286.8s3.36,2.18,5.54,8.89,7.58,15,9,15.88,4.22-.88,6-1.46,1.89.29,5.68,1.9,3.06,1.31,2.33,2a3.52,3.52,0,0,1-3.64.87,10.8,10.8,0,0,1-3.35-1.46,29.87,29.87,0,0,0,2,2.92,19.59,19.59,0,0,0,4.52,1.89c.58.15,1.74.88,1.6,1.31s-.29.59-1.31.59H99.11a10.78,10.78,0,0,0-3.78,1.31c-1.61,1-1.17,1.89-3.79,1s-4.81-1.17-6.56-2.63-2.91-3.64-5.83-6.84-9-10.2-12.24-15.3-2.18-8.45.73-12.53" style="fill:#fff;stroke:#263238;stroke-linecap:round;stroke-linejoin:round"></path><path d="M142.63,288.25a46.65,46.65,0,0,1,5.61-2.81c3.9-1.71,11.06-4.21,13.56-5.45a9.49,9.49,0,0,0,3.58-3l6.86,2.49s1.55,1.09-3.28,5-12.46,11.37-17.14,14.33-8.57,4.05-10,1.25-2.8-6.39-2.8-6.39" style="fill:#fff;stroke:#263238;stroke-linecap:round;stroke-linejoin:round"></path><path d="M166.26,280.54a32.69,32.69,0,0,1-5.07-4.09c-1.46-1.45-3.5-2.91-3.94-3.78s-2.18-3.5-1.6-5.1,1.75,1.74,2.62,2.62a3.87,3.87,0,0,0,2.62.73s-1.74-3.06-1.6-4.52,1.6-2.19,2.33-2.91a2.08,2.08,0,0,1,2.92.14c.87.88,2.77,3.06,2.77,3.06a8.61,8.61,0,0,0,.29-2.48c0-1.6-.59-2-1.61-3.78s-1.89-1.75-1.89-2.92,1.31-1,2.77.15,4.95,4.81,5.39,7a57,57,0,0,1,.58,12.39,11.42,11.42,0,0,1-.38,2.55" style="fill:#fff;stroke:#263238;stroke-linecap:round;stroke-linejoin:round"></path><path d="M161.33,264.21a15.63,15.63,0,0,1,2.77,5" style="fill:#fff;stroke:#263238;stroke-linecap:round;stroke-linejoin:round"></path></g><g id="freepik--Lights--inject-34"><path d="M472,23.47H453.49L449,13.27l-23.2,8.8.62,1.4h-64.8L357,13.27l-23.2,8.8.62,1.4H272.32V16.76H247.24v6.71h-65.8l-4.53-10.2-23.21,8.8.63,1.4h-69V16.76H60.27v6.71H30.43a2,2,0,0,0,0,4H60.27V41H85.35V27.47h70.76l7.55,17,23.2-8.79-3.64-8.2h64V41h25.08V27.47h63.92l7.55,17L367,35.67l-3.65-8.2h64.8l7.56,17,23.2-8.79-3.64-8.2H472a2,2,0,0,0,0-4Z" style="fill:#263238"></path></g></svg>